<svg width="436" height="556" viewBox="0 0 436 556" fill="none" xmlns="http://www.w3.org/2000/svg">
<mask id="mask0" mask-type="alpha" maskUnits="userSpaceOnUse" x="4" y="3" width="428" height="548">
<rect x="4" y="3" width="428" height="548" rx="6" fill="white"/>
</mask>
<g mask="url(#mask0)">
<path d="M-227.093 86.2763C-230.649 108.947 -229.343 127.66 -227.3 140.935C-224.159 161.431 -217.995 177.397 -211.406 194.485C-201.948 219.03 -199.176 219.096 -191.901 239.2C-182.786 264.356 -177.44 279.153 -179.013 297.754C-181.355 325.509 -196.169 326.771 -202.497 358.892C-208.279 388.186 -200.638 410.866 -198.549 416.646C-192.337 433.814 -181.858 462.82 -143.355 483.014C-111.366 499.795 -74.8798 504.774 -74.8798 504.774C-54.3214 507.582 -47.5701 505.407 -35.5527 510.662C-15.2142 519.544 -1.19885 540.291 0.686388 543.103C1.75353 544.688 3.38936 547.245 6.61465 550.431C8.84206 552.631 16.1843 559.709 28.6168 563.972C43.9967 569.236 59.5639 567.595 66.7572 566.773C89.2677 564.205 103.342 555.388 116.914 546.905C139.952 532.478 151.297 517.048 158.795 506.607C167.498 494.494 166.181 492.608 171.99 484.322C184.471 466.539 211.883 444.768 252.664 435.278C305.456 423.005 353.353 437.661 362.947 440.599C434.551 462.518 456.426 514.353 467.505 540.6C492.783 600.518 470.21 652.467 456.254 677.221L-231.458 675.226L-320.566 674.968L-318.329 86L-227.093 86.2647L-227.093 86.2763Z" fill="#D7CAC7"/>
<path d="M207.087 431.683C214.237 441.191 212.254 455.717 210.872 465.922C210.392 469.387 208.569 481.383 199.906 501.587C197.501 507.19 193.671 515.542 161.602 566.848C137.02 606.166 137.398 604.265 134.203 611.043C132.282 615.137 129.013 622.476 122.375 630.767C115.104 639.854 107.725 645.14 104.473 647.425C90.88 657.01 79.9246 658.657 77.3432 658.989C67.0677 660.301 61.0118 657.086 55.3711 654.1C46.1959 649.231 41.5313 642.213 39.9911 639.702C37.1569 635.063 35.8159 630.779 32.3892 603.537C28.6262 573.515 28.8752 567.641 31.396 559.186C33.0473 553.621 36.4515 542.583 45.3606 531.691C51.9902 523.576 59.5285 518.152 66.1395 513.395C76.4 506.016 78.7385 506.379 85.2039 500.433C92.0572 494.125 94.7879 488.806 100.173 480.959C109.956 466.682 121.403 454.42 129.703 447.148C148.224 430.921 165.757 426.633 170.351 425.583C178.918 423.568 197.727 419.246 207.087 431.683Z" fill="#E59889"/>
<path d="M-225.853 283.916L-225.853 283.916C-216.729 309.094 -211.431 323.786 -212.993 342.257C-214.154 356.02 -218.395 363.194 -223.168 370.97C-223.279 371.152 -223.391 371.333 -223.502 371.515C-228.209 379.178 -233.362 387.566 -236.47 403.342C-242.276 432.764 -234.603 455.546 -232.501 461.362L-232.501 461.363L-232.49 461.394C-226.265 478.594 -215.721 507.73 -177.069 528.003C-161.028 536.418 -143.868 541.869 -130.727 545.217C-124.155 546.891 -118.583 548.04 -114.654 548.771C-112.689 549.136 -111.135 549.397 -110.071 549.567C-109.539 549.651 -109.129 549.713 -108.852 549.754C-108.775 549.766 -108.708 549.775 -108.651 549.784C-108.607 549.79 -108.569 549.795 -108.538 549.8L-108.457 549.811L-108.437 549.814L-108.431 549.815L-108.43 549.815C-108.43 549.815 -108.43 549.815 -108.398 549.582L-108.43 549.815C-100.871 550.847 -95.1618 551.209 -90.3926 551.511C-88.6646 551.62 -87.06 551.722 -85.5357 551.845C-79.8085 552.306 -75.1757 553.068 -69.2351 555.666L-69.2348 555.666C-49.0432 564.484 -35.0974 585.114 -33.2106 587.928L-33.2101 587.928C-33.1401 588.032 -33.0675 588.141 -32.9921 588.253C-31.9173 589.858 -30.2683 592.32 -27.2185 595.332C-24.9693 597.554 -17.5635 604.692 -5.02741 608.99L-5.02716 608.99C10.468 614.294 26.1346 612.638 33.3319 611.815C55.9166 609.239 70.0615 600.398 83.6138 591.926L83.6968 591.875L83.6971 591.874C106.818 577.396 118.208 561.903 125.719 551.444C130.089 545.363 131.949 541.839 133.445 538.795C133.615 538.45 133.78 538.111 133.943 537.775C135.208 535.175 136.368 532.792 138.918 529.154C151.322 511.48 178.625 489.775 219.295 480.311C271.951 468.07 319.739 482.689 329.319 485.622C400.694 507.471 422.492 559.114 433.561 585.337L433.563 585.341C458.664 644.839 436.42 696.459 422.481 721.266L-264.938 719.272L-353.545 719.015L-351.312 131.047L-261.156 131.309C-264.612 153.787 -263.308 172.353 -261.276 185.557C-258.131 206.075 -251.965 222.066 -245.391 239.116L-245.355 239.211C-240.618 251.503 -237.553 257.671 -234.765 263.276L-234.744 263.319C-231.971 268.892 -229.472 273.915 -225.853 283.916Z" stroke="white"/>
<mask id="mask1" mask-type="alpha" maskUnits="userSpaceOnUse" x="130" y="-5" width="282" height="107">
<rect width="282" height="106" rx="6" transform="matrix(1 -8.14215e-08 -8.14215e-08 -1 130 101.001)" fill="white"/>
</mask>
<g mask="url(#mask1)">
<path d="M-142.298 169.258C-139.291 155.226 -134.334 144.595 -130.166 137.303C-123.737 126.042 -116.56 118.103 -108.883 109.605C-97.8592 97.3961 -96.2261 97.9791 -87.4725 87.8737C-76.5116 75.2318 -70.0739 67.7916 -66.8226 56.5807C-61.9672 39.8528 -70.3326 35.795 -66.8263 15.6249C-63.6344 -2.77182 -54.0896 -14.2992 -51.5746 -17.2054C-44.0992 -25.8346 -31.4799 -40.4184 -4.47537 -43.5759C17.9602 -46.201 40.3764 -40.9285 40.3764 -40.9285C53.0073 -37.9593 56.4611 -35.1763 64.6545 -35.5499C78.5187 -36.1757 91.3515 -45.1455 93.0824 -46.3643C94.0607 -47.0505 95.5889 -48.1765 98.1858 -49.3129C99.9794 -50.0983 105.852 -52.584 114.066 -52.2855C124.224 -51.911 132.944 -47.4633 136.959 -45.3708C149.524 -38.8256 155.764 -30.5235 161.785 -22.5286C172 -8.94217 175.164 2.60895 177.201 10.3851C179.566 19.4069 178.375 20.2129 179.908 26.3525C183.207 39.5317 194.33 58.3858 216.009 73.0677C244.077 92.0671 275.323 94.2489 281.582 94.6844C328.296 97.9404 352.686 72.5839 365.038 59.745C393.227 30.4332 391.695 -4.95346 389.097 -22.5328L-12.8192 -175.535L-64.8958 -195.359L-195.621 148.966L-142.3 169.264L-142.298 169.258Z" fill="#D7CAC7"/>
<path d="M-97.4102 54.0358L-97.41 54.0356L-76.3861 -17.8854L-76.8786 -17.9713C-76.8786 -17.9713 -76.8786 -17.9714 -76.8786 -17.9714C-73.6642 -36.4977 -64.0527 -48.1077 -61.5124 -51.0432L-61.5122 -51.0434L-61.4987 -51.059C-54.0011 -59.7138 -41.2746 -74.4047 -14.0936 -77.583C-2.82308 -78.9017 8.43208 -78.2362 16.8621 -77.2436C21.0789 -76.7472 24.593 -76.1684 27.054 -75.7134C28.2845 -75.486 29.252 -75.2894 29.9127 -75.1495C30.243 -75.0796 30.4967 -75.0238 30.6681 -74.9855C30.7539 -74.9663 30.8191 -74.9514 30.8631 -74.9413L30.913 -74.9298L30.9259 -74.9268L30.9293 -74.926L30.9302 -74.9258C30.9304 -74.9257 30.9305 -74.9257 30.8884 -74.7457L30.9306 -74.9257C35.5816 -73.8323 39.0054 -72.7604 41.8584 -71.8672C42.89 -71.5442 43.847 -71.2445 44.7604 -70.9757C48.1955 -69.9648 51.049 -69.3764 55.0716 -69.5598L55.0718 -69.5598C68.7759 -70.1784 81.5016 -79.0633 83.2347 -80.2836L83.2355 -80.2842C83.2997 -80.3292 83.3664 -80.3762 83.4357 -80.4251C84.425 -81.1225 85.9523 -82.1992 88.4254 -83.2814C90.2471 -84.0791 96.2007 -86.598 104.524 -86.2955L104.524 -86.2955C114.804 -85.9166 123.611 -81.419 127.63 -79.3246C140.274 -72.7382 146.571 -64.3774 152.584 -56.3934L152.624 -56.3397L152.625 -56.3394C162.898 -42.6754 166.082 -31.0498 168.124 -23.2516C169.315 -18.7109 169.612 -16.2263 169.804 -14.1053C169.826 -13.8649 169.846 -13.6298 169.866 -13.3974C170.022 -11.5974 170.164 -9.95894 170.833 -7.27894C174.1 5.77128 185.143 24.5248 206.729 39.1433C234.68 58.064 265.812 60.2407 272.057 60.6752C318.534 63.9147 342.784 38.7079 355.117 25.8888L355.118 25.8878C382.991 -3.09611 381.648 -38.059 379.085 -55.6801L-22.5565 -208.578L-74.1659 -228.224L-204.536 115.166L-152.224 135.08C-149.194 121.266 -144.292 110.773 -140.16 103.544C-133.714 92.2537 -126.518 84.288 -118.861 75.811L-118.814 75.7588C-113.288 69.6388 -110.111 66.7209 -107.224 64.0715L-107.202 64.0508C-104.337 61.4214 -101.758 59.0546 -97.4102 54.0358Z" stroke="white"/>
</g>
<path d="M325.2 14.5203C325.669 3.22601 331.676 -3.69341 335.892 -8.56286C337.328 -10.2076 342.365 -15.773 353.142 -20.6682C356.131 -22.0233 360.688 -23.8476 392.182 -28.2125C416.319 -31.5526 415.484 -30.7422 419.218 -32.153C421.469 -33.0118 425.434 -34.6922 431.119 -34.2321C437.35 -33.7306 442.265 -30.9167 444.415 -29.6517C453.415 -24.3788 458.495 -16.5701 459.671 -14.6972C464.353 -7.23703 465.686 -0.504191 466.93 5.76166C468.95 15.9608 468.352 23.8063 468.086 26.5104C467.589 31.497 466.606 35.0799 458.269 53.7779C449.075 74.3738 446.873 77.6143 442.816 80.5469C440.149 82.4835 434.806 86.2219 427.259 85.4659C421.639 84.9093 416.61 82.0492 412.199 79.5405C405.354 75.6453 404.525 73.5601 399.748 71.8645C394.683 70.0706 391.661 70.9988 386.648 71.2811C377.532 71.8086 368.455 69.8221 362.451 67.4342C349.057 62.1051 340.336 50.576 338.077 47.5114C333.845 41.8315 324.589 29.299 325.2 14.5203Z" fill="#E59889"/>
</g>
</svg>
