<svg width="225" height="225" viewBox="0 0 225 225" fill="none" xmlns="http://www.w3.org/2000/svg">
<circle cx="112.5" cy="112.5" r="112.5" fill="#226AB2"/>
<path fill-rule="evenodd" clip-rule="evenodd" d="M91.3166 146.694C78.9297 143.106 73.3792 134.182 71.7482 122.307C70.5862 113.845 70.7643 105.353 72.2428 96.9214C73.0318 92.4267 74.5917 88.2096 77.2163 84.421C80.8976 79.1032 86.3591 76.5377 92.2928 74.7627C101.161 72.1119 110.269 71.8995 119.413 72.421C125.062 72.7446 130.577 73.7918 135.974 75.5945C145.487 78.7727 150.837 85.4585 153.066 94.9854C155.078 103.573 154.954 112.224 154.08 120.92C153.692 124.791 153.025 128.587 151.52 132.19C148.256 139.995 142.317 144.644 134.227 146.845C125.379 149.252 116.392 149.987 107.273 149.354C106.325 149.288 105.709 149.511 105.077 150.251C103.471 152.133 101.812 153.967 100.154 155.801C99.652 156.356 99.1503 156.912 98.65 157.468C98.3148 157.842 97.9554 158.197 97.5886 158.541C96.3895 159.668 95.038 160.475 93.3655 159.74C91.7082 159.009 91.3421 157.461 91.3241 155.837C91.3025 153.737 91.3074 151.638 91.3123 149.503V149.503C91.3144 148.574 91.3166 147.639 91.3166 146.694ZM89.6105 96.9243C89.4644 97.2638 89.3249 97.5879 89.1783 97.8752C89.2682 98.2603 89.3328 98.5999 89.3908 98.9051L89.3908 98.9052C89.4994 99.477 89.5851 99.9279 89.7722 100.332C90.0836 101.004 90.3923 101.679 90.701 102.353C91.8752 104.919 93.0502 107.486 94.3843 109.967C100.862 122.015 111.265 129.399 123.735 134.278C124.787 134.689 125.83 134.828 126.843 134.648C127.847 134.677 128.83 134.448 129.771 133.92C132.025 132.655 133.695 130.87 134.851 128.714C135.645 127.235 135.344 125.96 133.941 124.915C132.337 123.725 130.721 122.53 129.03 121.448C128.351 120.946 127.661 120.46 126.956 119.999C122.703 117.218 121.993 117.364 118.665 121.177C117.828 122.134 116.892 122.503 115.591 122.115C109.284 120.236 105.246 115.938 102.627 110.124C101.388 107.377 101.625 106.575 103.975 104.728C106.266 102.928 106.662 101.207 105.046 98.7379C103.449 96.3037 101.698 93.9643 99.9066 91.6675C98.6346 90.0351 96.9501 89.7355 95.211 90.9076C93.6826 91.9372 92.1968 93.1241 90.978 94.4949C90.3542 95.1965 89.9629 96.1055 89.6105 96.9243ZM113.811 87.8041V87.8477C113.709 87.8345 113.61 87.8197 113.514 87.8053L113.514 87.8053C113.107 87.7442 112.757 87.6918 112.485 87.8128C112.093 87.9872 111.765 88.3037 111.437 88.6203C111.295 88.7574 111.153 88.8946 111.006 89.0202C111.133 89.1477 111.254 89.2881 111.376 89.4286C111.656 89.7528 111.936 90.0771 112.291 90.2434C112.69 90.4326 113.182 90.4439 113.663 90.4548C113.712 90.456 113.762 90.4571 113.811 90.4584V90.4952C114.037 90.5156 114.269 90.5207 114.498 90.5257L114.498 90.5258C114.631 90.5287 114.762 90.5316 114.891 90.5374C114.958 90.5409 115.024 90.5447 115.091 90.5488C123.374 91.4056 130.086 97.1143 132.062 105.261C132.336 106.392 132.448 107.561 132.56 108.73L132.56 108.73C132.648 109.658 132.737 110.586 132.907 111.496C133.016 112.087 133.678 112.94 134.182 113.011C134.584 113.067 134.891 112.941 135.11 112.707C135.341 112.953 135.604 113.136 135.835 113.166C136.805 113.297 137.249 112.444 137.234 111.544C137.224 111.062 137.169 110.584 137.113 110.105C137.076 109.783 137.038 109.461 137.015 109.137C136.092 96.13 125.702 88.5244 115.514 87.9701C115.17 87.9365 114.827 87.9115 114.485 87.8951C114.414 87.8852 114.346 87.8748 114.278 87.8647L114.278 87.8646L114.278 87.8646C114.112 87.8396 113.956 87.8161 113.811 87.8041ZM129.573 108.153C129.573 108.247 129.572 108.341 129.572 108.434V108.434V108.435V108.435C129.57 108.643 129.569 108.85 129.574 109.058C129.586 109.562 129.538 110.033 129.29 110.344C129.178 110.865 128.881 111.232 128.177 111.228C127.172 111.222 126.916 110.416 126.925 109.531C126.966 106.674 126.323 104.035 124.781 101.699C122.625 98.4425 119.594 96.8738 116.01 96.3961C115.888 96.3787 115.755 96.3777 115.621 96.3767C115.343 96.3745 115.068 96.3724 114.909 96.2231L114.9 96.2149C114.626 96.2133 114.361 96.202 114.202 96.0654C113.871 95.7852 113.616 95.4142 113.362 95.0433L113.362 95.0433L113.362 95.0432C113.255 94.8871 113.148 94.731 113.035 94.5817C113.187 94.4688 113.34 94.3226 113.494 94.1763L113.494 94.1762C113.826 93.8598 114.158 93.5431 114.471 93.5618C115.442 93.6191 116.387 93.7431 117.3 93.9318C118.78 94.2154 120.175 94.6922 121.456 95.3526C125.32 97.2778 128.157 100.677 129.219 105.327C129.362 105.954 129.446 106.594 129.53 107.235L129.53 107.235L129.53 107.235L129.53 107.235L129.53 107.236L129.53 107.236C129.57 107.537 129.609 107.839 129.655 108.14C129.628 108.145 129.6 108.149 129.573 108.153ZM123.009 108.645C123.28 108.444 123.505 108.109 123.671 107.863L123.671 107.863L123.671 107.863C123.748 107.749 123.812 107.654 123.862 107.6C123.61 102.698 120.781 99.7505 116.491 99.5057C116.328 99.4965 116.135 99.5367 115.938 99.6107C115.906 99.6086 115.873 99.6066 115.841 99.6047C115.262 99.5732 114.296 100.149 114.105 100.665C113.733 101.643 114.52 102.138 115.48 102.25C115.574 102.261 115.669 102.282 115.763 102.303L115.763 102.303C115.822 102.315 115.88 102.328 115.938 102.338C119.195 102.937 120.367 104.181 120.744 107.479C120.852 108.425 121.131 109.429 122.227 109.239C122.529 109.187 122.794 108.922 123.009 108.645Z" fill="white"/>
</svg>
