<svg width="143" height="123" viewBox="0 0 143 123" fill="none" xmlns="http://www.w3.org/2000/svg">
<path fill-rule="evenodd" clip-rule="evenodd" d="M140.964 63.4407L142.962 63.5155C142.987 62.8463 143 62.1744 143 61.5C143 60.8256 142.987 60.1537 142.962 59.4845L140.964 59.5593C140.988 60.2036 141 60.8505 141 61.5C141 61.8019 140.997 62.1033 140.992 62.4041C140.986 62.7504 140.977 63.0959 140.964 63.4407ZM140.674 55.7003L142.661 55.4756C142.51 54.1366 142.309 52.8101 142.059 51.4976L140.094 51.8712C140.334 53.1346 140.528 54.4114 140.674 55.7003ZM139.229 48.0961L141.16 47.5764C140.811 46.2794 140.414 44.998 139.971 43.7338L138.084 44.3949C138.51 45.6129 138.892 46.8471 139.229 48.0961ZM136.669 40.7848L138.504 39.9884C137.97 38.7592 137.393 37.5486 136.772 36.3582L134.998 37.2829C135.597 38.4318 136.155 39.5996 136.669 40.7848ZM133.083 33.903L134.789 32.8578C134.089 31.717 133.35 30.5973 132.571 29.5003L130.94 30.6579C131.693 31.7187 132.408 32.8009 133.083 33.903ZM128.585 27.5606L130.137 26.299C129.294 25.2621 128.415 24.2486 127.501 23.2599L126.032 24.6174C126.918 25.5754 127.769 26.5569 128.585 27.5606ZM123.297 21.8357L124.679 20.3904C123.715 19.4674 122.718 18.5697 121.69 17.6986L120.397 19.2241C121.394 20.0697 122.361 20.9406 123.297 21.8357ZM117.345 16.787L118.548 15.1887C117.481 14.3862 116.386 13.6105 115.265 12.863L114.155 14.527C115.245 15.2537 116.309 16.0074 117.345 16.787ZM110.84 12.4479L111.855 10.7247C110.705 10.0472 109.531 9.39781 108.333 8.77774L107.414 10.5536C108.579 11.1571 109.721 11.7889 110.84 12.4479ZM103.891 8.84685L104.714 7.02438C103.499 6.47486 102.262 5.95457 101.007 5.46458L100.28 7.32777C101.503 7.80506 102.707 8.31178 103.891 8.84685ZM96.592 5.99789L97.2217 4.09962C95.9551 3.67943 94.6711 3.28935 93.3708 2.93042L92.8386 4.85831C94.1062 5.20821 95.3577 5.58841 96.592 5.99789ZM89.0305 3.90971L89.4648 1.95748C88.1636 1.66779 86.8477 1.40884 85.5186 1.18158L85.1814 3.15297C86.4778 3.37465 87.7612 3.62721 89.0305 3.90971ZM81.2988 2.58697L81.5388 0.601418C80.2156 0.441483 78.8806 0.312714 77.5352 0.215988L77.3916 2.21084C78.7048 2.30524 80.0076 2.43092 81.2988 2.58697ZM73.4692 2.02343L73.5171 0.0240021C72.8469 0.00803375 72.1746 0 71.5 0C70.8254 0 70.1531 0.00803375 69.4829 0.0240021L69.5308 2.02343C70.1848 2.00784 70.8413 2 71.5 2C72.1587 2 72.8152 2.00784 73.4692 2.02343ZM65.6084 2.21084L65.4648 0.215988C64.1194 0.312714 62.7844 0.441483 61.4612 0.60141L61.7012 2.58697C62.9924 2.43092 64.2952 2.30524 65.6084 2.21084ZM57.8186 3.15297L57.4814 1.18158C56.1523 1.40884 54.8364 1.66779 53.5352 1.95748L53.9695 3.90971C55.2388 3.62721 56.5222 3.37465 57.8186 3.15297ZM50.1614 4.85831L49.6292 2.93042C48.3289 3.28935 47.0449 3.67943 45.7783 4.09962L46.408 5.99789C47.6423 5.58841 48.8938 5.20821 50.1614 4.85831ZM42.7202 7.32777L41.9934 5.46458C40.7375 5.95457 39.5012 6.47486 38.2856 7.02438L39.1094 8.84685C40.293 8.31179 41.4971 7.80506 42.7202 7.32777ZM25.1506 16.1168L24.9846 15.8961L22.3262 13.9693C21.9595 13.7066 21.6833 13.336 21.5361 12.9088C21.3887 12.4815 21.3777 12.0187 21.5042 11.5844C21.6306 11.1501 21.8887 10.7657 22.2422 10.4845C22.5959 10.2033 23.0278 10.0391 23.4783 10.0146L34.02 8.60855C34.427 8.57039 34.8364 8.64785 35.2014 8.83209C35.5664 9.01633 35.8721 9.2999 36.0835 9.65038L36.084 9.64841C36.3003 10.0062 36.4092 10.4189 36.3979 10.8373C36.3867 11.2558 36.2559 11.6624 36.021 12.0087L29.4778 20.4545C29.2302 20.8379 28.8684 21.1332 28.4438 21.2984C28.0193 21.4636 27.5537 21.4901 27.1135 21.3742L27.0959 21.3694C26.6726 21.2576 26.2927 21.0206 26.0056 20.6892C25.7188 20.3579 25.5378 19.9475 25.4866 19.5114L25.4924 19.4898L25.1506 16.1168ZM22.6033 19.2241L21.3101 17.6986C20.2825 18.5697 19.2854 19.4674 18.3206 20.3904L19.7029 21.8357C20.6387 20.9406 21.606 20.0697 22.6033 19.2241ZM16.9675 24.6174L15.4988 23.2599C14.585 24.2486 13.7058 25.2621 12.863 26.299L14.4148 27.5605C15.2307 26.5569 16.0823 25.5753 16.9675 24.6174ZM12.0601 30.6578L10.429 29.5003C9.65039 30.5973 8.91064 31.7169 8.21118 32.8578L9.9165 33.903C10.592 32.8009 11.3071 31.7187 12.0601 30.6578ZM8.00171 37.2828L6.22827 36.3581C5.60767 37.5486 5.02954 38.7592 4.49585 39.9883L6.33057 40.7848C6.84497 39.5996 7.40259 38.4318 8.00171 37.2828ZM4.91626 44.3949L3.02881 43.7338C2.58594 44.998 2.18921 46.2793 1.84009 47.5764L3.77148 48.0961C4.10767 46.8471 4.48975 45.6129 4.91626 44.3949ZM2.90576 51.8712L0.940918 51.4976C0.691406 52.8101 0.48999 54.1365 0.338623 55.4756L2.32593 55.7002C2.47168 54.4113 2.66553 53.1346 2.90576 51.8712ZM0 61.5C0 60.8256 0.0126953 60.1537 0.0375977 59.4845L2.03638 59.5593C2.01221 60.2036 2 60.8505 2 61.5C2 62.1495 2.01221 62.7964 2.03638 63.4407L0.0375977 63.5155C0.0126953 62.8463 0 62.1744 0 61.5ZM2.32593 67.2997L0.338623 67.5244C0.48999 68.8634 0.691406 70.1899 0.940918 71.5024L2.90576 71.1288C2.66553 69.8654 2.47168 68.5886 2.32593 67.2997ZM3.77148 74.9039L1.84009 75.4236C2.18921 76.7206 2.58594 78.002 3.02881 79.2662L4.91626 78.6051C4.48975 77.3871 4.10767 76.1529 3.77148 74.9039ZM6.33057 82.2152L4.49585 83.0116C5.02954 84.2408 5.60767 85.4514 6.22827 86.6418L8.00171 85.7171C7.40259 84.5682 6.84497 83.4004 6.33057 82.2152ZM9.9165 89.097L8.21118 90.1422C8.91064 91.283 9.65039 92.4027 10.429 93.4997L12.0601 92.3421C11.3071 91.2813 10.592 90.1991 9.9165 89.097ZM14.4148 95.4395L12.863 96.701C13.7058 97.7379 14.585 98.7514 15.4988 99.7401L16.9675 98.3826C16.0823 97.4246 15.2307 96.4431 14.4148 95.4395ZM19.7029 101.164L18.3206 102.61C19.2854 103.533 20.2825 104.43 21.3101 105.301L22.6033 103.776C21.606 102.93 20.6387 102.059 19.7029 101.164ZM25.6548 106.213L24.4524 107.811C25.5193 108.614 26.614 109.389 27.7354 110.137L28.8447 108.473C27.7549 107.746 26.6909 106.993 25.6548 106.213ZM32.1604 110.552L31.145 112.275C32.2952 112.953 33.4695 113.602 34.6665 114.222L35.5864 112.446C34.4214 111.843 33.2788 111.211 32.1604 110.552ZM39.1094 114.153L38.2856 115.976C39.5012 116.525 40.7375 117.045 41.9934 117.535L42.7202 115.672C41.4971 115.195 40.293 114.688 39.1094 114.153ZM46.408 117.002L45.7783 118.9C47.0449 119.321 48.3289 119.711 49.6292 120.07L50.1614 118.142C48.8938 117.792 47.6423 117.412 46.408 117.002ZM53.9695 119.09L53.5352 121.043C54.8364 121.332 56.1523 121.591 57.4814 121.818L57.8186 119.847C56.5222 119.625 55.2388 119.373 53.9695 119.09ZM61.7012 120.413L61.4612 122.399C62.7844 122.559 64.1194 122.687 65.4648 122.784L65.6084 120.789C64.2952 120.695 62.9924 120.569 61.7012 120.413ZM69.5308 120.977L69.4829 122.976C70.1531 122.992 70.8254 123 71.5 123C71.8323 123 72.1641 122.998 72.4954 122.994C72.8364 122.99 73.177 122.984 73.5171 122.976L73.4692 120.977C72.8152 120.992 72.1587 121 71.5 121C70.8413 121 70.1848 120.992 69.5308 120.977ZM77.3916 120.789L77.5352 122.784C78.8806 122.687 80.2156 122.559 81.5388 122.399L81.2988 120.413C80.0076 120.569 78.7048 120.695 77.3916 120.789ZM89.4648 121.043C88.1636 121.332 86.8477 121.591 85.5186 121.818L85.1814 119.847C86.4778 119.625 87.7612 119.373 89.0303 119.09L89.4648 121.043ZM92.8386 118.142L93.3708 120.07C94.6711 119.711 95.9551 119.321 97.2217 118.9L96.592 117.002C95.3577 117.412 94.1062 117.792 92.8386 118.142ZM100.28 115.672L101.007 117.535C102.262 117.045 103.499 116.525 104.714 115.976L103.891 114.153C102.707 114.688 101.503 115.195 100.28 115.672ZM107.414 112.446L108.333 114.222C109.531 113.602 110.705 112.953 111.855 112.275L110.84 110.552C109.721 111.211 108.579 111.843 107.414 112.446ZM114.155 108.473L115.265 110.137C116.386 109.389 117.481 108.614 118.548 107.811L117.345 106.213C116.309 106.993 115.245 107.746 114.155 108.473ZM120.397 103.776L121.69 105.301C122.718 104.43 123.715 103.533 124.679 102.61L123.297 101.164C122.361 102.059 121.394 102.93 120.397 103.776ZM126.032 98.3826L127.501 99.7401C128.415 98.7514 129.294 97.7379 130.137 96.701L128.585 95.4395C127.769 96.4431 126.918 97.4247 126.032 98.3826ZM130.94 92.3422L132.571 93.4997C133.35 92.4027 134.089 91.2831 134.789 90.1422L133.083 89.097C132.408 90.1991 131.693 91.2813 130.94 92.3422ZM134.998 85.7172L136.772 86.6419C137.392 85.4514 137.97 84.2408 138.504 83.0117L136.669 82.2152C136.155 83.4004 135.597 84.5682 134.998 85.7172ZM138.084 78.6051L139.971 79.2662C140.414 78.002 140.811 76.7207 141.16 75.4236L139.229 74.9039C138.892 76.1529 138.51 77.3871 138.084 78.6051ZM140.094 71.1288L142.059 71.5024C142.309 70.1899 142.51 68.8635 142.661 67.5244L140.674 67.2998C140.528 68.5887 140.334 69.8654 140.094 71.1288Z" fill="#2A6ACC"/>
</svg>
