<svg width="143" height="123" viewBox="0 0 143 123" fill="none" xmlns="http://www.w3.org/2000/svg">
<path fill-rule="evenodd" clip-rule="evenodd" d="M140.964 63.4407L142.962 63.5155C142.987 62.8463 143 62.1744 143 61.5C143 60.8256 142.987 60.1537 142.962 59.4845L140.964 59.5594C140.988 60.2036 141 60.8505 141 61.5C141 62.1495 140.988 62.7964 140.964 63.4407ZM140.674 55.7003L142.661 55.4756C142.51 54.1366 142.309 52.8101 142.059 51.4976L140.094 51.8712C140.334 53.1346 140.528 54.4114 140.674 55.7003ZM139.229 48.0961L141.16 47.5764C140.811 46.2794 140.414 44.998 139.971 43.7338L138.084 44.3949C138.51 45.6129 138.892 46.8471 139.229 48.0961ZM136.669 40.7848L138.504 39.9884C137.97 38.7592 137.393 37.5486 136.772 36.3582L134.998 37.2829C135.597 38.4318 136.155 39.5996 136.669 40.7848ZM133.083 33.903L134.789 32.8578C134.089 31.717 133.35 30.5973 132.571 29.5003L130.94 30.6579C131.693 31.7187 132.408 32.8009 133.083 33.903ZM128.585 27.5605L130.137 26.299C129.294 25.2621 128.415 24.2486 127.501 23.2599L126.032 24.6174C126.918 25.5753 127.769 26.5569 128.585 27.5605ZM123.297 21.8357L124.679 20.3904C123.715 19.4674 122.718 18.5697 121.69 17.6986L120.397 19.2241C121.394 20.0697 122.361 20.9406 123.297 21.8357ZM117.345 16.787L118.548 15.1887C117.481 14.3862 116.386 13.6105 115.265 12.8629L114.155 14.527C115.245 15.2537 116.309 16.0074 117.345 16.787ZM96.592 5.99789L97.2217 4.09961C95.9551 3.67941 94.6711 3.28934 93.3708 2.93042L92.8386 4.85831C94.1062 5.20822 95.3577 5.58841 96.592 5.99789ZM89.0305 3.9097L89.4648 1.95749C88.1636 1.66779 86.8477 1.40884 85.5186 1.18158L85.1814 3.15295C86.4778 3.37466 87.7612 3.62723 89.0305 3.9097ZM81.2988 2.58698L81.5388 0.60141C80.2156 0.441498 78.8806 0.312714 77.5352 0.215973L77.3916 2.21085C78.7048 2.30524 80.0076 2.43091 81.2988 2.58698ZM73.4692 2.02344L73.5171 0.0239868C72.8469 0.00802612 72.1746 0 71.5 0C71.0459 0 70.5928 0.00363159 70.1406 0.0108948C69.9211 0.0144043 69.7019 0.0187683 69.4829 0.0239868L69.5308 2.02344C70.1848 2.00784 70.8413 2 71.5 2C71.8542 2 72.2078 2.00226 72.5605 2.00677C72.8638 2.01068 73.1667 2.01624 73.4692 2.02344ZM65.6084 2.21085L65.4648 0.215973C64.1194 0.312714 62.7844 0.441498 61.4612 0.60141L61.7012 2.58698C62.9924 2.43091 64.2952 2.30524 65.6084 2.21085ZM57.8186 3.15295L57.4814 1.18158C56.1523 1.40884 54.8364 1.66779 53.5352 1.95749L53.9695 3.9097C55.2388 3.62723 56.5222 3.37466 57.8186 3.15295ZM50.1614 4.85831L49.6292 2.93042C48.8811 3.1369 48.1384 3.35373 47.4014 3.58066C46.8572 3.74817 46.3162 3.92117 45.7783 4.09961L46.408 5.99789C47.6423 5.58841 48.8938 5.20822 50.1614 4.85831ZM42.7202 7.32776L41.9934 5.46457C40.7375 5.95456 39.5012 6.47485 38.2856 7.02438L39.1094 8.84686C40.293 8.3118 41.4971 7.80505 42.7202 7.32776ZM35.5864 10.5536L34.6665 8.77774C33.4695 9.39783 32.2952 10.0472 31.145 10.7247L32.1604 12.4479C33.2788 11.7889 34.4214 11.1571 35.5864 10.5536ZM28.8447 14.527L27.7354 12.8629C26.614 13.6105 25.5193 14.3862 24.4524 15.1887L25.6548 16.787C26.6909 16.0074 27.7549 15.2537 28.8447 14.527ZM22.6033 19.2241L21.3101 17.6986C20.2825 18.5697 19.2854 19.4674 18.3206 20.3904L19.7029 21.8357C20.6387 20.9406 21.606 20.0696 22.6033 19.2241ZM16.9675 24.6173L15.4988 23.2599C14.585 24.2486 13.7058 25.2621 12.863 26.299L14.4148 27.5605C15.2307 26.5569 16.0823 25.5753 16.9675 24.6173ZM12.0601 30.6578L10.429 29.5003C9.65039 30.5973 8.91064 31.7169 8.21118 32.8578L9.9165 33.903C10.592 32.8009 11.3071 31.7187 12.0601 30.6578ZM8.00171 37.2828L6.22827 36.3581C5.60767 37.5486 5.02954 38.7592 4.49585 39.9883L6.33057 40.7848C6.84497 39.5995 7.40259 38.4318 8.00171 37.2828ZM4.91626 44.3949L3.02881 43.7338C2.58594 44.998 2.18921 46.2793 1.84009 47.5764L3.77148 48.0961C4.10767 46.8471 4.48975 45.6129 4.91626 44.3949ZM2.90576 51.8712L0.940918 51.4976C0.691406 52.8101 0.48999 54.1365 0.338623 55.4756L2.32593 55.7002C2.47168 54.4113 2.66553 53.1346 2.90576 51.8712ZM0 61.5C0 60.8256 0.0126953 60.1537 0.0375977 59.4845L2.03638 59.5593C2.01221 60.2036 2 60.8505 2 61.5C2 62.1495 2.01221 62.7964 2.03638 63.4406L0.0375977 63.5155C0.0126953 62.8463 0 62.1744 0 61.5ZM2.32593 67.2997L0.338623 67.5244C0.48999 68.8634 0.691406 70.1899 0.940918 71.5024L2.90576 71.1288C2.66553 69.8654 2.47168 68.5886 2.32593 67.2997ZM3.77148 74.9039L1.84009 75.4236C2.18921 76.7206 2.58594 78.002 3.02881 79.2662L4.91626 78.6051C4.48975 77.3871 4.10767 76.1529 3.77148 74.9039ZM6.33057 82.2152L4.49585 83.0116C5.02954 84.2408 5.60767 85.4514 6.22827 86.6418L8.00171 85.7171C7.40259 84.5682 6.84497 83.4004 6.33057 82.2152ZM9.9165 89.097L8.21118 90.1422C8.91064 91.283 9.65039 92.4027 10.429 93.4997L12.0601 92.3421C11.3071 91.2813 10.592 90.1991 9.9165 89.097ZM14.4148 95.4395L12.863 96.701C13.7058 97.7379 14.585 98.7514 15.4988 99.7401L16.9675 98.3826C16.0823 97.4246 15.2307 96.4431 14.4148 95.4395ZM19.7029 101.164L18.3206 102.61C19.2854 103.533 20.2825 104.43 21.3101 105.301L22.6033 103.776C21.606 102.93 20.6387 102.059 19.7029 101.164ZM25.6548 106.213L24.4524 107.811C25.5193 108.614 26.614 109.389 27.7354 110.137L28.8447 108.473C27.7549 107.746 26.6909 106.993 25.6548 106.213ZM32.1604 110.552L31.145 112.275C32.2952 112.953 33.4695 113.602 34.6665 114.222L35.5864 112.446C34.4214 111.843 33.2788 111.211 32.1604 110.552ZM39.1094 114.153L38.2856 115.976C39.5012 116.525 40.7375 117.045 41.9934 117.535L42.7202 115.672C41.4971 115.195 40.293 114.688 39.1094 114.153ZM46.408 117.002L45.7783 118.9C47.0449 119.321 48.3289 119.711 49.6292 120.07L50.1614 118.142C48.8938 117.792 47.6423 117.412 46.408 117.002ZM53.9695 119.09L53.5352 121.043C54.8364 121.332 56.1523 121.591 57.4814 121.818L57.8186 119.847C56.5222 119.625 55.2388 119.373 53.9695 119.09ZM61.7012 120.413L61.4612 122.399C62.7844 122.559 64.1194 122.687 65.4648 122.784L65.6084 120.789C64.2952 120.695 62.9924 120.569 61.7012 120.413ZM69.5308 120.977L69.4829 122.976C70.1531 122.992 70.8254 123 71.5 123C72.1746 123 72.8469 122.992 73.5171 122.976L73.4692 120.977C72.8152 120.992 72.1587 121 71.5 121C70.8413 121 70.1848 120.992 69.5308 120.977ZM77.3916 120.789L77.5352 122.784C78.8806 122.687 80.2156 122.559 81.5388 122.399L81.2988 120.413C80.0076 120.569 78.7048 120.695 77.3916 120.789ZM89.4648 121.043C88.1636 121.332 86.8477 121.591 85.5186 121.818L85.1814 119.847C86.4778 119.625 87.7612 119.373 89.0303 119.09L89.4648 121.043ZM92.8386 118.142L93.3708 120.07C94.6711 119.711 95.9551 119.321 97.2217 118.9L96.592 117.002C95.3577 117.412 94.1062 117.792 92.8386 118.142ZM100.28 115.672L101.007 117.535C102.262 117.045 103.499 116.525 104.714 115.976L103.891 114.153C102.707 114.688 101.503 115.195 100.28 115.672ZM107.414 112.446L108.333 114.222C109.531 113.602 110.705 112.953 111.855 112.275L110.84 110.552C109.721 111.211 108.579 111.843 107.414 112.446ZM114.155 108.473L115.265 110.137C116.386 109.389 117.481 108.614 118.548 107.811L117.345 106.213C116.309 106.993 115.245 107.746 114.155 108.473ZM120.397 103.776L121.69 105.301C122.718 104.43 123.715 103.533 124.679 102.61L123.297 101.164C122.361 102.059 121.394 102.93 120.397 103.776ZM126.032 98.3826L127.501 99.7401C128.415 98.7514 129.294 97.7379 130.137 96.701L128.585 95.4395C127.769 96.4431 126.918 97.4247 126.032 98.3826ZM130.94 92.3422L132.571 93.4997C133.35 92.4027 134.089 91.2831 134.789 90.1422L133.083 89.097C132.408 90.1991 131.693 91.2813 130.94 92.3422ZM134.998 85.7172L136.772 86.6419C137.392 85.4514 137.97 84.2408 138.504 83.0117L136.669 82.2152C136.155 83.4005 135.597 84.5682 134.998 85.7172ZM138.084 78.6051L139.971 79.2662C140.414 78.002 140.811 76.7207 141.16 75.4236L139.229 74.9039C138.892 76.1529 138.51 77.3871 138.084 78.6051ZM140.094 71.1288L142.059 71.5024C142.309 70.1899 142.51 68.8635 142.661 67.5244L140.674 67.2998C140.528 68.5887 140.334 69.8654 140.094 71.1288ZM99.8586 7.49451C99.8081 7.08884 99.873 6.677 100.046 6.30603L100.044 6.3067C100.221 5.92776 100.502 5.60718 100.856 5.38315C101.21 5.15912 101.62 5.04105 102.039 5.04306L112.698 5.76566C113.154 5.75735 113.601 5.8931 113.975 6.15347C114.349 6.41385 114.631 6.78555 114.78 7.21552L114.786 7.23279C114.929 7.64664 114.944 8.09412 114.829 8.51712C114.714 8.94012 114.474 9.31909 114.141 9.6048L114.119 9.61203L111.478 11.8026C111.468 11.8109 111.458 11.8206 111.45 11.8314C111.446 11.8375 111.442 11.8438 111.438 11.8505C111.43 11.8668 111.426 11.8845 111.424 11.9026L111.302 15.3183C111.288 15.7693 111.135 16.2052 110.862 16.5656C110.59 16.9261 110.212 17.1935 109.781 17.3306C109.349 17.4677 108.886 17.4678 108.456 17.331C108.025 17.1942 107.648 16.9272 107.376 16.5669L100.332 8.59985C100.073 8.2832 99.9092 7.90015 99.8586 7.49451Z" fill="#2A6ACC"/>
</svg>
