<svg width="25" height="24" viewBox="0 0 25 24" fill="none" xmlns="http://www.w3.org/2000/svg">
<path d="M8.51625 10.7714H2.25437C1.01146 10.7714 0 9.75991 0 8.517V2.25437C0 1.01146 1.01146 0 2.25437 0H8.51625C9.75916 0 10.7706 1.01146 10.7706 2.25437V8.517C10.7706 9.75991 9.75991 10.7714 8.51625 10.7714ZM21.7922 10.7714H15.5296C14.2867 10.7714 13.2752 9.75991 13.2752 8.517V2.25437C13.2752 1.01146 14.2867 0 15.5296 0H21.7922C23.0351 0 24.0466 1.01146 24.0466 2.25437V8.517C24.0466 9.75991 23.0351 10.7714 21.7922 10.7714ZM8.51625 24H2.25437C1.01146 24 0 22.9885 0 21.7456V15.483C0 14.2401 1.01146 13.2286 2.25437 13.2286H8.51625C9.75916 13.2286 10.7706 14.2401 10.7706 15.483V21.7456C10.7706 22.9885 9.75991 24 8.51625 24ZM21.7922 24H15.5296C14.2867 24 13.2752 22.9885 13.2752 21.7456V15.483C13.2752 14.2401 14.2867 13.2286 15.5296 13.2286H21.7922C23.0351 13.2286 24.0466 14.2401 24.0466 15.483V21.7456C24.0466 22.9885 23.0351 24 21.7922 24Z" fill="url(#paint0_linear)"/>
<defs>
<linearGradient id="paint0_linear" x1="22.1056" y1="-6.25" x2="-0.601607" y2="-4.75682" gradientUnits="userSpaceOnUse">
<stop stop-color="#D4487D"/>
<stop offset="1" stop-color="#DB6A48"/>
<stop offset="1" stop-color="#E57857"/>
</linearGradient>
</defs>
</svg>
