<svg width="22" height="22" viewBox="0 0 22 22" fill="none" xmlns="http://www.w3.org/2000/svg">
<path fill-rule="evenodd" clip-rule="evenodd" d="M18.0716 1.10051C17.2906 0.319463 16.0242 0.319463 15.2432 1.10051L11.0002 5.34345L6.75731 1.10051C5.97624 0.319465 4.70992 0.319465 3.92888 1.10051L1.10045 3.92894C0.319382 4.70999 0.319382 5.97632 1.10045 6.75737L5.3434 11.0003L1.10106 15.2426C0.319992 16.0237 0.319992 17.29 1.10106 18.0711L3.92946 20.8995C4.71053 21.6805 5.97685 21.6805 6.75789 20.8995L11.0002 16.6572L15.2426 20.8995C16.0236 21.6806 17.29 21.6806 18.071 20.8995L20.8994 18.0711C21.6805 17.29 21.6805 16.0237 20.8994 15.2426L16.6571 11.0003L20.9 6.75737C21.6811 5.97632 21.6811 4.70999 20.9 3.92894L18.0716 1.10051Z" fill="url(#paint0_linear)"/>
<defs>
<linearGradient id="paint0_linear" x1="19.7931" y1="-4.94636" x2="-0.0103413" y2="-3.64661" gradientUnits="userSpaceOnUse">
<stop stop-color="#D4487D"/>
<stop offset="1" stop-color="#DB6A48"/>
<stop offset="1" stop-color="#E57857"/>
</linearGradient>
</defs>
</svg>
