<svg width="101" height="25" viewBox="0 0 101 25" fill="none" xmlns="http://www.w3.org/2000/svg">
<path d="M15.6441 12.4651C15.2842 12.2026 15.0764 12.0205 14.8397 11.8863C12.8383 10.746 10.8369 9.60948 8.8279 8.48255C7.9754 8.00533 7.65018 8.17782 7.64248 9.15142C7.62516 11.7694 7.5886 14.3912 7.6521 17.0073C7.71946 19.7422 9.96328 20.9381 12.3418 19.5659C14.2816 18.4466 16.2194 17.3235 18.1457 16.1851C21.1189 14.4277 21.1054 10.47 18.1246 8.76237C15.4054 7.20422 12.6805 5.65565 9.95943 4.09751C7.04207 2.42245 3.53201 4.40799 3.51661 7.7581C3.50314 10.5697 3.51276 13.3793 3.51469 16.1909C3.51661 20.7101 5.03495 22.9793 9.21855 24.7176C7.61746 25.373 5.00608 24.8594 3.1683 23.4699C1.13423 21.929 0.0142404 19.8955 0.0103916 17.314C0.00461851 14.1191 -0.0107765 10.9261 0.012316 7.73127C0.0565768 1.74208 6.36662 -1.89935 11.6125 1.03488C14.3759 2.58152 17.1297 4.14542 19.8758 5.72082C24.985 8.65121 25.162 15.8861 20.1798 19.012C18.2304 20.2348 16.2368 21.3962 14.2162 22.4982C10.0826 24.7521 5.20044 22.0152 5.04457 17.3389C4.94065 14.213 4.95027 11.0814 4.96182 7.95167C4.96952 5.66715 7.15369 4.42715 9.16659 5.54833C11.905 7.07389 14.628 8.62629 17.3452 10.1902C19.1176 11.2098 19.1695 13.6246 17.426 14.6902C15.6537 15.775 13.8409 16.7984 12.0358 17.8276C11.2238 18.2895 10.4309 18.1132 10.0306 17.4328C9.62267 16.739 9.84589 15.9628 10.6407 15.4875C11.9858 14.6826 13.3483 13.9083 14.6992 13.1129C14.984 12.9423 15.2476 12.7373 15.6441 12.4651Z" fill="url(#paint0_linear)"/>
<path d="M30.0402 17.7951C30.3907 15.9665 30.7343 14.1652 31.0814 12.3647C31.4046 10.6883 31.7354 9.01349 32.0543 7.33702C32.0936 7.13099 32.1424 7.00104 32.3937 7.00446C34.7558 7.03438 37.1188 7.03267 39.4801 7.09508C40.0366 7.10961 40.606 7.27889 41.1369 7.46868C42.4611 7.944 43.2502 8.89894 43.3836 10.3121C43.5853 12.4511 43.2023 14.4319 41.6233 16.0246C40.4128 17.2454 38.8714 17.7507 37.2137 17.8037C34.8815 17.878 32.545 17.8319 30.2103 17.8353C30.1693 17.8353 30.1282 17.8165 30.0402 17.7951ZM33.5393 15.3432C33.694 15.3569 33.8043 15.3774 33.9155 15.3757C34.9388 15.3586 35.9707 15.4202 36.982 15.2996C38.5927 15.1073 39.6604 14.0429 40.0007 12.4733C40.4093 10.5882 39.5621 9.50934 37.6386 9.48113C36.7854 9.4683 35.9313 9.49481 35.0781 9.4683C34.7464 9.45805 34.6361 9.58372 34.5814 9.8855C34.372 11.0319 34.1412 12.1749 33.9214 13.3197C33.7924 13.9839 33.6692 14.6508 33.5393 15.3432Z" fill="white"/>
<path d="M56.5751 7.00858C56.422 7.81818 56.2998 8.54571 56.1314 9.26297C56.1083 9.36129 55.8586 9.4673 55.7125 9.46815C53.5615 9.48097 51.4114 9.47756 49.2605 9.47756C49.0903 9.47756 48.9211 9.47756 48.6894 9.47756C48.5492 10.1905 48.4115 10.8924 48.2619 11.6559C50.6463 11.6559 52.9733 11.6559 55.3628 11.6559C55.2234 12.3945 55.1106 13.0759 54.9499 13.7453C54.9268 13.841 54.6686 13.9368 54.519 13.9376C52.4681 13.9504 50.4172 13.959 48.3662 13.9359C47.9379 13.9308 47.7789 14.0539 47.7114 14.4805C47.5541 15.4782 47.3267 16.4647 47.148 17.459C47.0958 17.7479 46.9873 17.8599 46.6769 17.8514C45.8254 17.8283 44.974 17.8437 44.0532 17.8437C44.131 17.4051 44.1943 17.0195 44.2687 16.6357C44.856 13.5888 45.4501 10.5436 46.0263 7.49502C46.093 7.14366 46.1956 6.99747 46.5906 7.00003C49.752 7.01799 52.9143 7.01029 56.0758 7.01029C56.2168 7.00858 56.3562 7.00858 56.5751 7.00858Z" fill="white"/>
<path d="M92.0863 14.5015C92.0051 15.4547 92.4129 16.0001 93.3045 16.1095C94.3663 16.2395 95.4213 16.2626 96.2506 15.3931C96.2942 15.347 96.3737 15.311 96.4369 15.311C97.4432 15.3059 98.4485 15.3076 99.6069 15.3076C99.3539 15.7599 99.1931 16.1343 98.9563 16.4523C98.434 17.1534 97.6919 17.5552 96.8695 17.7852C95.2537 18.2365 93.6097 18.3289 91.9692 17.9553C89.6917 17.4372 88.6846 15.824 89.1557 13.5294C89.6054 11.34 91.1416 9.86871 93.4165 9.48913C94.7476 9.26685 96.0804 9.25317 97.3961 9.61309C99.783 10.2662 100.398 12.2693 99.8583 14.2527C99.7839 14.5245 99.6009 14.5023 99.4 14.5023C97.1362 14.5006 94.8724 14.5015 92.6087 14.5015C92.4419 14.5015 92.2744 14.5015 92.0863 14.5015ZM92.5001 12.4796C92.5309 12.5283 92.5608 12.5771 92.5916 12.6258C94.0466 12.6258 95.5008 12.6258 96.9559 12.6258C96.9473 12.0573 96.7045 11.6743 96.1745 11.4999C95.2794 11.2049 94.3655 11.1964 93.5183 11.6281C93.1336 11.8239 92.8369 12.1906 92.5001 12.4796Z" fill="white"/>
<path d="M62.8383 9.27747C63.471 9.40827 64.3874 9.49974 65.2347 9.79298C66.7333 10.3119 67.4814 11.578 67.3779 13.1587C67.2061 15.7654 65.5074 17.6214 62.9273 18.0215C61.4166 18.2557 59.9163 18.2737 58.4706 17.6992C57.0831 17.1477 56.3864 16.0748 56.3898 14.5822C56.3958 11.9533 58.1646 9.90924 60.8216 9.48521C61.3953 9.39373 61.9792 9.36381 62.8383 9.27747ZM61.4525 16.0039C63.1504 15.9697 64.3755 14.6839 64.2737 13.0194C64.2378 12.4321 63.9899 11.967 63.4291 11.7439C61.6372 11.0309 59.382 12.0918 59.4991 14.5343C59.5333 15.2404 59.9282 15.6927 60.6147 15.8705C60.8866 15.9415 61.173 15.9611 61.4525 16.0039Z" fill="white"/>
<path d="M88.0561 12.7775C87.9509 12.7869 87.8825 12.7988 87.8133 12.7988C86.8318 12.7997 85.8496 12.7997 84.8733 12.7997C84.5039 11.1121 81.7306 11.2292 80.8304 12.4124C80.3337 13.0664 80.1003 13.7974 80.1636 14.6078C80.2234 15.3806 80.6637 15.8355 81.481 15.9372C82.6325 16.08 83.6695 15.8705 84.374 14.8181C84.4261 14.7403 84.5518 14.6702 84.645 14.6694C85.6273 14.6608 86.6096 14.6677 87.5919 14.6719C87.6295 14.6719 87.6662 14.701 87.738 14.7309C87.3627 16.0064 86.6096 16.9639 85.405 17.5145C83.8397 18.2301 82.1803 18.2625 80.5038 18.0719C80.3346 18.0531 80.1653 18.024 79.9986 17.9864C77.6108 17.4435 76.5884 15.6884 77.2432 13.1955C77.7921 11.1044 79.2104 9.90838 81.2878 9.50145C82.7274 9.21933 84.1791 9.2672 85.6085 9.62969C87.214 10.0366 88.0903 11.0728 88.08 12.5253C88.0809 12.5954 88.0672 12.6646 88.0561 12.7775Z" fill="white"/>
<path d="M72.5052 9.64835C72.4351 10.0408 72.3813 10.3451 72.3009 10.7965C73.6517 9.54405 75.1802 9.3346 76.8789 9.4996C76.6951 10.4639 76.519 11.3924 76.3352 12.3593C76.1035 12.3293 75.8975 12.3088 75.6932 12.2746C74.8229 12.1301 73.9936 12.2926 73.1909 12.6174C72.3317 12.9654 71.823 13.6211 71.6358 14.5179C71.4357 15.4797 71.2494 16.444 71.0801 17.4109C71.0237 17.7332 70.9023 17.8614 70.556 17.8495C69.7336 17.8221 68.9095 17.8409 68.017 17.8409C68.1538 17.1108 68.2769 16.4329 68.4077 15.7558C68.7701 13.8836 69.1472 12.013 69.49 10.1374C69.5609 9.74752 69.708 9.62441 70.097 9.63895C70.8766 9.66887 71.658 9.64835 72.5052 9.64835Z" fill="white"/>
<defs>
<linearGradient id="paint0_linear" x1="0.881481" y1="12.4708" x2="23.8" y2="12.4708" gradientUnits="userSpaceOnUse">
<stop stop-color="#83CC59"/>
<stop offset="1" stop-color="#10CC94"/>
</linearGradient>
</defs>
</svg>
