<svg xmlns="http://www.w3.org/2000/svg" width="32.981" height="32.982" viewBox="0 0 32.981 32.982"><defs><style>.a{fill:#131e52;}</style></defs><path class="a" d="M9.048,9.922l4.526,4.526,1.366-1.366L10.414,8.556V4.926L3.593.008.5,3.1,5.418,9.922Zm0,0" transform="translate(-0.5 -0.007)"/><path class="a" d="M23.585,1.7A5.945,5.945,0,0,0,22.427,8.32L8.821,21.929A5.925,5.925,0,0,0,2.2,23.085a5.811,5.811,0,0,0-1.133,6.6l3.867-3.866,2.733,2.733L3.8,32.417a5.8,5.8,0,0,0,6.6-1.133,5.94,5.94,0,0,0,1.158-6.622L25.161,11.053A5.939,5.939,0,0,0,31.784,9.9a5.806,5.806,0,0,0,1.133-6.6L29.051,7.163,26.318,4.43,30.184.563A5.808,5.808,0,0,0,23.585,1.7Zm0,0" transform="translate(-0.501 0)"/><path class="a" d="M266.984,270.593l4.1-4.1,1.372,1.372-4.1,4.1Zm0,0" transform="translate(-249.818 -249.329)"/><path class="a" d="M318.559,322.171l-8.973-8.973,4.1-4.1,8.973,8.973Zm0,0" transform="translate(-289.675 -289.19)"/></svg>