<svg xmlns="http://www.w3.org/2000/svg" width="24.999" height="25" viewBox="0 0 24.999 25"><defs><style>.a{fill:#c7eefd;}</style></defs><path class="a" d="M6.979,7.523l3.43,3.43,1.035-1.036-3.43-3.43V3.736L2.845.008.5,2.352l3.728,5.17Zm0,0" transform="translate(-0.5 -0.007)"/><path class="a" d="M18,1.286a4.506,4.506,0,0,0-.878,5.02L6.807,16.622a4.491,4.491,0,0,0-5.02.876,4.4,4.4,0,0,0-.859,5l2.931-2.93L5.93,21.642,3,24.572a4.395,4.395,0,0,0,5-.859,4.5,4.5,0,0,0,.878-5.019L19.193,8.378a4.5,4.5,0,0,0,5.02-.878,4.4,4.4,0,0,0,.859-5l-2.93,2.93L20.07,3.358,23,.427A4.4,4.4,0,0,0,18,1.286Zm0,0" transform="translate(-0.501 0)"/><path class="a" d="M266.984,269.6l3.105-3.105,1.04,1.04-3.105,3.105Zm0,0" transform="translate(-253.972 -253.484)"/><path class="a" d="M316.387,319.008l-6.8-6.8,3.105-3.105,6.8,6.8Zm0,0" transform="translate(-294.494 -294.009)"/></svg>