<svg width="16" height="16" viewBox="0 0 16 16" fill="none" xmlns="http://www.w3.org/2000/svg">
<path d="M12.6015 0H3.3817C1.5142 0 0 1.5142 0 3.3817V12.6183C0 14.4858 1.5142 16 3.3817 16H12.6183C14.4858 16 16 14.4858 16 12.6183V3.3817C15.9832 1.5142 14.469 0 12.6015 0ZM12.3996 9.05153C12.3996 9.52261 12.0126 9.90957 11.5415 9.90957C11.0705 9.90957 10.6835 9.52261 10.6835 9.05153V6.54469L4.8959 12.3155C4.72766 12.4837 4.50894 12.5678 4.29022 12.5678C4.0715 12.5678 3.85279 12.4837 3.68454 12.3155C3.34805 11.979 3.34805 11.4238 3.68454 11.0873L9.45531 5.31651H6.93165C6.46057 5.31651 6.07361 4.92955 6.07361 4.45847C6.07361 3.98738 6.46057 3.60042 6.93165 3.60042H11.5247C11.9958 3.60042 12.3828 3.98738 12.3828 4.45847V9.05153H12.3996Z" fill="#604CDE"/>
</svg>
