<svg xmlns="http://www.w3.org/2000/svg" xmlns:xlink="http://www.w3.org/1999/xlink" width="298.004" height="184.437" viewBox="0 0 298.004 184.437">
  <defs>
    <clipPath id="clip-path">
      <rect id="Rectangle_87" data-name="Rectangle 87" width="212.407" height="153.861" fill="none"/>
    </clipPath>
  </defs>
  <g id="Картинка" transform="translate(-55.126 -35.304)">
    <g id="Group_399" data-name="Group 399" transform="translate(56.11 35.304)">
      <g id="Group_387" data-name="Group 387" transform="translate(0 41.919)">
        <g id="Group_380" data-name="Group 380" transform="translate(236.216 10.392)">
          <g id="Group_374" data-name="Group 374">
            <g id="Group_373" data-name="Group 373">
              <g id="Group_372" data-name="Group 372">
                <rect id="Rectangle_74" data-name="Rectangle 74" width="59.819" height="55.74" rx="5.991" fill="#ededed"/>
                <rect id="Rectangle_75" data-name="Rectangle 75" width="59.819" height="55.74" rx="5.991" fill="none" stroke="#ded8d5" stroke-miterlimit="10" stroke-width="1.968"/>
              </g>
            </g>
          </g>
          <g id="Group_379" data-name="Group 379" transform="translate(13.108 12.55)">
            <g id="Group_377" data-name="Group 377" transform="translate(0 0)">
              <g id="Group_376" data-name="Group 376">
                <g id="Group_375" data-name="Group 375">
                  <rect id="Rectangle_76" data-name="Rectangle 76" width="33.781" height="28.69" rx="6.022" transform="translate(33.781 28.69) rotate(180)" fill="#37a8fa"/>
                </g>
              </g>
            </g>
            <g id="Group_378" data-name="Group 378" transform="translate(9.007 8.661)">
              <path id="Path_336" data-name="Path 336" d="M630.272,204.731H614.683V194.276h15.589v10.455Z" transform="translate(-614.683 -194.276)" fill="none" stroke="#fff" stroke-linecap="round" stroke-linejoin="round" stroke-width="1.647"/>
              <path id="Path_337" data-name="Path 337" d="M614.683,194.276l7.795,6.143,7.795-6.143" transform="translate(-614.683 -194.276)" fill="none" stroke="#fff" stroke-linecap="round" stroke-linejoin="round" stroke-width="1.647"/>
            </g>
          </g>
        </g>
        <g id="Group_386" data-name="Group 386" transform="translate(0 57.751)">
          <g id="Group_383" data-name="Group 383">
            <g id="Group_382" data-name="Group 382">
              <g id="Group_381" data-name="Group 381">
                <rect id="Rectangle_77" data-name="Rectangle 77" width="57.049" height="50.416" rx="5.713" fill="#ededed"/>
                <rect id="Rectangle_78" data-name="Rectangle 78" width="57.049" height="50.416" rx="5.713" fill="none" stroke="#ded8d5" stroke-miterlimit="10" stroke-width="1.968"/>
              </g>
            </g>
          </g>
          <g id="Group_385" data-name="Group 385" transform="translate(11.896 8.635)">
            <rect id="Rectangle_79" data-name="Rectangle 79" width="32.988" height="32.068" rx="6.639" fill="#ffb1a5"/>
            <g id="Group_384" data-name="Group 384" transform="translate(7.384 7.022)">
              <path id="Path_338" data-name="Path 338" d="M100.514,287.384a9.327,9.327,0,1,0,13.19,0A9.364,9.364,0,0,0,100.514,287.384Zm13.169,1.343H110.71a18.912,18.912,0,0,0-1.156-2.8A8.425,8.425,0,0,1,113.683,288.727Zm-10,4.707a15.089,15.089,0,0,1,.442-3.616h5.966a15.066,15.066,0,0,1,.442,3.616Zm6.813,1.091a17.77,17.77,0,0,1-.641,3.616h-5.495a17.734,17.734,0,0,1-.641-3.616Zm-3.388-8.959a8.47,8.47,0,0,1,1.318.1,17.136,17.136,0,0,1,1.352,3.06h-5.34a17.136,17.136,0,0,1,1.352-3.06A8.474,8.474,0,0,1,107.109,285.565Zm-2.446.361a18.858,18.858,0,0,0-1.155,2.8h-2.972A8.418,8.418,0,0,1,104.663,285.926Zm-4.869,3.891h3.4a16.227,16.227,0,0,0-.477,3.616H98.712A8.37,8.37,0,0,1,99.794,289.817Zm0,8.323a8.362,8.362,0,0,1-1.082-3.616h4.026a17.572,17.572,0,0,0,.568,3.616Zm.741,1.091h3.093a22.629,22.629,0,0,0,1.15,2.835A8.419,8.419,0,0,1,100.536,299.231Zm6.573,3.162a8.493,8.493,0,0,1-1.1-.072,25.106,25.106,0,0,1-1.3-3.091h4.813a25.245,25.245,0,0,1-1.3,3.091A8.506,8.506,0,0,1,107.109,302.393Zm2.331-.327a22.6,22.6,0,0,0,1.149-2.835h3.093A8.419,8.419,0,0,1,109.44,302.066Zm4.983-3.926h-3.512a17.5,17.5,0,0,0,.568-3.616h4.026A8.364,8.364,0,0,1,114.424,298.14Zm1.082-4.707H111.5a16.227,16.227,0,0,0-.477-3.616h3.4A8.37,8.37,0,0,1,115.505,293.433Z" transform="translate(-97.797 -284.667)" fill="#fff"/>
            </g>
          </g>
        </g>
      </g>
      <g id="Group_398" data-name="Group 398" transform="translate(2.672)">
        <path id="Path_339" data-name="Path 339" d="M110.537,93.354h-46.9A1.754,1.754,0,0,1,61.887,91.6h0a1.754,1.754,0,0,1,1.754-1.754h46.9a1.754,1.754,0,0,1,1.754,1.754h0A1.754,1.754,0,0,1,110.537,93.354Z" transform="translate(-61.887 -64.621)" fill="#c98bd2"/>
        <path id="Path_340" data-name="Path 340" d="M665.857,341.038H643.1a1.754,1.754,0,0,1-1.754-1.754h0a1.754,1.754,0,0,1,1.754-1.754h22.761a1.754,1.754,0,0,1,1.754,1.754h0A1.754,1.754,0,0,1,665.857,341.038Z" transform="translate(-373.353 -197.755)" fill="#56dfed"/>
        <rect id="Rectangle_80" data-name="Rectangle 80" width="5.428" height="5.257" rx="2.629" transform="translate(272.458 158.318)" fill="#c98bd2"/>
        <rect id="Rectangle_81" data-name="Rectangle 81" width="5.428" height="5.257" rx="2.629" transform="translate(8.82 170.471)" fill="#ffb1a5"/>
        <g id="Group_390" data-name="Group 390" transform="translate(178.115 12.834)">
          <g id="Group_389" data-name="Group 389">
            <rect id="Rectangle_82" data-name="Rectangle 82" width="49.073" height="14.087" rx="3.012" fill="#ffb1a5"/>
            <g id="Group_388" data-name="Group 388" transform="translate(6.684 5.02)">
              <line id="Line_16" data-name="Line 16" x2="32.919" fill="none" stroke="#fff" stroke-miterlimit="10" stroke-width="1.18"/>
              <line id="Line_17" data-name="Line 17" x2="13.408" transform="translate(0 3.379)" fill="none" stroke="#fff" stroke-miterlimit="10" stroke-width="1.18"/>
            </g>
          </g>
          <path id="Path_341" data-name="Path 341" d="M458.571,90.068v5.49l6.9-5.49Z" transform="translate(-453.226 -77.575)" fill="#ffb1a5"/>
        </g>
        <g id="Group_397" data-name="Group 397" transform="translate(85.726)">
          <g id="Group_395" data-name="Group 395">
            <g id="Group_394" data-name="Group 394">
              <g id="Group_393" data-name="Group 393">
                <g id="Group_392" data-name="Group 392">
                  <g id="Group_391" data-name="Group 391">
                    <path id="Rectangle_83" data-name="Rectangle 83" d="M6.46,0H22.875a6.46,6.46,0,0,1,6.46,6.46V21.3a6.46,6.46,0,0,1-6.46,6.46H8.521A8.521,8.521,0,0,1,0,19.239V6.46A6.46,6.46,0,0,1,6.46,0Z" fill="#56dfed"/>
                  </g>
                </g>
              </g>
            </g>
          </g>
          <g id="Group_396" data-name="Group 396" transform="translate(8.379 6.149)">
            <path id="Path_342" data-name="Path 342" d="M278.5,58.383l-1.67-1.67a1.463,1.463,0,0,0-1.074-.507,1.547,1.547,0,0,0-1.074.477l-.954.955-.179-.089a2.75,2.75,0,0,1-.3-.149,10.284,10.284,0,0,1-2.476-2.267A5.415,5.415,0,0,1,270,53.909c.239-.209.447-.447.656-.656l.268-.269a1.455,1.455,0,0,0,0-2.207l-.835-.835a2.709,2.709,0,0,1-.268-.3l-.567-.567a1.546,1.546,0,0,0-1.073-.477,1.478,1.478,0,0,0-1.074.477l-1.044,1.044a2.4,2.4,0,0,0-.686,1.461,5.426,5.426,0,0,0,.388,2.267,12.2,12.2,0,0,0,2.326,3.908,14.5,14.5,0,0,0,4.772,3.729,7.922,7.922,0,0,0,2.685.805h.209a2.368,2.368,0,0,0,1.79-.776l.03-.03a4.591,4.591,0,0,1,.537-.537l.388-.388A1.5,1.5,0,0,0,278.5,58.383Zm-.686,1.551-.358.358c-.209.179-.388.388-.6.6a1.418,1.418,0,0,1-1.073.448h-.149a6.282,6.282,0,0,1-2.326-.716,13.577,13.577,0,0,1-4.444-3.49,12.937,12.937,0,0,1-2.177-3.609,3.7,3.7,0,0,1-.358-1.849,1.257,1.257,0,0,1,.418-.865l1.014-1.014a.626.626,0,0,1,.418-.209.569.569,0,0,1,.417.209l.537.537a2.794,2.794,0,0,0,.3.3l.835.835a.7.7,0,0,1,.209.418.625.625,0,0,1-.209.418l-.268.268-.746.746-.03.03a.653.653,0,0,0-.179.746v.03a6.884,6.884,0,0,0,.984,1.611,11.074,11.074,0,0,0,2.714,2.476,2.484,2.484,0,0,0,.388.209,2.791,2.791,0,0,1,.3.149l.03.03a.685.685,0,0,0,.835-.149l1.044-1.044a.493.493,0,0,1,.806,0l1.67,1.67A.565.565,0,0,1,277.812,59.934Z" transform="translate(-265.365 -48.6)" fill="#fff"/>
          </g>
        </g>
      </g>
    </g>
    <g id="Group_460" data-name="Group 460" transform="translate(109.696 65.88)">
      <g id="Group_459" data-name="Group 459" clip-path="url(#clip-path)">
        <g id="Group_458" data-name="Group 458" transform="translate(1.389 1.867)">
          <g id="Group_420" data-name="Group 420" transform="translate(118.982 5.878)">
            <g id="Group_400" data-name="Group 400" transform="translate(2.59 92.293)">
              <path id="Path_343" data-name="Path 343" d="M473.51,319.97l-16.881-2.248.132,1.676-14.434,1.922s-9.3,23.341-1.1,74.675h11.741l4.226-52.052h1.5L462.784,396h11.741C482.724,344.661,473.51,319.97,473.51,319.97Z" transform="translate(-437.845 -317.722)" fill="#8e716c"/>
              <line id="Line_18" data-name="Line 18" x2="12.25" transform="translate(13.977 26.221)" fill="none" stroke="#282828" stroke-linecap="round" stroke-linejoin="round" stroke-width="1.233"/>
            </g>
            <g id="Group_409" data-name="Group 409" transform="translate(0 46.969)">
              <g id="Group_406" data-name="Group 406" transform="translate(37.469 14.08)">
                <g id="Group_402" data-name="Group 402" transform="translate(0 6.592)">
                  <g id="Group_401" data-name="Group 401">
                    <path id="Path_344" data-name="Path 344" d="M523.906,266.695c-1.444-2.306-9.557-2.224-9.985-2.274-2.193-.257,1.406,17.2,5.969,32.451a5.122,5.122,0,0,0,6.9,3.257l.091-.038a5.129,5.129,0,0,0,3.041-5.675C527.755,282.9,525.577,269.36,523.906,266.695Z" transform="translate(-513.261 -264.418)" fill="#ffb1a5"/>
                  </g>
                  <path id="Path_345" data-name="Path 345" d="M527.293,278.836l-10.358,4.019-.971-4.915,10.726-2.676Z" transform="translate(-514.714 -270.249)" fill="#f3978e"/>
                  <path id="Path_346" data-name="Path 346" d="M539.25,299.175s-4.907,6.59-4.673,6.287,3.848-10.65,3.848-10.65Z" transform="translate(-524.714 -280.755)" fill="#f3978e"/>
                </g>
                <g id="Group_405" data-name="Group 405" transform="translate(6.408)">
                  <path id="Path_347" data-name="Path 347" d="M542.26,285.092,528.2,303.316a5.172,5.172,0,0,0,1.278,7.5h0a5.172,5.172,0,0,0,7.363-1.874l11.707-21.6Z" transform="translate(-527.117 -268.939)" fill="#ffb1a5"/>
                  <g id="Group_403" data-name="Group 403" transform="translate(14.764 8.465)">
                    <path id="Path_348" data-name="Path 348" d="M563.059,282.05a5.8,5.8,0,1,1,7.3-3.737A5.8,5.8,0,0,1,563.059,282.05Z" transform="translate(-559.039 -269.681)" fill="#ffb1a5"/>
                    <path id="Path_349" data-name="Path 349" d="M569.4,271.827s1.588-1.649-1.229-2.8-6.3-.89-8.523,4.508Z" transform="translate(-559.368 -268.467)" fill="#ffb1a5"/>
                  </g>
                  <g id="Group_404" data-name="Group 404" transform="translate(18.401)">
                    <path id="Path_350" data-name="Path 350" d="M576.873,250.77l5.889,2.553a.607.607,0,0,1,.266.868l-7.747,14.471a.741.741,0,0,1-.92.353l-5.889-2.553a.607.607,0,0,1-.266-.868l7.748-14.471A.741.741,0,0,1,576.873,250.77Z" transform="translate(-567.558 -250.462)" fill="#372f5f"/>
                    <path id="Path_351" data-name="Path 351" d="M575.656,250.216l5.889,2.553a.607.607,0,0,1,.266.868l-7.747,14.471a.741.741,0,0,1-.92.353l-5.889-2.553a.607.607,0,0,1-.266-.868l7.747-14.471A.741.741,0,0,1,575.656,250.216Z" transform="translate(-566.905 -250.164)" fill="#261b43"/>
                    <path id="Path_352" data-name="Path 352" d="M577.053,253.461l5.175,2.244L575.914,267.5l-5.175-2.243Z" transform="translate(-568.966 -251.936)" fill="#e6e6e6"/>
                    <path id="Path_353" data-name="Path 353" d="M582.228,255.7l-11.489,9.551,6.314-11.794Z" transform="translate(-568.966 -251.936)" fill="#fff"/>
                  </g>
                  <path id="Path_354" data-name="Path 354" d="M568.929,268.631a9.4,9.4,0,0,1,2.495.926,1.332,1.332,0,0,1,.644,1.479h0a1.323,1.323,0,0,1-1.118.993l-3.062.386s-1.6,2.753-3.685,3.063l1.915-4.834Z" transform="translate(-547.051 -260.09)" fill="#ffb1a5"/>
                </g>
              </g>
              <g id="Group_408" data-name="Group 408">
                <g id="Group_407" data-name="Group 407">
                  <path id="Path_355" data-name="Path 355" d="M458.9,219.721c-.338,0,21.712,3.051,25.35,28.19l-11.442,1.753L470.5,268.643H438.581l-6.337-35.066a39.821,39.821,0,0,1,20.2-13.857Z" transform="translate(-432.244 -219.721)" fill="#3b4483"/>
                  <line id="Line_19" data-name="Line 19" y1="10.976" x2="0.993" transform="translate(40.563 18.967)" fill="none" stroke="#282828" stroke-linecap="round" stroke-linejoin="round" stroke-width="1.233"/>
                </g>
              </g>
            </g>
            <g id="Group_419" data-name="Group 419" transform="translate(9.938 0)">
              <path id="Path_356" data-name="Path 356" d="M479.32,210.349v-8.732H469.087v8.835a19.869,19.869,0,0,0-2.749,1.115l7.981,4.754,8.159-4.754A13.313,13.313,0,0,0,479.32,210.349Z" transform="translate(-460.509 -163.021)" fill="#ffb1a5"/>
              <path id="Path_357" data-name="Path 357" d="M472.077,200.8s1.838,4.88,6.743,4.458c4.509-.387,3.791-7.15,3.791-7.15Z" transform="translate(-463.593 -161.133)" fill="#282828"/>
              <g id="Group_412" data-name="Group 412" transform="translate(0 27.044)">
                <path id="Path_358" data-name="Path 358" d="M457.754,182.768c-1.6,1.455-5.19-4.063-3.641-5.613s2.732.881,2.732.881l.692,1.647.522,2.231.124.585Z" transform="translate(-453.733 -176.639)" fill="#f3978e"/>
                <g id="Group_411" data-name="Group 411" transform="translate(1.129 2.391)">
                  <g id="Group_410" data-name="Group 410">
                    <path id="Path_359" data-name="Path 359" d="M456.175,181.889s1.214-.546,2.293,1.214" transform="translate(-456.175 -181.809)" fill="none" stroke="#282828" stroke-linecap="round" stroke-linejoin="round" stroke-width="0.993"/>
                  </g>
                </g>
              </g>
              <g id="Group_415" data-name="Group 415" transform="translate(22.584 27.114)">
                <path id="Path_360" data-name="Path 360" d="M502.97,182.682c1.475,1.585,5.515-3.61,4.1-5.284s-2.8.647-2.8.647l-.828,1.583-.709,2.179-.173.572Z" transform="translate(-502.565 -176.791)" fill="#f3978e"/>
                <g id="Group_414" data-name="Group 414" transform="translate(1.208 2.367)">
                  <g id="Group_413" data-name="Group 413">
                    <path id="Path_361" data-name="Path 361" d="M507.565,182.033s-1.164-.647-2.387,1.016" transform="translate(-505.178 -181.909)" fill="none" stroke="#282828" stroke-linecap="round" stroke-linejoin="round" stroke-width="0.993"/>
                  </g>
                </g>
              </g>
              <g id="Group_416" data-name="Group 416" transform="translate(1.207 10.023)">
                <path id="Path_362" data-name="Path 362" d="M456.344,152.108c0,7.3,5.569,10.768,12.439,10.768s12.439-3.464,12.439-10.768-5.569-12.274-12.439-12.274S456.344,144.8,456.344,152.108Z" transform="translate(-456.344 -139.834)" fill="#282828"/>
              </g>
              <path id="Path_363" data-name="Path 363" d="M459.991,154.567a49.938,49.938,0,0,0,1.266,11.1,9.635,9.635,0,0,0,4.824,6.08l.449.276a8.466,8.466,0,0,0,8.617.1h0c2.668-1.555,4.536-3.606,5.11-6.491a73,73,0,0,0,1.16-11.06s.995-11.32-10.56-11.1S459.991,154.567,459.991,154.567Z" transform="translate(-457.093 -131.763)" fill="#ffb1a5"/>
              <g id="Group_418" data-name="Group 418" transform="translate(2.659 21.96)">
                <path id="Path_364" data-name="Path 364" d="M481.648,181.441v1.566a.712.712,0,0,0,.05.263.7.7,0,0,0,.832.385l.719-.191" transform="translate(-471.397 -174.136)" fill="none" stroke="#282828" stroke-linecap="round" stroke-linejoin="round" stroke-width="1.232"/>
                <path id="Path_365" data-name="Path 365" d="M471,167.395l-5.742,1.346s.261-1.461,2.61-1.993S471,167.395,471,167.395Z" transform="translate(-462.588 -166.164)" fill="#282828"/>
                <path id="Path_366" data-name="Path 366" d="M488.7,167.395l5.545,1.346s-.252-1.461-2.521-1.993S488.7,167.395,488.7,167.395Z" transform="translate(-475.186 -166.164)" fill="#282828"/>
                <ellipse id="Ellipse_9" data-name="Ellipse 9" cx="0.968" cy="0.966" rx="0.968" ry="0.966" transform="translate(5.263 4.483)" fill="#282828"/>
                <path id="Path_367" data-name="Path 367" d="M492.653,176.305a.968.968,0,1,1-.968-.966A.967.967,0,0,1,492.653,176.305Z" transform="translate(-476.271 -170.856)" fill="#282828"/>
                <path id="Path_368" data-name="Path 368" d="M475.052,190.172h7.468S479.21,194.2,475.052,190.172Z" transform="translate(-467.852 -178.829)" fill="#fff"/>
                <g id="Group_417" data-name="Group 417" transform="translate(0 0)">
                  <circle id="Ellipse_10" data-name="Ellipse 10" cx="4.118" cy="4.118" r="4.118" transform="translate(0 5.824) rotate(-45)" fill="none" stroke="#c98bd2" stroke-miterlimit="10" stroke-width="1.342"/>
                  <circle id="Ellipse_11" data-name="Ellipse 11" cx="4.118" cy="4.118" r="4.118" transform="translate(10.117 5.824) rotate(-45)" fill="none" stroke="#c98bd2" stroke-miterlimit="10" stroke-width="1.342"/>
                  <path id="Path_369" data-name="Path 369" d="M480.982,177.769a1.341,1.341,0,0,1,1.88,0" transform="translate(-471.039 -171.945)" fill="none" stroke="#c98bd2" stroke-miterlimit="10" stroke-width="1.342"/>
                  <line id="Line_20" data-name="Line 20" x1="1.297" y1="0.033" transform="translate(0.409 5.791)" fill="none" stroke="#c98bd2" stroke-miterlimit="10" stroke-width="1.342"/>
                  <line id="Line_21" data-name="Line 21" y1="0.033" x2="1.305" transform="translate(20.06 5.791)" fill="none" stroke="#c98bd2" stroke-miterlimit="10" stroke-width="1.342"/>
                </g>
              </g>
              <path id="Path_370" data-name="Path 370" d="M501.691,160.975s-4.62-6.245-3.554-12.573a9.1,9.1,0,0,1,4.322,6.179C503.352,159.035,501.691,160.975,501.691,160.975Z" transform="translate(-477.515 -134.417)" fill="#282828"/>
              <path id="Path_371" data-name="Path 371" d="M459.235,160.9s5.367-7.094,4.3-13.421a10.567,10.567,0,0,0-4.615,6.6C458.028,158.541,459.235,160.9,459.235,160.9Z" transform="translate(-456.345 -133.923)" fill="#282828"/>
              <path id="Path_372" data-name="Path 372" d="M479.411,147.707s-5.932,6.494-22.162,5.382c0,0,2.485-9.529,10.351-10.545C467.6,142.544,476.682,141.46,479.411,147.707Z" transform="translate(-455.623 -131.23)" fill="#3e2d4a"/>
              <circle id="Ellipse_12" data-name="Ellipse 12" cx="7.749" cy="7.749" r="7.749" transform="translate(14.487 15.301) rotate(-80.831)" fill="#3e2d4a"/>
            </g>
          </g>
          <g id="Group_434" data-name="Group 434" transform="translate(10.885 14.533)">
            <path id="Path_373" data-name="Path 373" d="M258.354,318.362l-14.434-1.922.132-1.677-16.881,2.248s-9.214,24.692-1.014,76.026H237.9l4.093-52.052h1.5l4.226,52.052h11.741C267.658,341.7,258.354,318.362,258.354,318.362Z" transform="translate(-211.546 -232.493)" fill="#3b4483"/>
            <g id="Group_429" data-name="Group 429" transform="translate(8.393)">
              <path id="Path_374" data-name="Path 374" d="M253.926,153.531a26.618,26.618,0,0,1-4.847-8.741c-1.427-4.039-6.1-2.4-6.1-2.4s-3.894-5.009-9.753-3.265-7.9,5.914-8.014,10.871-4.019,5.732-7.021,11.467c-5.3,10.124,3.624,18.651,19.868,16.285l.022-.158a17.045,17.045,0,0,0,5.953.556C263.549,176.991,261.666,162.637,253.926,153.531Z" transform="translate(-216.662 -137.888)" fill="#3e2d4a"/>
              <g id="Group_423" data-name="Group 423" transform="translate(30.446 17.021)">
                <path id="Path_375" data-name="Path 375" d="M282.922,179.81c1.6,1.455,5.19-4.063,3.641-5.613s-2.732.881-2.732.881l-.692,1.647-.522,2.231-.124.584Z" transform="translate(-282.492 -173.68)" fill="#f3978e"/>
                <g id="Group_422" data-name="Group 422" transform="translate(1.029 2.391)">
                  <g id="Group_421" data-name="Group 421">
                    <path id="Path_376" data-name="Path 376" d="M287.009,178.931s-1.214-.546-2.293,1.214" transform="translate(-284.716 -178.851)" fill="none" stroke="#282828" stroke-linecap="round" stroke-linejoin="round" stroke-width="0.993"/>
                  </g>
                </g>
              </g>
              <g id="Group_426" data-name="Group 426" transform="translate(7.51 17.091)">
                <path id="Path_377" data-name="Path 377" d="M237.3,179.723c-1.475,1.585-5.515-3.61-4.1-5.285s2.8.647,2.8.647l.828,1.583.709,2.179.173.572Z" transform="translate(-232.899 -173.832)" fill="#f3978e"/>
                <g id="Group_425" data-name="Group 425" transform="translate(1.207 2.368)">
                  <g id="Group_424" data-name="Group 424">
                    <path id="Path_378" data-name="Path 378" d="M235.508,179.075s1.164-.647,2.387,1.016" transform="translate(-235.508 -178.951)" fill="none" stroke="#282828" stroke-linecap="round" stroke-linejoin="round" stroke-width="0.993"/>
                  </g>
                </g>
              </g>
              <g id="Group_427" data-name="Group 427" transform="translate(8.81)">
                <path id="Path_379" data-name="Path 379" d="M260.589,149.15c0,7.3-5.569,10.768-12.439,10.768s-12.439-3.464-12.439-10.768,5.569-12.274,12.439-12.274S260.589,141.845,260.589,149.15Z" transform="translate(-235.711 -136.876)" fill="#282828"/>
              </g>
              <rect id="Rectangle_84" data-name="Rectangle 84" width="10.233" height="13.251" transform="translate(16.085 28.574)" fill="#ffb1a5"/>
              <path id="Path_380" data-name="Path 380" d="M248.211,196.872s2.848,5.685,6.353,6.572a4.932,4.932,0,0,0,2.839-.164,6.1,6.1,0,0,0,3.276-4.61l.132-1.243A13.2,13.2,0,0,1,248.211,196.872Z" transform="translate(-233.62 -169.125)" fill="#282828"/>
              <path id="Path_381" data-name="Path 381" d="M260.921,151.609a49.93,49.93,0,0,1-1.266,11.1,9.638,9.638,0,0,1-4.824,6.081l-.449.275a8.466,8.466,0,0,1-8.617.1h0c-2.668-1.555-4.536-3.606-5.111-6.491a73.033,73.033,0,0,1-1.159-11.06s-.995-11.32,10.56-11.1S260.921,151.609,260.921,151.609Z" transform="translate(-228.923 -138.827)" fill="#ffb1a5"/>
              <g id="Group_428" data-name="Group 428" transform="translate(13.431 12.871)">
                <path id="Path_382" data-name="Path 382" d="M260.938,179.808v.931a.71.71,0,0,0,.05.263.7.7,0,0,0,.832.383l.719-.19" transform="translate(-253.892 -172.824)" fill="none" stroke="#282828" stroke-linecap="round" stroke-linejoin="round" stroke-width="1.23"/>
                <path id="Path_383" data-name="Path 383" d="M266.144,165.555l6.147,1.455s-.279-1.58-2.794-2.154S266.144,165.555,266.144,165.555Z" transform="translate(-256.69 -164.707)" fill="#282828"/>
                <path id="Path_384" data-name="Path 384" d="M251.928,165.555,245.7,167.01s.283-1.58,2.83-2.154S251.928,165.555,251.928,165.555Z" transform="translate(-245.702 -164.707)" fill="#282828"/>
                <path id="Path_385" data-name="Path 385" d="M252.091,173.671a.968.968,0,1,1-.968-.963A.965.965,0,0,1,252.091,173.671Z" transform="translate(-248.095 -169.008)" fill="#282828"/>
                <path id="Path_386" data-name="Path 386" d="M271.943,173.671a.968.968,0,1,1-.968-.963A.965.965,0,0,1,271.943,173.671Z" transform="translate(-258.766 -169.008)" fill="#282828"/>
                <path id="Path_387" data-name="Path 387" d="M252.959,186.7h8.5s-.6,2.336-4.454,2.336A4.508,4.508,0,0,1,252.959,186.7Z" transform="translate(-249.603 -176.528)" fill="#fff"/>
              </g>
              <path id="Path_388" data-name="Path 388" d="M238.642,158.016s4.62-6.246,3.554-12.573a9.1,9.1,0,0,0-4.322,6.18C236.981,156.076,238.642,158.016,238.642,158.016Z" transform="translate(-227.922 -141.481)" fill="#282828"/>
              <path id="Path_389" data-name="Path 389" d="M280.7,157.315s-5.367-6.462-4.3-12.79a10.567,10.567,0,0,1,4.615,6.6C281.91,155.583,280.7,157.315,280.7,157.315Z" transform="translate(-248.698 -140.987)" fill="#282828"/>
              <path id="Path_390" data-name="Path 390" d="M240.679,144.749s5.3,7.125,21.531,6.013c0,0-1.854-10.161-9.72-11.175C252.49,139.586,243.409,138.5,240.679,144.749Z" transform="translate(-229.571 -138.294)" fill="#3e2d4a"/>
            </g>
            <g id="Group_433" data-name="Group 433" transform="translate(0 37.507)">
              <g id="Group_431" data-name="Group 431" transform="translate(0 20.801)">
                <g id="Group_430" data-name="Group 430">
                  <path id="Path_391" data-name="Path 391" d="M203.528,321.854c-.236.371,13.508-59.8,9.428-58.892-.372.083-7.519.747-8.581,2.906-3.079,6.261-5.288,55.53-5.288,55.53Z" transform="translate(-198.822 -262.952)" fill="#ffb1a5"/>
                  <path id="Path_392" data-name="Path 392" d="M198.779,387.874s-2.215,10.278,6.159,11.4a1.177,1.177,0,0,0,1.267-.778l.024-.07a1.176,1.176,0,0,0-.652-1.454c-1.365-.61-3.483-2.153-2.432-5.656,0,0,1.21-.148,1.879,2.11a.971.971,0,0,0,1.365.6h0a.971.971,0,0,0,.525-.993c-.2-1.582-1-5.389-4.049-6.411Z" transform="translate(-198.514 -329.427)" fill="#ffb1a5"/>
                </g>
                <path id="Path_393" data-name="Path 393" d="M205.181,290.2s7.919,11.153,7.961,10.937,2.769-15.657,2.769-15.657l-9.609-4.163Z" transform="translate(-202.097 -272.821)" fill="#f3978e"/>
              </g>
              <g id="Group_432" data-name="Group 432" transform="translate(1.877)">
                <path id="Path_394" data-name="Path 394" d="M225.782,222.408c.338,0-19.571.355-23.21,25.494l11.442,1.753,2.307,18.979H248.24l6.337-35.066s-4.505-7.6-17.636-11.319Z" transform="translate(-202.572 -220.273)" fill="#9addff"/>
                <path id="Path_395" data-name="Path 395" d="M231.716,223.15s2.814,3.735,14.342,3.735c11.421,0,14.342-3.931,14.342-3.931a49.243,49.243,0,0,0-14.546-4.979A51.757,51.757,0,0,0,231.716,223.15Z" transform="translate(-218.237 -217.976)" fill="#ffb1a5"/>
              </g>
            </g>
          </g>
          <g id="Group_457" data-name="Group 457">
            <g id="Group_436" data-name="Group 436" transform="translate(65.412 136.855)">
              <g id="Group_435" data-name="Group 435">
                <path id="Path_396" data-name="Path 396" d="M316.414,401.367l.027,50.136h24.8l1.906-50.136Z" transform="translate(-316.414 -401.367)" fill="#3b4483"/>
                <path id="Path_397" data-name="Path 397" d="M401.782,401.367l-.028,50.136h-24.8l-1.906-50.136Z" transform="translate(-347.93 -401.367)" fill="#3b4483"/>
                <rect id="Rectangle_85" data-name="Rectangle 85" width="25.644" height="17.418" transform="translate(14.662)" fill="#3b4483"/>
              </g>
              <line id="Line_22" data-name="Line 22" x2="17.688" transform="translate(18.244 17.418)" fill="none" stroke="#282828" stroke-linecap="round" stroke-linejoin="round" stroke-width="1.397"/>
            </g>
            <g id="Group_447" data-name="Group 447" transform="translate(0 47.128)">
              <g id="Group_438" data-name="Group 438" transform="translate(105.408 6.86)">
                <g id="Group_437" data-name="Group 437" transform="translate(12.881 39.115)">
                  <path id="Path_398" data-name="Path 398" d="M447.39,306.763c1.538,16.989-.084,29.367.364,60.628l-14.8.62L430.745,309.5Z" transform="translate(-430.745 -306.763)" fill="#ffb1a5"/>
                  <path id="Path_399" data-name="Path 399" d="M434.687,325.419s9.167-.839,15.435-4.974l-.165-3.638-15.275,2.08Z" transform="translate(-432.861 -312.162)" fill="#f3978e"/>
                </g>
                <path id="Path_400" data-name="Path 400" d="M402.894,222.188s29.118,7.323,34.394,44.282c0,0-14.251,6.178-28.533,3.521l3.213-12.362Z" transform="translate(-402.894 -222.188)" fill="#f7e9db"/>
              </g>
              <g id="Group_445" data-name="Group 445">
                <g id="Group_442" data-name="Group 442">
                  <path id="Path_401" data-name="Path 401" d="M204.563,255.417l21.68,25.6L219.609,299.7s-16.478-22.91-23.883-40.618Z" transform="translate(-186.13 -233.189)" fill="#ffb1a5"/>
                  <g id="Group_441" data-name="Group 441">
                    <g id="Group_440" data-name="Group 440">
                      <g id="Group_439" data-name="Group 439">
                        <path id="Path_402" data-name="Path 402" d="M198.093,239.877s-7.613,4.3-9.549,2.745c-3.384-2.719-6.18-12.672-6.18-12.672s14.236-5.367,14.1-5.158S198.093,239.877,198.093,239.877Z" transform="translate(-178.947 -216.725)" fill="#ffb1a5"/>
                        <path id="Path_403" data-name="Path 403" d="M213.378,241.265c-.135-.767,2.823-9.035,3.837-12.135a1.368,1.368,0,0,0-1.083-1.723h0a1.579,1.579,0,0,0-1.761.722l-3.571,6.1Z" transform="translate(-194.233 -218.113)" fill="#ffb1a5"/>
                        <path id="Path_404" data-name="Path 404" d="M209.625,222.468l-2.452-12.2a1.535,1.535,0,0,0-1.775-1.217h0a1.322,1.322,0,0,0-1.085,1.467l1.068,9.082Z" transform="translate(-190.741 -208.254)" fill="#ffb1a5"/>
                        <path id="Path_405" data-name="Path 405" d="M198.148,217.07l-3.329-8.71a1.528,1.528,0,0,0-1.892-.931h0a1.317,1.317,0,0,0-.87,1.562l2.471,10.065Z" transform="translate(-184.139 -207.354)" fill="#ffb1a5"/>
                        <path id="Path_406" data-name="Path 406" d="M189.137,222.865l-4.212-8.558a1.674,1.674,0,0,0-2.138-.82h0a1.459,1.459,0,0,0-.752,1.927l3.358,8.08Z" transform="translate(-178.706 -210.582)" fill="#ffb1a5"/>
                        <path id="Path_407" data-name="Path 407" d="M178.393,227.888l-3.305-5.243a1.184,1.184,0,0,1,.578-1.582h0a1.353,1.353,0,0,1,1.652.481l4.346,6.03Z" transform="translate(-174.978 -214.662)" fill="#ffb1a5"/>
                      </g>
                    </g>
                    <path id="Path_408" data-name="Path 408" d="M208.008,236.1s-4.964-.521-5.474,6.095" transform="translate(-189.79 -222.798)" fill="none" stroke="#282828" stroke-linecap="round" stroke-linejoin="round" stroke-width="1.532"/>
                  </g>
                </g>
                <g id="Group_444" data-name="Group 444" transform="translate(29.082 6.22)">
                  <g id="Group_443" data-name="Group 443" transform="translate(0 14.929)">
                    <path id="Path_409" data-name="Path 409" d="M237.859,289.711s4.078,14.112,12.2,12.236,20.79-19.231,20.79-19.231l-2.835-29.633-22.807,28.07Z" transform="translate(-237.859 -253.082)" fill="#ffb1a5"/>
                    <path id="Path_410" data-name="Path 410" d="M269.051,291.962s7.7,11.614,14.269,15.71l4.3-5.427-16.585-12.83Z" transform="translate(-254.625 -272.612)" fill="#f3978e"/>
                  </g>
                  <path id="Path_411" data-name="Path 411" d="M301.618,220.8s-22.606,5.1-34.653,31.368c0,0,7.279,10.967,18.948,15.842l7.812-9.571Z" transform="translate(-253.504 -220.803)" fill="#f7e9db"/>
                </g>
              </g>
              <g id="Group_446" data-name="Group 446" transform="translate(62.466 4.176)">
                <path id="Path_412" data-name="Path 412" d="M325.177,218.346A56.613,56.613,0,0,0,310.8,228.883l1.742,76.8h55.649l-.18-76.4s-7.014-6.865-14.617-10.211C346.932,216.225,331.455,215.126,325.177,218.346Z" transform="translate(-310.448 -216.383)" fill="#f7e9db"/>
                <path id="Rectangle_86" data-name="Rectangle 86" d="M0,0H15.481a0,0,0,0,1,0,0V7.74a7.74,7.74,0,0,1-7.74,7.74h0A7.74,7.74,0,0,1,0,7.74V0A0,0,0,0,1,0,0Z" transform="translate(33.322 23.905)" fill="none" stroke="#282828" stroke-linecap="round" stroke-linejoin="round" stroke-width="1.397"/>
                <line id="Line_23" data-name="Line 23" y1="25.124" x2="0.722" transform="translate(57.648 25.649)" fill="none" stroke="#282828" stroke-linecap="round" stroke-linejoin="round" stroke-width="1.397"/>
                <line id="Line_24" data-name="Line 24" x1="1.202" y1="21.778" transform="translate(0 24.808)" fill="none" stroke="#282828" stroke-linecap="round" stroke-linejoin="round" stroke-width="1.397"/>
              </g>
            </g>
            <g id="Group_456" data-name="Group 456" transform="translate(72.804)">
              <path id="Path_413" data-name="Path 413" d="M340.3,136.392l-2.32-11.477a8.066,8.066,0,0,1-.049-3.733c.735-2.243,3.435-6.549,8.05-4.577l1,4.543s-4.793.968-6.716,7.238Z" transform="translate(-335.257 -111.178)" fill="#3e2d4a"/>
              <path id="Path_414" data-name="Path 414" d="M346.824,122.313c-.084,1.508-1.415,8.106-6.094,10.509C340.73,132.822,336.631,124.033,346.824,122.313Z" transform="translate(-336.438 -114.516)" fill="#282828"/>
              <path id="Path_415" data-name="Path 415" d="M363.251,193.409h0V173.921H345.287v19.488l-5.348,2.438s1.254,8.077,14.519,8.256,14.6-7.859,14.6-7.859Z" transform="translate(-336.451 -142.256)" fill="#ffb1a5"/>
              <path id="Path_416" data-name="Path 416" d="M355.588,110.882s3.3-8.7,13.464-4.074c6.153,2.8,7.877,6.551,8.611,9.209a10.7,10.7,0,0,1,.274,3.1l-2.459,11.55-9.6-15.98-9.29.737Z" transform="translate(-344.863 -105.453)" fill="#3e2d4a"/>
              <g id="Group_450" data-name="Group 450" transform="translate(29.549 23.974)">
                <path id="Path_417" data-name="Path 417" d="M397.355,158.532a2.992,2.992,0,0,1,3.709-.979c2.5.948,1.368,7.015-2.379,7.787a2.964,2.964,0,0,1-2.4-.627S397.209,160.232,397.355,158.532Z" transform="translate(-396.288 -157.291)" fill="#f3978e"/>
                <g id="Group_449" data-name="Group 449" transform="translate(0.703 2.334)">
                  <g id="Group_448" data-name="Group 448">
                    <path id="Path_418" data-name="Path 418" d="M401.385,162.406s-2.093-.7-3.578,2.383" transform="translate(-397.807 -162.338)" fill="none" stroke="#282828" stroke-linecap="round" stroke-linejoin="round" stroke-width="1.397"/>
                  </g>
                </g>
              </g>
              <g id="Group_453" data-name="Group 453" transform="translate(0 23.974)">
                <path id="Path_419" data-name="Path 419" d="M337.441,158.532a2.992,2.992,0,0,0-3.709-.979c-2.5.948-1.368,7.015,2.379,7.787a2.964,2.964,0,0,0,2.4-.627S337.586,160.232,337.441,158.532Z" transform="translate(-332.397 -157.291)" fill="#f3978e"/>
                <g id="Group_452" data-name="Group 452" transform="translate(1.83 2.334)">
                  <g id="Group_451" data-name="Group 451">
                    <path id="Path_420" data-name="Path 420" d="M336.354,162.406s2.093-.7,3.578,2.383" transform="translate(-336.354 -162.338)" fill="none" stroke="#282828" stroke-linecap="round" stroke-linejoin="round" stroke-width="1.397"/>
                  </g>
                </g>
              </g>
              <path id="Path_421" data-name="Path 421" d="M368.79,132.421c0,3.657-.358,11.309-2.606,15.85a11.2,11.2,0,0,1-10.18,6.7c-4.577.136-7.987-1.627-10.72-7.162s-2.6-15.316-2.6-15.316,0-13.065,12.913-13.065C369.193,119.424,368.79,132.421,368.79,132.421Z" transform="translate(-337.924 -112.963)" fill="#ffb1a5"/>
              <path id="Path_422" data-name="Path 422" d="M351.794,186.688s1.5,7.633,8.148,8.51c7.646,1.01,9.682-8.316,9.682-8.316s-3.378,4.234-8.721,4.24A11.69,11.69,0,0,1,351.794,186.688Z" transform="translate(-342.823 -149.118)" fill="#282828"/>
              <g id="Group_455" data-name="Group 455" transform="translate(4.915 16.401)">
                <path id="Path_423" data-name="Path 423" d="M368.917,159.254v3.024a.989.989,0,0,0,.071.369.973.973,0,0,0,1.16.538l1-.267" transform="translate(-356.942 -150.773)" fill="none" stroke="#282828" stroke-linecap="round" stroke-linejoin="round" stroke-width="1.397"/>
                <path id="Path_424" data-name="Path 424" d="M357.939,154.766a1.176,1.176,0,1,1-1.176-1.176A1.176,1.176,0,0,1,357.939,154.766Z" transform="translate(-349.777 -147.728)" fill="#282828"/>
                <path id="Path_425" data-name="Path 425" d="M381.769,154.766a1.175,1.175,0,1,1-1.175-1.176A1.175,1.175,0,0,1,381.769,154.766Z" transform="translate(-362.586 -147.728)" fill="#282828"/>
                <path id="Path_426" data-name="Path 426" d="M375.454,142.105l7.9,2.041s-.359-2.217-3.593-3.022S375.454,142.105,375.454,142.105Z" transform="translate(-360.456 -140.916)" fill="#282828"/>
                <path id="Path_427" data-name="Path 427" d="M355.649,142.105l-7.9,2.041s.359-2.217,3.593-3.022S355.649,142.105,355.649,142.105Z" transform="translate(-345.562 -140.916)" fill="#282828"/>
                <path id="Path_428" data-name="Path 428" d="M361.436,172.379s1.166.894,4.232.894a10.717,10.717,0,0,0,4.53-.894" transform="translate(-352.921 -157.828)" fill="none" stroke="#282828" stroke-linecap="round" stroke-linejoin="round" stroke-width="1.397"/>
                <g id="Group_454" data-name="Group 454" transform="translate(0 2.386)">
                  <circle id="Ellipse_13" data-name="Ellipse 13" cx="4.995" cy="4.995" r="4.995" transform="translate(1.675)" fill="none" stroke="#fff" stroke-miterlimit="10" stroke-width="1.951"/>
                  <circle id="Ellipse_14" data-name="Ellipse 14" cx="4.995" cy="4.995" r="4.995" transform="translate(13.946)" fill="none" stroke="#fff" stroke-miterlimit="10" stroke-width="1.951"/>
                  <path id="Path_429" data-name="Path 429" d="M368.246,156.3a1.626,1.626,0,0,1,2.281,0" transform="translate(-356.581 -151.309)" fill="none" stroke="#fff" stroke-miterlimit="10" stroke-width="1.951"/>
                  <line id="Line_25" data-name="Line 25" x1="1.675" y1="0.042" transform="translate(0 4.953)" fill="none" stroke="#fff" stroke-miterlimit="10" stroke-width="1.951"/>
                  <line id="Line_26" data-name="Line 26" y1="0.03" x2="1.87" transform="translate(23.936 4.965)" fill="none" stroke="#fff" stroke-miterlimit="10" stroke-width="1.951"/>
                </g>
              </g>
              <path id="Path_430" data-name="Path 430" d="M351.794,119.592s2.4,6.815,13.223,6.606c7.355-.142,9.112,5.18,9.112,5.18s-1.28-11.9-1.616-11.786-11.192-2.9-11.192-2.9Z" transform="translate(-342.823 -111.496)" fill="#282828"/>
            </g>
          </g>
        </g>
      </g>
    </g>
  </g>
</svg>
