<svg width="512" height="336" viewBox="0 0 512 336" fill="none" xmlns="http://www.w3.org/2000/svg">
<path opacity="0.4" d="M500.383 177.832C500.383 177.832 485.483 236.332 412.183 234.132C349.583 232.232 324.783 174.932 281.083 182.532C237.383 190.132 197.783 193.732 178.983 146.532C156.783 91.232 165.283 43.132 238.383 24.032C311.483 4.93201 341.283 36.932 399.483 24.032C457.683 11.132 543.283 71.132 500.383 177.832Z" fill="#EBE6E4"/>
<path opacity="0.4" d="M12.1833 112.732C12.1833 112.732 27.8833 51.4321 104.683 53.7321C170.283 55.7321 196.183 115.832 242.083 107.832C287.983 99.8321 329.383 96.1321 349.083 145.532C372.183 203.432 363.283 253.832 286.683 273.832C210.083 293.832 178.883 260.332 117.883 273.832C56.8833 287.332 -32.8167 224.532 12.1833 112.732Z" fill="#EBE6E4"/>
<path d="M30.1834 250.832C30.1834 250.832 24.4834 295.432 29.3834 296.032C34.1834 296.632 42.9834 255.332 42.9834 255.332L30.1834 250.832Z" fill="#636268"/>
<path d="M258.283 250.832C258.283 250.832 263.983 295.432 259.083 296.032C254.283 296.632 245.483 255.332 245.483 255.332L258.283 250.832Z" fill="#636268"/>
<path d="M25.3834 225.032C25.3834 225.032 27.9834 172.432 54.3834 156.232C81.3834 139.632 131.383 139.232 190.683 146.632C261.883 155.632 253.483 222.932 253.483 222.932C272.183 223.632 280.283 227.332 282.783 246.532C285.983 271.232 247.783 266.532 201.283 268.632C141.683 271.332 45.7834 270.932 25.1834 266.332C4.58336 261.732 -1.61664 238.632 25.3834 225.032Z" fill="#EBE6E4"/>
<path d="M130.383 225.632C130.383 225.632 315.683 229.232 186.983 245.532C155.283 249.532 74.6833 247.832 62.2833 245.432C49.8833 243.032 -15.7167 231.732 130.383 225.632Z" fill="#5A6E71"/>
<path d="M41.2834 185.932C41.2834 185.932 79.7834 174.832 84.0834 175.032C88.3834 175.232 88.7834 160.232 95.0834 165.132C101.483 170.032 98.7834 177.932 99.3834 181.032C99.9834 184.132 116.383 206.932 113.583 213.532C110.783 220.032 101.483 231.232 60.0834 237.132C59.2834 237.232 41.1834 248.132 44.0834 235.332C44.0834 235.332 40.0834 224.132 31.6834 197.932C29.0834 189.932 21.7834 189.832 27.3834 187.732C33.0834 185.532 41.2834 185.932 41.2834 185.932Z" fill="#5A6E71"/>
<path d="M132.583 96.6321C132.583 96.6321 139.883 95.4321 145.583 105.332C151.183 115.232 141.883 127.832 142.383 133.932C142.783 140.032 144.383 148.532 129.883 150.432C115.383 152.332 122.283 95.0321 132.583 96.6321Z" fill="#636268"/>
<path d="M115.484 108.132C115.484 108.132 110.484 134.932 106.284 135.832C96.8836 137.832 88.8836 136.532 76.6836 166.932C64.4836 197.332 69.4836 241.132 101.184 243.232C110.484 243.832 166.184 225.432 134.584 201.132C112.484 184.232 133.884 152.932 132.284 144.132C130.584 135.332 115.984 150.732 129.084 122.932L115.484 108.132Z" fill="white"/>
<path d="M115.883 102.932C115.883 102.932 132.183 97.8321 137.383 103.932C142.683 110.032 140.783 130.532 129.683 132.232C112.283 134.932 106.883 110.332 115.883 102.932Z" fill="white"/>
<path d="M96.5836 234.532C96.5836 234.532 125.384 148.832 148.584 148.432C171.784 148.032 187.984 230.532 192.784 234.332C197.584 238.132 208.884 237.232 203.584 239.232C198.284 241.232 201.984 240.732 189.084 239.832C176.184 238.932 152.684 193.032 150.484 192.532C148.284 192.032 137.984 241.832 110.884 242.932C95.6836 243.532 96.5836 234.532 96.5836 234.532Z" fill="#D4787D"/>
<path d="M108.583 234.032C108.583 234.032 137.383 148.332 160.583 147.932C183.783 147.532 199.983 230.032 204.783 233.832C209.583 237.632 220.883 236.732 215.583 238.732C210.283 240.732 213.983 240.232 201.083 239.332C188.183 238.432 164.583 192.032 162.383 192.032C153.183 192.132 149.883 241.332 122.783 242.432C107.683 243.132 108.583 234.032 108.583 234.032Z" fill="#D4787D"/>
<path d="M128.783 141.032C128.783 141.032 186.983 138.332 178.783 161.232C173.983 174.432 149.083 179.432 130.183 175.232C111.283 170.932 120.583 137.632 128.783 141.032Z" fill="white"/>
<path d="M127.783 114.932C127.783 114.932 127.483 116.632 125.583 116.832C124.283 117.032 123.783 115.932 122.983 116.332C122.183 116.832 121.983 117.432 122.183 117.932C122.383 118.432 122.983 117.632 123.683 117.532C124.383 117.532 126.183 118.632 127.683 117.332C128.583 116.532 128.383 114.232 127.783 114.932Z" fill="#636268"/>
<path d="M134.184 114.132C134.184 114.132 135.384 115.032 136.284 114.732C137.184 114.432 137.484 113.432 138.084 113.232C138.684 113.032 140.084 114.432 139.684 114.632C139.284 114.832 138.784 114.632 138.584 114.632C138.384 114.632 137.784 115.932 136.284 116.032C134.784 116.132 132.984 114.032 134.184 114.132Z" fill="#636268"/>
<path d="M169.883 231.832C171.083 231.532 190.883 230.232 192.883 226.932C194.883 223.632 176.083 154.032 158.383 152.632C140.683 151.232 92.5834 222.932 88.2834 233.932C83.9834 244.932 111.283 244.332 124.783 242.532C147.083 239.432 152.683 198.632 153.183 202.232C154.583 212.732 164.483 233.032 169.883 231.832Z" fill="#636268"/>
<path d="M191.583 228.232C191.583 228.232 202.183 226.332 202.683 224.432C203.183 222.532 186.183 164.432 173.183 154.432C160.083 144.432 149.983 159.332 151.283 165.032C152.483 170.632 181.883 233.332 191.583 228.232Z" fill="#636268"/>
<path d="M107.584 134.932C107.584 134.932 112.984 149.232 123.284 147.132C129.584 145.832 124.484 140.832 127.484 140.732C130.484 140.632 137.584 140.632 140.884 141.632C144.184 142.632 143.384 165.832 140.884 171.332C138.384 176.832 109.384 200.032 104.084 207.932C98.7836 215.832 92.5836 239.632 88.3836 239.532C84.0836 239.432 63.3836 228.532 67.7836 195.732C72.1836 162.932 81.2836 145.732 87.4836 140.932C93.6836 136.132 105.784 131.532 107.584 134.932Z" fill="#E59889"/>
<path d="M85.3834 160.132C85.3834 160.132 106.083 196.732 122.783 195.032C139.483 193.332 148.483 150.932 162.683 153.232C177.083 155.632 176.583 149.932 162.783 147.732C145.283 144.932 130.183 163.432 123.483 171.232C122.283 172.632 106.183 144.832 98.5834 143.532C90.9834 142.232 83.7834 156.032 85.3834 160.132Z" fill="white"/>
<path d="M125.183 132.232C125.183 132.232 121.183 132.132 117.883 127.832C117.283 127.032 114.783 135.632 124.083 135.732C124.083 135.732 124.983 132.932 125.183 132.232Z" fill="#636268"/>
<path d="M114.183 159.532C114.183 159.532 100.883 173.432 94.0834 176.332C87.2834 179.232 81.8834 162.432 84.7834 152.832C87.6834 143.232 90.1834 137.032 98.2834 139.632C106.383 142.332 114.183 155.832 114.183 159.532Z" fill="#E59889"/>
<path d="M138.183 102.332C138.383 109.632 121.983 108.232 119.283 117.432C117.483 123.732 116.983 130.332 109.083 134.632C101.183 138.932 100.783 136.632 97.0835 144.932C94.5835 150.632 82.6835 148.832 76.9835 162.932C74.7835 168.432 61.8835 157.332 67.1835 143.232C70.6835 133.932 76.7835 136.732 79.6835 132.232C82.5835 127.732 75.1835 109.832 100.483 104.832C105.483 103.832 107.783 93.332 118.083 90.232C131.683 86.132 137.983 95.132 138.183 102.332Z" fill="#636268"/>
<path d="M130.083 132.732C130.083 132.732 140.583 157.132 149.083 155.632C157.583 154.132 175.883 148.632 169.683 145.932C161.483 142.332 151.483 138.932 139.283 132.632C130.783 128.232 130.083 132.732 130.083 132.732Z" fill="white"/>
<path d="M166.083 228.832C166.083 228.832 189.783 222.132 190.983 223.632C192.183 225.132 193.183 229.032 192.383 229.332C191.583 229.632 171.083 236.432 169.183 235.432C167.183 234.432 164.083 229.432 166.083 228.832Z" fill="white"/>
<path d="M191.183 223.232C191.183 223.232 198.883 219.232 200.783 219.132C202.683 219.032 203.483 223.232 203.583 224.132C203.783 225.032 191.783 228.832 190.383 228.632C188.883 228.532 186.683 225.432 191.183 223.232Z" fill="white"/>
<path d="M192.083 231.932C192.083 231.932 203.083 226.332 204.683 227.532C206.283 228.732 209.883 235.132 215.983 236.832C215.983 236.832 211.483 241.932 210.383 244.232C209.183 246.432 199.183 244.832 194.783 239.332C193.283 237.332 189.683 232.732 192.083 231.932Z" fill="#636268"/>
<path d="M196.783 233.732C196.783 233.732 202.783 229.832 204.083 230.532C205.383 231.232 203.283 231.232 200.383 233.532C197.583 235.932 194.583 236.432 196.783 233.732Z" fill="#FFFEF5"/>
<path d="M200.883 235.932C200.883 235.932 206.883 232.032 208.183 232.732C209.483 233.432 207.383 233.432 204.483 235.732C201.583 238.132 198.683 238.732 200.883 235.932Z" fill="#FFFEF5"/>
<path d="M203.983 238.032C203.983 238.032 209.983 234.132 211.283 234.832C212.583 235.532 210.483 235.532 207.583 237.832C204.783 240.132 201.783 240.732 203.983 238.032Z" fill="#FFFEF5"/>
<path d="M215.083 236.432C215.083 236.432 209.583 244.632 204.683 243.632C201.283 242.932 194.783 239.232 194.783 239.232C195.383 240.632 198.483 242.932 201.583 244.532C204.683 246.132 209.883 248.232 215.283 245.732C220.683 243.132 222.583 238.932 215.083 236.432Z" fill="white"/>
<path d="M180.483 235.632C180.483 235.632 191.984 230.732 193.084 232.432C194.184 234.132 196.384 241.832 201.584 245.432C201.584 245.432 195.683 248.932 193.883 250.732C192.083 252.532 183.083 247.732 180.683 241.032C179.883 238.732 179.283 235.532 180.483 235.632Z" fill="#636268"/>
<path d="M184.383 236.332C184.383 236.332 191.283 234.432 192.383 235.532C193.383 236.632 191.384 236.032 187.984 237.332C184.384 238.732 181.383 238.332 184.383 236.332Z" fill="#FFFEF5"/>
<path d="M187.484 239.832C187.484 239.832 194.384 237.932 195.484 239.032C196.484 240.132 194.484 239.532 191.084 240.832C187.684 242.132 184.484 241.732 187.484 239.832Z" fill="#FFFEF5"/>
<path d="M189.883 242.732C189.883 242.732 196.783 240.832 197.883 241.932C198.983 243.032 196.884 242.432 193.484 243.732C189.884 245.032 186.883 244.732 189.883 242.732Z" fill="#FFFEF5"/>
<path d="M200.784 244.732C200.784 244.732 193.683 253.932 187.383 248.332C184.783 246.032 180.684 241.032 180.684 241.032C180.884 242.632 183.084 245.732 185.484 248.232C187.884 250.732 192.184 254.432 198.084 253.632C203.984 253.032 207.184 249.532 200.784 244.732Z" fill="white"/>
<path d="M133.583 122.432C132.583 122.432 131.583 121.932 131.483 121.832L131.983 120.932C132.383 121.132 133.583 121.632 134.183 121.232C134.383 120.832 133.583 118.432 132.483 116.132L133.383 115.732C134.583 118.332 135.883 121.532 134.783 122.132C134.383 122.332 133.983 122.432 133.583 122.432Z" fill="#636268"/>
<path d="M170.884 152.732C167.084 149.032 161.984 149.732 161.984 149.732L161.884 148.732C162.084 148.732 167.584 147.932 171.684 152.032L170.884 152.732Z" fill="#636268"/>
<path d="M190.783 223.332C190.583 222.732 172.783 159.232 161.983 155.532L162.183 154.832C173.383 158.632 190.783 220.532 191.483 223.132L190.783 223.332Z" fill="white"/>
<path d="M138.784 132.332C138.784 132.332 140.784 130.732 142.184 127.932C145.284 121.432 141.284 114.232 139.784 114.632C138.284 115.032 136.084 127.232 132.584 129.732C129.084 132.232 129.784 132.532 131.384 135.432C132.984 138.232 138.984 133.332 138.784 132.332Z" fill="white"/>
<path d="M129.083 133.232C128.983 133.232 128.983 133.232 128.983 133.232L129.083 132.232C129.483 132.232 137.883 132.532 139.483 118.532L140.483 118.632C138.783 132.732 130.183 133.232 129.083 133.232Z" fill="#636268"/>
<path d="M143.083 153.232L142.483 152.432C142.883 152.132 151.183 146.132 158.983 145.332C164.483 144.832 171.083 147.832 173.583 152.232L172.683 152.732C170.383 148.732 164.083 145.832 158.983 146.332C151.583 147.132 143.183 153.232 143.083 153.232Z" fill="#636268"/>
<path d="M161.783 150.232C161.183 150.232 161.183 150.232 161.183 146.332H162.183C162.183 148.032 162.183 148.932 162.183 149.332H162.283C162.283 149.732 162.283 150.232 161.783 150.232Z" fill="#636268"/>
<path d="M115.783 157.132C115.783 157.032 111.083 146.232 102.283 140.332L102.883 139.532C111.883 145.532 116.683 156.632 116.683 156.732L115.783 157.132Z" fill="#636268"/>
<path d="M128.183 126.132L127.483 125.432C127.583 125.332 129.083 123.932 130.983 123.932C131.983 123.932 132.883 124.332 133.683 125.232L132.983 125.932C132.383 125.332 131.683 124.932 130.983 124.932C129.483 124.932 128.183 126.132 128.183 126.132Z" fill="#636268"/>
<path d="M123.983 124.732C125.364 124.732 126.483 123.613 126.483 122.232C126.483 120.851 125.364 119.732 123.983 119.732C122.603 119.732 121.483 120.851 121.483 122.232C121.483 123.613 122.603 124.732 123.983 124.732Z" fill="#EBE6E4"/>
<path d="M138.783 155.332C138.783 153.432 136.383 150.332 135.483 149.332L136.183 148.632C136.283 148.832 139.683 152.532 139.783 155.232L138.783 155.332Z" fill="#636268"/>
<path d="M118.983 115.632L118.083 115.232C118.983 113.232 121.483 112.732 124.383 112.232C126.383 111.832 128.584 111.432 130.584 110.432C135.184 108.132 135.183 103.132 135.183 103.032H136.183C136.183 103.232 136.184 108.732 131.084 111.332C128.984 112.432 126.583 112.832 124.583 113.232C121.783 113.732 119.683 114.132 118.983 115.632Z" fill="#636268"/>
<path d="M76.6835 136.732C76.0835 122.332 81.1835 119.332 89.5835 114.332C91.2835 113.332 93.1835 112.232 95.1835 110.832C101.283 106.832 102.383 103.532 103.383 100.432C104.283 97.7321 105.083 95.1321 109.183 92.5321C117.783 86.9321 125.283 91.8321 125.383 91.9321L124.783 92.7321C124.483 92.5321 117.783 88.1321 109.683 93.3321C105.883 95.7321 105.183 98.0321 104.283 100.732C103.283 103.832 102.083 107.432 95.6835 111.632C93.6835 112.932 91.6835 114.132 89.9835 115.132C81.5835 120.032 76.9835 122.732 77.5835 136.632L76.6835 136.732Z" fill="#636268"/>
<path d="M77.8834 156.732L77.7834 155.732C77.8834 155.732 89.0834 154.632 93.6834 150.432C95.3834 148.932 96.0834 146.532 96.8834 144.032C98.1834 139.832 99.5834 134.932 106.383 132.832C116.383 129.632 116.083 118.932 116.083 118.532H117.083C117.083 118.632 117.483 130.432 106.683 133.832C100.383 135.832 99.0834 140.132 97.7834 144.332C96.9834 146.932 96.2834 149.432 94.2834 151.232C89.4834 155.532 78.3834 156.632 77.8834 156.732Z" fill="#636268"/>
<path d="M153.084 202.132C153.084 202.132 136.084 248.132 88.3835 239.532C88.3835 239.532 105.884 248.732 119.884 245.432C147.284 238.932 156.884 213.532 156.884 213.532C156.784 211.632 153.084 202.132 153.084 202.132Z" fill="#636268"/>
<path d="M156.583 213.732C156.483 213.532 147.883 196.832 147.183 186.932L147.883 186.832C148.583 196.632 157.083 213.232 157.183 213.332L156.583 213.732Z" fill="white"/>
<path d="M92.7834 216.332L91.9834 215.732C92.0834 215.632 101.083 202.232 104.083 197.932C107.283 193.432 113.083 191.932 113.383 191.832L113.583 192.832C113.483 192.832 107.783 194.332 104.883 198.532C101.883 202.832 92.8834 216.232 92.7834 216.332Z" fill="#636268"/>
<path d="M104.183 126.532L104.083 125.832C107.983 125.132 114.584 118.032 116.784 110.732C119.984 100.232 132.184 99.4321 132.284 99.4321V100.132C132.184 100.132 120.483 100.832 117.483 110.832C115.183 118.632 108.283 125.832 104.183 126.532Z" fill="white"/>
<path d="M111.383 109.632L110.683 109.332C113.783 101.932 117.583 97.3321 121.983 95.9321C126.583 94.3321 130.583 96.6321 131.883 97.4321C132.083 97.5321 132.183 97.6321 132.283 97.6321L132.183 97.9321V98.0321L132.583 98.1321L132.383 98.4321C132.183 98.5321 131.983 98.4321 131.583 98.1321C130.183 97.3321 126.583 95.2321 122.283 96.7321C118.083 98.0321 114.383 102.432 111.383 109.632Z" fill="white"/>
<path d="M144.484 113.132L143.784 112.932C145.284 107.732 139.384 102.332 139.384 102.232L139.884 101.632C140.184 101.932 146.084 107.432 144.484 113.132Z" fill="white"/>
<path d="M465.983 270.332C465.983 270.332 472.183 313.832 466.883 314.432C461.583 315.032 451.983 274.732 451.983 274.732L465.983 270.332Z" fill="#636268"/>
<path d="M382.383 273.732C382.383 273.732 376.183 317.232 370.883 316.632C365.583 316.032 367.683 274.832 367.683 274.832L382.383 273.732Z" fill="#636268"/>
<path d="M409.483 144.732C409.483 144.732 447.583 143.532 464.883 156.332C482.183 169.132 480.083 270.132 472.383 281.432C464.683 292.732 354.283 297.132 347.983 281.432C341.683 265.732 361.883 233.732 370.283 223.632C378.783 213.432 387.683 140.532 409.483 144.732Z" fill="#EBE6E4"/>
<path d="M362.883 151.532C362.883 151.532 336.983 173.332 333.083 171.332C329.083 169.332 306.983 114.832 305.683 115.632C304.283 116.332 305.583 121.132 305.583 121.132C305.583 121.132 301.683 112.732 301.083 114.532C300.483 116.432 302.483 122.032 302.483 122.032C302.483 122.032 299.183 114.232 298.383 115.832C297.583 117.432 299.083 122.632 299.083 122.632C299.083 122.632 295.283 117.732 294.883 119.532C294.483 121.332 296.683 124.732 297.383 127.732C298.083 130.732 305.483 184.932 319.483 193.132C333.483 201.432 369.683 175.132 372.383 171.732C375.083 168.332 362.883 151.532 362.883 151.532Z" fill="white"/>
<path d="M304.483 127.832C303.683 127.032 303.383 126.232 303.483 125.332C303.683 123.432 305.683 122.132 305.783 122.032L306.383 122.932C306.383 122.932 304.683 124.132 304.583 125.432C304.483 126.032 304.783 126.532 305.283 127.032L304.483 127.832Z" fill="#636268"/>
<path d="M300.084 136.532C300.084 136.532 313.284 130.832 314.284 130.832C315.384 130.832 317.784 135.732 317.184 137.932C316.584 140.132 304.384 146.032 301.684 144.832C299.084 143.732 297.684 137.532 300.084 136.532Z" fill="#E57857"/>
<path d="M404.784 103.032C404.784 103.032 409.784 102.432 411.584 107.432C413.384 112.432 412.284 125.832 404.384 123.632C396.484 121.432 402.684 102.432 404.784 103.032Z" fill="#636268"/>
<path d="M389.183 232.732C389.183 232.732 504.383 238.132 424.383 263.832C404.683 270.132 354.583 267.632 346.783 263.832C339.083 260.032 298.383 242.632 389.183 232.732Z" fill="#5A6E71"/>
<path d="M299.183 143.632C299.183 143.632 313.583 133.932 317.783 136.232C322.083 138.532 332.283 165.032 332.283 165.032C334.183 164.832 367.483 132.432 383.283 138.932C386.883 140.432 381.683 166.932 377.883 169.332C373.983 171.732 336.883 210.432 322.283 202.432C316.983 199.632 296.183 145.432 299.183 143.632Z" fill="#E59889"/>
<path d="M405.183 116.832C405.183 116.832 404.983 137.032 405.783 137.832C407.183 139.232 416.183 139.032 419.883 142.732C423.583 146.432 402.183 154.332 391.683 153.632C384.683 153.232 377.583 138.732 382.583 138.732C387.583 138.732 390.783 137.432 390.683 133.832C390.583 130.232 390.583 126.932 390.583 126.932C390.583 126.932 404.483 117.332 405.183 116.832Z" fill="white"/>
<path d="M386.784 138.332C386.784 138.332 382.784 147.732 390.084 148.432C398.584 149.232 409.284 139.532 410.884 139.432C425.384 138.732 430.184 143.632 434.884 149.432C439.584 155.232 429.784 243.632 424.884 244.432C419.984 245.232 351.884 225.832 349.484 225.332C347.084 224.832 363.084 144.632 364.684 144.432C366.184 144.232 376.084 135.732 386.784 138.332Z" fill="#E59889"/>
<path d="M346.984 316.532C346.984 316.532 351.484 328.932 343.084 329.332C334.684 329.832 322.583 331.932 318.883 329.132C315.183 326.432 336.584 318.532 337.584 314.232C338.484 310.032 346.984 316.532 346.984 316.532Z" fill="#D4787D"/>
<path d="M306.983 289.232C306.983 289.232 304.783 302.932 297.083 299.632C289.383 296.332 276.083 294.132 273.983 290.032C271.883 285.932 295.983 287.132 298.783 283.632C301.483 280.232 306.983 289.232 306.983 289.232Z" fill="#D4787D"/>
<path d="M426.083 235.232C426.083 235.232 425.983 211.132 361.383 210.332C330.883 210.032 324.983 307.032 324.983 307.032C331.383 307.732 356.883 314.432 358.783 306.632C360.683 298.932 373.483 255.632 373.483 255.632C381.883 254.032 424.383 267.432 426.083 235.232Z" fill="#636268"/>
<path d="M391.684 208.332C391.684 208.332 394.584 194.832 400.084 194.632C405.584 194.432 418.184 197.932 420.284 195.532C422.384 193.132 407.884 140.732 413.484 139.932C424.784 138.432 431.484 143.732 437.284 152.832C444.484 164.332 448.084 211.132 441.184 219.132C434.984 226.232 391.684 214.432 391.684 208.332Z" fill="#E59889"/>
<path d="M411.583 196.632C408.383 196.632 401.483 195.332 399.983 195.032L400.183 194.032C404.383 194.832 411.483 195.932 412.583 195.532C414.383 194.832 413.483 183.932 412.783 176.032C412.183 169.232 411.683 162.832 412.283 160.232L413.283 160.432C412.683 162.932 413.283 169.232 413.783 175.932C414.883 188.132 415.283 195.532 412.983 196.432C412.683 196.632 412.183 196.632 411.583 196.632Z" fill="#636268"/>
<path d="M362.683 164.732L361.983 164.032C364.683 160.832 366.883 154.532 366.883 154.532L367.783 154.832C367.783 155.132 365.583 161.332 362.683 164.732Z" fill="#636268"/>
<path d="M346.757 158.913L344.425 210.861L387.682 212.803L390.014 160.855L346.757 158.913Z" fill="#E57857"/>
<path d="M395.184 211.132C395.184 211.132 364.884 190.532 344.384 197.032C319.384 204.932 294.384 273.932 294.384 273.932C307.984 284.732 314.084 293.132 319.284 287.332C341.484 262.932 367.484 220.032 370.184 223.632C372.884 227.232 396.084 223.532 395.184 211.132Z" fill="#636268"/>
<path d="M392.383 196.032C392.383 196.032 388.683 190.432 388.683 190.732C388.683 191.032 387.483 195.832 387.483 195.832C387.483 195.832 376.483 189.532 376.083 192.332C375.683 195.132 376.783 200.832 381.083 203.332C385.383 205.832 390.083 209.732 391.883 208.232C393.683 206.732 397.083 200.732 392.383 196.032Z" fill="white"/>
<path d="M403.484 99.6319C403.484 99.6319 388.384 94.3319 383.284 100.532C378.184 106.732 378.384 128.232 389.784 129.432C406.184 131.332 411.684 107.232 403.484 99.6319Z" fill="white"/>
<path d="M397.584 120.632C398.909 120.632 399.984 119.558 399.984 118.232C399.984 116.907 398.909 115.832 397.584 115.832C396.258 115.832 395.184 116.907 395.184 118.232C395.184 119.558 396.258 120.632 397.584 120.632Z" fill="#EBE6E4"/>
<path d="M383.713 112.182C383.896 111.487 383.611 110.81 383.077 110.67C382.543 110.529 381.962 110.977 381.779 111.672C381.596 112.366 381.88 113.043 382.414 113.184C382.948 113.325 383.53 112.876 383.713 112.182Z" fill="#636268"/>
<path d="M394.397 112.978C394.546 112.276 394.228 111.614 393.688 111.499C393.148 111.385 392.589 111.861 392.44 112.564C392.291 113.266 392.609 113.928 393.149 114.043C393.689 114.157 394.248 113.681 394.397 112.978Z" fill="#636268"/>
<path d="M381.184 95.5319C381.184 95.5319 378.683 101.132 383.883 103.132C390.083 105.532 397.783 99.6319 400.483 101.232C403.183 102.832 399.284 109.532 404.684 112.832C408.384 115.132 411.783 109.232 409.983 102.232C408.083 94.5319 401.284 94.8319 399.684 93.5319C398.084 92.2319 401.984 92.1319 400.684 90.2319C399.484 88.3319 387.484 84.1319 381.184 95.5319Z" fill="#636268"/>
<path d="M406.884 114.932C406.884 114.932 407.484 112.132 409.184 113.532C410.884 114.932 409.784 119.432 407.584 120.132C405.384 120.832 406.384 116.032 406.884 114.932Z" fill="#D4787D"/>
<path d="M383.883 123.832C385.283 123.132 383.283 119.832 388.483 118.832C397.683 117.132 393.683 123.432 398.383 124.332C403.083 125.232 406.583 108.532 402.883 105.432C401.283 104.132 410.883 104.032 406.283 119.632C405.983 120.632 409.383 134.532 390.083 135.232C386.483 135.332 381.983 131.832 380.683 129.132C378.383 124.432 379.883 116.432 380.383 115.432C380.283 115.432 381.683 124.832 383.883 123.832Z" fill="#636268"/>
<path d="M386.484 119.332C386.084 119.332 385.684 119.232 385.384 119.132C385.284 119.032 385.084 118.932 384.984 118.632C384.684 117.332 387.084 113.732 387.784 112.732L388.584 113.332C387.084 115.532 385.884 117.832 385.984 118.432C386.484 118.632 387.984 118.332 389.084 117.832L389.484 118.732C389.184 118.832 387.684 119.332 386.484 119.332Z" fill="#636268"/>
<path d="M388.983 122.832C387.983 122.832 387.083 122.332 387.083 122.232L387.483 121.632C387.483 121.632 388.483 122.332 389.583 122.032C390.283 121.832 390.983 121.132 391.383 120.032L392.083 120.332C391.483 121.632 390.783 122.432 389.783 122.732C389.483 122.832 389.283 122.832 388.983 122.832Z" fill="white"/>
<path d="M291.783 285.732C291.783 285.732 290.083 290.132 291.783 290.932C293.483 291.732 305.683 292.532 306.283 292.632C306.883 292.732 302.484 301.732 300.684 301.932C298.884 302.232 274.584 299.132 272.484 292.632C270.384 286.132 288.983 285.932 291.783 285.732Z" fill="#636268"/>
<path d="M330.383 320.132C330.383 320.132 332.383 325.732 333.883 325.832C335.383 325.932 348.083 322.332 348.083 322.332C348.083 322.332 348.383 331.732 346.383 332.732C344.383 333.732 319.283 337.432 314.083 334.332C308.983 331.232 330.383 320.132 330.383 320.132Z" fill="#636268"/>
<path d="M383.084 116.832C380.384 116.832 378.184 114.632 378.184 111.932C378.184 109.232 380.384 107.032 383.084 107.032C385.784 107.032 387.984 109.232 387.984 111.932C387.984 114.632 385.684 116.832 383.084 116.832ZM383.084 107.832C380.784 107.832 378.984 109.632 378.984 111.932C378.984 114.232 380.784 116.032 383.084 116.032C385.384 116.032 387.184 114.232 387.184 111.932C387.184 109.632 385.284 107.832 383.084 107.832Z" fill="#E59889"/>
<path d="M394.883 116.832C392.183 116.832 389.983 114.632 389.983 111.932C389.983 109.232 392.183 107.032 394.883 107.032C397.583 107.032 399.783 109.232 399.783 111.932C399.783 114.632 397.483 116.832 394.883 116.832ZM394.883 107.832C392.583 107.832 390.783 109.632 390.783 111.932C390.783 114.232 392.583 116.032 394.883 116.032C397.183 116.032 398.983 114.232 398.983 111.932C398.983 109.632 397.083 107.832 394.883 107.832Z" fill="#E59889"/>
<path d="M390.483 113.232C389.083 112.832 387.483 112.932 387.483 112.932V112.232C387.583 112.232 389.183 112.132 390.683 112.532L390.483 113.232Z" fill="#E59889"/>
<path d="M399.375 112.317L399.314 113.114L407.59 113.747L407.651 112.95L399.375 112.317Z" fill="#E59889"/>
<path d="M412.783 139.432C412.783 139.432 408.383 136.332 404.383 138.532C397.183 142.332 390.483 148.432 390.483 148.432C390.483 148.432 388.083 137.332 386.383 137.032C384.683 136.832 378.183 135.732 378.283 138.332C378.383 140.932 378.483 153.832 382.183 153.732C385.983 153.632 390.383 150.332 390.383 150.332C390.383 150.332 391.783 155.432 395.683 156.232C402.283 157.632 414.183 142.132 412.783 139.432Z" fill="#E57857"/>
<path d="M399.783 196.532C399.783 196.532 397.583 211.632 395.183 211.132C392.883 210.632 389.983 209.532 389.983 209.532C389.983 209.532 393.283 194.832 394.283 194.832C396.183 194.832 399.783 196.532 399.783 196.532Z" fill="#E57857"/>
<path d="M386.483 98.2319C386.183 95.9319 386.683 94.1319 387.883 92.7319C389.983 90.3319 393.583 90.2319 393.783 90.2319V91.0319C393.783 91.0319 390.383 91.1319 388.483 93.3319C387.383 94.5319 386.983 96.2319 387.283 98.2319H386.483Z" fill="white"/>
<path d="M388.083 98.9322C387.983 95.5322 392.483 93.1322 392.683 93.0322L392.983 93.7322C392.983 93.7322 388.783 96.0322 388.783 98.9322H388.083Z" fill="white"/>
<path d="M328.783 276.832L328.083 276.732C328.083 276.632 329.784 265.332 333.184 253.832C337.784 238.232 343.184 229.532 349.184 227.932C361.384 224.832 366.283 231.432 371.983 239.132C375.983 244.532 380.483 250.632 388.383 253.932L388.083 254.632C379.983 251.332 375.383 245.132 371.383 239.632C365.883 232.132 361.083 225.732 349.383 228.732C335.483 232.132 328.883 276.332 328.783 276.832Z" fill="white"/>
<path d="M386.084 279.032C386.084 279.032 380.084 229.132 396.284 222.832C403.584 220.032 452.184 209.632 457.784 217.532C463.384 225.432 464.884 276.032 457.784 278.932C450.584 281.932 386.084 279.032 386.084 279.032Z" fill="#EBE6E4"/>
<path d="M293.583 266.732C293.583 266.732 323.483 281.932 322.583 286.732C321.883 290.432 319.983 295.132 314.283 293.832C307.283 292.132 293.683 281.032 290.783 276.532C287.883 272.032 293.583 266.732 293.583 266.732Z" fill="#EBE6E4"/>
<path d="M323.684 304.932C323.684 304.932 357.684 304.732 358.884 306.632C360.784 309.832 359.284 317.332 355.584 317.032C349.284 316.432 330.884 316.832 325.084 316.232C319.684 315.632 323.684 304.932 323.684 304.932Z" fill="#EBE6E4"/>
<path d="M383.483 203.732L382.583 203.332C382.983 202.532 385.383 198.132 385.483 197.932L386.383 198.432C385.483 199.932 383.783 203.032 383.483 203.732Z" fill="#636268"/>
<path d="M384.683 200.232C382.883 198.732 376.783 193.632 376.783 193.632L377.383 192.832C377.383 192.832 383.483 197.932 385.283 199.432L384.683 200.232Z" fill="#636268"/>
<path d="M383.783 202.132C383.583 202.032 379.683 200.232 376.283 196.532L376.983 195.832C380.283 199.432 384.183 201.232 384.183 201.232L383.783 202.132Z" fill="#636268"/>
<path d="M201.483 16.6322C218.683 17.5322 220.283 44.7322 207.183 48.0322C202.183 49.2322 185.883 52.1322 183.383 35.6322C182.083 26.8322 188.683 15.9322 201.483 16.6322Z" fill="#E59889"/>
<path d="M204.083 38.8323C204.083 38.8323 203.983 34.0323 200.683 33.7323C197.383 33.4323 196.183 39.0323 196.983 40.0323C197.783 41.0323 199.683 35.9323 200.483 36.6323C201.383 37.4323 204.283 40.1323 204.083 38.8323Z" fill="#636268"/>
<path d="M188.183 29.8319C188.183 29.8319 188.283 34.6319 191.583 34.9319C194.883 35.2319 196.083 29.6319 195.283 28.6319C194.483 27.6319 192.583 32.7319 191.783 32.0319C190.883 31.2319 188.083 28.5319 188.183 29.8319Z" fill="#636268"/>
<path d="M204.383 29.0321C204.383 29.0321 204.483 33.8321 207.783 34.1321C211.083 34.4321 212.283 28.8321 211.483 27.8321C210.683 26.8321 208.783 31.9321 207.983 31.2321C207.083 30.4321 204.183 27.7321 204.383 29.0321Z" fill="#636268"/>
<path d="M190.983 35.5322C190.983 35.5322 190.783 45.0322 186.283 42.7322C181.783 40.4322 189.783 32.7322 190.983 35.5322Z" fill="#D2E7F1"/>
<path d="M210.583 34.5319C210.583 34.5319 210.283 44.0319 214.883 41.9319C219.483 39.8319 211.883 31.8319 210.583 34.5319Z" fill="#D2E7F1"/>
<path d="M257.183 0.0320678C274.383 0.932068 275.983 28.1321 262.883 31.4321C257.883 32.6321 241.583 35.5321 239.083 19.0321C237.783 10.2321 244.383 -0.667932 257.183 0.0320678Z" fill="#E59889"/>
<path d="M259.783 22.2322C259.783 22.2322 259.683 17.4322 256.383 17.1322C253.083 16.8322 251.883 22.4322 252.683 23.4322C253.483 24.4322 255.383 19.3322 256.183 20.0322C257.083 20.8322 259.983 23.5322 259.783 22.2322Z" fill="#636268"/>
<path d="M248.102 18.5204C249.533 18.4032 250.598 17.1479 250.481 15.7167C250.364 14.2855 249.109 13.2203 247.677 13.3376C246.246 13.4548 245.181 14.71 245.298 16.1412C245.415 17.5724 246.671 18.6376 248.102 18.5204Z" fill="#636268"/>
<path d="M263.209 17.9257C264.64 17.8084 265.705 16.5532 265.588 15.122C265.471 13.6908 264.215 12.6256 262.784 12.7428C261.353 12.86 260.288 14.1153 260.405 15.5465C260.522 16.9777 261.778 18.0429 263.209 17.9257Z" fill="#636268"/>
<path d="M319.283 11.9322C336.383 14.1322 335.883 41.3322 322.583 43.6322C317.583 44.5322 300.983 46.0322 299.783 29.5322C299.083 20.5322 306.483 10.2322 319.283 11.9322Z" fill="#E59889"/>
<path d="M308.707 29.6326C310.143 29.6232 311.299 28.4515 311.29 27.0155C311.28 25.5796 310.109 24.4232 308.673 24.4326C307.237 24.4421 306.08 25.6138 306.09 27.0497C306.099 28.4856 307.271 29.6421 308.707 29.6326Z" fill="#636268"/>
<path d="M323.908 30.1326C325.344 30.1232 326.5 28.9515 326.491 27.5155C326.481 26.0796 325.309 24.9232 323.873 24.9326C322.438 24.9421 321.281 26.1138 321.291 27.5497C321.3 28.9856 322.472 30.1421 323.908 30.1326Z" fill="#636268"/>
<path d="M313.883 36.132C313.883 36.132 311.383 33.632 311.983 32.232C312.583 30.732 314.483 35.032 316.483 34.532C318.483 34.032 319.583 31.332 320.183 31.832C320.783 32.332 319.483 39.032 313.883 36.132Z" fill="#636268"/>
<path d="M371.583 44.4323C387.883 50.1323 381.883 76.6323 368.383 76.1323C363.283 75.9323 346.783 74.1323 348.983 57.6323C350.083 48.8323 359.383 40.2323 371.583 44.4323Z" fill="#E59889"/>
<path d="M361.383 62.7319C361.383 62.7319 370.483 63.3319 369.783 64.6319C369.083 65.9319 367.083 69.5319 363.883 69.0319C360.883 68.5319 358.883 62.5319 361.383 62.7319Z" fill="#636268"/>
<path d="M355.984 57.9319C355.984 57.9319 357.684 52.4319 360.584 54.8319C362.284 56.2319 362.584 59.3319 361.384 59.1319C360.184 58.9319 359.584 55.8319 358.684 57.0319C357.484 58.6319 355.384 60.3319 355.984 57.9319Z" fill="#636268"/>
<path d="M370.383 60.1321C370.383 60.1321 372.283 54.6321 375.283 57.0321C376.983 58.4321 377.283 61.5321 376.083 61.3321C374.883 61.1321 374.583 58.2321 373.383 59.2321C372.083 60.3321 369.783 62.5321 370.383 60.1321Z" fill="#636268"/>
<path d="M156.783 52.332C174.083 52.332 177.083 79.332 164.183 83.332C159.283 84.832 143.083 88.532 139.783 72.232C137.883 63.532 143.883 52.332 156.783 52.332Z" fill="#E59889"/>
<path d="M160.183 75.8319C160.183 75.8319 160.383 71.0319 157.183 70.6319C153.983 70.2319 152.483 75.5319 153.283 76.6319C154.083 77.7319 156.183 72.7319 156.883 73.5319C157.583 74.3319 160.183 77.1319 160.183 75.8319Z" fill="#636268"/>
<path d="M153.483 65.0321C153.483 65.0321 148.783 59.8321 147.683 59.9321C146.583 59.9321 147.683 63.0321 147.683 63.0321C147.683 63.0321 144.583 62.1321 144.583 63.3321C144.683 63.6321 155.183 68.8321 153.483 65.0321Z" fill="#636268"/>
<path d="M158.183 65.4322C158.183 65.4322 162.683 60.0322 163.683 60.0322C164.683 60.0322 163.783 63.1322 163.783 63.1322C163.783 63.1322 166.883 62.0322 166.883 63.3322C167.083 63.7322 156.783 69.3322 158.183 65.4322Z" fill="#636268"/>
<path d="M148.841 71.53C150.276 71.4959 151.413 70.3492 151.381 68.9689C151.348 67.5886 150.158 66.4974 148.722 66.5315C147.287 66.5656 146.149 67.7122 146.182 69.0925C146.215 70.4728 147.405 71.5641 148.841 71.53Z" fill="#636268"/>
<path d="M163.74 71.7302C165.176 71.696 166.313 70.5494 166.28 69.1691C166.247 67.7888 165.057 66.6975 163.622 66.7317C162.186 66.7658 161.049 67.9124 161.082 69.2927C161.115 70.673 162.305 71.7643 163.74 71.7302Z" fill="#636268"/>
</svg>
