<svg width="324" height="400" viewBox="0 0 324 400" fill="none" xmlns="http://www.w3.org/2000/svg">
<path d="M128.043 20.4479C131.159 1.93345 159.672 -6.42703 159.121 5.65841L289.775 6.43099C298.82 6.48618 306.155 14.6259 306.182 24.6419L306.458 368.47C306.458 378.845 299.013 387.316 289.775 387.398L156.391 388.53C155.564 390.268 154.019 391.841 151.565 393.165C136.26 393.496 128.925 385.936 126.25 377.382C125.368 375.092 124.899 372.554 124.927 369.877C125.451 365.407 127.078 24.7799 128.043 20.4479Z" fill="#E59889"/>
<path d="M152.999 393.22L306.1 392.227C315.641 392.172 323.39 383.453 323.362 372.802L322.783 19.2062C322.756 8.91428 315.172 0.581392 305.796 0.526207L155.674 0.0295483C146.243 0.00195597 138.522 8.33484 138.439 18.682L135.709 373.906C135.626 384.611 143.348 393.275 152.999 393.22Z" fill="white"/>
<path d="M150.876 390.627C151.51 390.709 152.172 390.765 152.806 390.737L305.852 389.578C314.069 389.523 320.77 381.88 320.77 372.581L320.246 19.3718C320.246 10.4043 313.628 3.06475 305.576 3.03715L155.453 2.37494C155.205 2.37494 154.984 2.37494 154.736 2.40253C150.958 2.56809 147.429 4.3064 144.781 7.25878C142.079 10.2663 140.59 14.2672 140.562 18.5165L137.887 374.099C137.832 382.515 143.375 389.633 150.876 390.627Z" fill="#636268"/>
<path d="M145.829 20.2823L143.265 374.651L315.668 373.602L315.227 20.2823H145.829Z" fill="#E59889"/>
<path d="M205.283 201.592H247.887C251.5 201.592 254.45 198.639 254.45 195.025C254.45 191.41 251.5 188.458 247.887 188.458H205.283C201.67 188.458 198.72 191.41 198.72 195.025C198.72 198.639 201.67 201.592 205.283 201.592Z" fill="#636268"/>
<path d="M172.854 152.891H283.046C286.659 152.891 289.609 149.939 289.609 146.324C289.609 142.71 286.659 139.757 283.046 139.757H172.854C169.241 139.757 166.291 142.71 166.291 146.324C166.318 149.939 169.269 152.891 172.854 152.891Z" fill="white"/>
<path d="M172.854 174.027H283.046C286.659 174.027 289.609 171.074 289.609 167.46C289.609 163.845 286.659 160.893 283.046 160.893H172.854C169.241 160.893 166.291 163.845 166.291 167.46C166.318 171.074 169.269 174.027 172.854 174.027Z" fill="white"/>
<path d="M264.791 170.357C266.07 170.357 267.108 169.319 267.108 168.039C267.108 166.759 266.07 165.721 264.791 165.721C263.512 165.721 262.475 166.759 262.475 168.039C262.475 169.319 263.512 170.357 264.791 170.357Z" fill="#E59889"/>
<path d="M256.877 170.357C258.156 170.357 259.193 169.319 259.193 168.039C259.193 166.759 258.156 165.721 256.877 165.721C255.598 165.721 254.561 166.759 254.561 168.039C254.561 169.319 255.598 170.357 256.877 170.357Z" fill="#E59889"/>
<path d="M248.963 170.357C250.242 170.357 251.279 169.319 251.279 168.039C251.279 166.759 250.242 165.721 248.963 165.721C247.683 165.721 246.646 166.759 246.646 168.039C246.646 169.319 247.683 170.357 248.963 170.357Z" fill="#E59889"/>
<path d="M241.048 170.357C242.328 170.357 243.365 169.319 243.365 168.039C243.365 166.759 242.328 165.721 241.048 165.721C239.769 165.721 238.732 166.759 238.732 168.039C238.732 169.319 239.769 170.357 241.048 170.357Z" fill="#E59889"/>
<path d="M233.134 170.357C234.413 170.357 235.451 169.319 235.451 168.039C235.451 166.759 234.413 165.721 233.134 165.721C231.855 165.721 230.818 166.759 230.818 168.039C230.818 169.319 231.855 170.357 233.134 170.357Z" fill="#E59889"/>
<path d="M225.22 170.357C226.499 170.357 227.536 169.319 227.536 168.039C227.536 166.759 226.499 165.721 225.22 165.721C223.941 165.721 222.904 166.759 222.904 168.039C222.904 169.319 223.941 170.357 225.22 170.357Z" fill="#E59889"/>
<path d="M217.306 170.357C218.585 170.357 219.622 169.319 219.622 168.039C219.622 166.759 218.585 165.721 217.306 165.721C216.026 165.721 214.989 166.759 214.989 168.039C214.989 169.319 216.026 170.357 217.306 170.357Z" fill="#E59889"/>
<path d="M209.391 170.357C210.671 170.357 211.708 169.319 211.708 168.039C211.708 166.759 210.671 165.721 209.391 165.721C208.112 165.721 207.075 166.759 207.075 168.039C207.075 169.319 208.112 170.357 209.391 170.357Z" fill="#E59889"/>
<path d="M201.477 170.357C202.756 170.357 203.794 169.319 203.794 168.039C203.794 166.759 202.756 165.721 201.477 165.721C200.198 165.721 199.161 166.759 199.161 168.039C199.161 169.319 200.198 170.357 201.477 170.357Z" fill="#E59889"/>
<path d="M245.839 114.007C255.735 104.104 255.735 88.049 245.839 78.1464C235.942 68.2439 219.897 68.2439 210 78.1464C200.103 88.049 200.103 104.104 210 114.007C219.897 123.909 235.942 123.909 245.839 114.007Z" fill="white"/>
<path d="M227.895 95.0576C225.413 95.0576 223.152 93.8435 221.69 92.0224C220.615 90.698 219.98 88.9872 219.98 87.0834C219.98 82.6962 223.538 79.0816 227.895 79.0816C232.334 79.0816 235.892 82.6962 235.892 87.0834C235.892 88.9872 235.257 90.698 234.182 92.0224C232.693 93.8435 230.432 95.0576 227.895 95.0576Z" fill="#E59889"/>
<path d="M213.831 109.295C213.831 114.345 241.986 114.345 241.986 109.295V103.418C240.883 95.3886 216.12 95.0299 213.831 103.418V109.295Z" fill="#E59889"/>
<path d="M277.173 166.246V170.909C277.173 171.709 283.129 171.709 283.129 170.909V166.246H282.743V165.887C282.743 164.452 281.585 163.293 280.151 163.293C278.717 163.293 277.559 164.452 277.559 165.887V166.246H277.173ZM281.833 166.246H278.496V165.887C278.496 164.949 279.075 164.176 280.178 164.176C281.282 164.176 281.833 164.977 281.833 165.887V166.246ZM279.351 167.901C279.351 167.46 279.737 167.074 280.178 167.074C280.62 167.074 281.006 167.46 281.006 167.901C281.006 168.205 280.84 168.453 280.592 168.591V169.943C280.592 170.191 280.427 170.357 280.178 170.357C279.93 170.357 279.737 170.191 279.737 169.943V168.591C279.517 168.453 279.351 168.232 279.351 167.901Z" fill="#4D4D4D"/>
<path d="M280.151 145.855C279.627 145.855 279.158 145.607 278.827 145.22C278.607 144.945 278.469 144.586 278.469 144.172C278.469 143.261 279.213 142.489 280.151 142.489C281.089 142.489 281.833 143.261 281.833 144.172C281.833 144.586 281.695 144.945 281.475 145.22C281.171 145.607 280.703 145.855 280.151 145.855Z" fill="#4D4D4D"/>
<path d="M277.2 148.863C277.2 149.939 283.184 149.939 283.184 148.863L283.157 147.621C282.909 145.938 277.697 145.855 277.228 147.621L277.2 148.863Z" fill="#4D4D4D"/>
<path d="M241.573 148.256H265.729C266.777 148.256 267.659 147.4 267.659 146.324C267.659 145.276 266.804 144.393 265.729 144.393H241.573C240.525 144.393 239.642 145.248 239.642 146.324C239.642 147.4 240.497 148.256 241.573 148.256Z" fill="#E59889"/>
<path d="M209.722 148.256H233.879C234.927 148.256 235.809 147.4 235.809 146.324C235.809 145.276 234.954 144.393 233.879 144.393H209.722C208.675 144.393 207.792 145.248 207.792 146.324C207.792 147.4 208.647 148.256 209.722 148.256Z" fill="#E59889"/>
<path d="M260.627 272.669V321.591C260.627 327.026 189.647 327.026 189.647 321.591V272.669H260.627Z" fill="white"/>
<path d="M225.137 299.379C229.98 299.379 233.906 295.697 233.906 291.156C233.906 286.615 229.98 282.934 225.137 282.934C220.294 282.934 216.368 286.615 216.368 291.156C216.368 295.697 220.294 299.379 225.137 299.379Z" fill="#E59889"/>
<path d="M225.027 315.879H225.247C227.178 315.879 228.722 314.334 228.722 312.402V293.667H221.552V312.402C221.552 314.334 223.097 315.879 225.027 315.879Z" fill="#E59889"/>
<path d="M195.879 269.193H203.049V265.909C203.049 254.486 212.949 245.215 225.137 245.215C237.326 245.215 247.225 254.514 247.225 265.909V269.193H254.395V265.909C254.395 250.789 241.269 238.483 225.137 238.483C209.005 238.483 195.879 250.789 195.879 265.909V269.193Z" fill="white"/>
<path d="M89.9332 170.936C71.7883 190.389 42.8613 206.31 11.8937 213.098C11.8937 215.167 11.8386 226.645 11.5904 279.485C11.287 349.983 78.3237 384.446 88.7474 389.716C98.8401 385.081 166.732 350.673 167.063 280.175C167.311 227.335 167.338 215.857 167.366 213.787C136.426 206.751 107.885 190.555 89.9332 170.936Z" fill="white"/>
<path d="M89.9616 160.653C70.1109 181.934 38.4645 199.351 4.58556 206.777C4.58556 209.041 4.52523 221.599 4.25372 279.406C3.92187 356.532 77.2608 394.234 88.6644 400C99.706 394.929 173.98 357.286 174.342 280.16C174.614 222.353 174.644 209.796 174.674 207.532C140.825 199.834 109.601 182.115 89.9616 160.653Z" fill="#D4487D"/>
<path d="M89.7677 178.607C71.0714 195.77 45.1777 209.262 16.6919 216.602L16.4162 279.485C16.2783 308.264 27.7222 334.283 50.362 356.854C65.2529 371.671 80.9159 380.887 88.8577 384.998C89.1886 384.832 89.5747 384.639 89.9332 384.446V178.745C89.878 178.69 89.8229 178.635 89.7677 178.607Z" fill="#E59889"/>
<path d="M89.9332 178.745V384.446C98.206 380.142 113.207 371.257 127.574 357.185C150.434 334.835 162.099 308.898 162.209 280.119L162.485 217.236C134.165 209.676 108.464 195.99 89.9332 178.745Z" fill="#E57857"/>
<path d="M147.015 241.766C125.34 245.105 95.8067 264.888 77.1655 288.7C74.5458 277.47 62.8261 267.234 56.6767 264.999L38.0906 283.706C49.7 288.949 62.3849 303.766 64.067 318.969L82.6531 321.839C90.4846 306.36 110.698 269.331 150.931 249.437C150.159 246.401 147.318 242.207 147.015 241.766Z" fill="white"/>
</svg>
