<?xml version="1.0" encoding="UTF-8" standalone="no"?>
<svg
   xmlns:dc="http://purl.org/dc/elements/1.1/"
   xmlns:cc="http://creativecommons.org/ns#"
   xmlns:rdf="http://www.w3.org/1999/02/22-rdf-syntax-ns#"
   xmlns:svg="http://www.w3.org/2000/svg"
   xmlns="http://www.w3.org/2000/svg"
   viewBox="0 0 2568.8132 1294.7867"
   height="1294.7867"
   width="2568.8132"
   xml:space="preserve"
   id="svg2"
   version="1.1"><metadata
     id="metadata8"><rdf:RDF><cc:Work
         rdf:about=""><dc:format>image/svg+xml</dc:format><dc:type
           rdf:resource="http://purl.org/dc/dcmitype/StillImage" /></cc:Work></rdf:RDF></metadata><defs
     id="defs6" /><g
     transform="matrix(1.3333333,0,0,-1.3333333,0,1294.7867)"
     id="g10"><g
       transform="scale(0.1)"
       id="g12"><path
         id="path14"
         style="fill:#e6683d;fill-opacity:1;fill-rule:nonzero;stroke:none"
         d="M 4787.92,3913.65 V 935.313 H 4235.87 V 3482.64 H 3718.32 L 3601.87,2293.02 c -31.67,-353.43 -74.8,-619.99 -129.38,-799.53 -54.66,-179.62 -127.24,-311.82 -217.8,-396.54 -90.57,-84.79 -222.12,-158.798 -394.63,-221.977 l -133.7,400.847 c 77.62,40.21 136.53,89.77 176.82,148.7 40.24,58.86 74,155.17 101.36,288.78 27.29,133.62 53.91,338.35 79.78,614.2 l 150.96,1586.15 h 1552.64" /><path
         id="path16"
         style="fill:#e6683d;fill-opacity:1;fill-rule:nonzero;stroke:none"
         d="m 6228.4,1538.74 v 478.43 h -125.07 c -146.64,0 -253.79,-33.07 -321.32,-99.13 -67.59,-66.13 -101.35,-168.1 -101.35,-306.03 0,-117.86 20.08,-206.88 60.38,-267.22 40.24,-60.35 97.72,-90.52 172.52,-90.52 138.01,0 242.93,94.82 314.84,284.47 z m 547.74,-217.66 c 20.08,-35.97 53.17,-65.39 99.2,-88.36 L 6767.51,879.281 c -117.93,14.41 -212.07,46 -282.49,94.821 -70.49,48.828 -122.92,123.518 -157.42,224.128 -132.29,-218.398 -317.74,-327.558 -556.37,-327.558 -189.77,0 -340.71,63.969 -452.85,191.788 -112.14,127.83 -168.21,298.08 -168.21,510.76 0,247.09 76.9,435.33 230.75,564.63 153.78,129.31 377.37,193.97 670.65,193.97 h 176.83 v 159.47 c 0,143.65 -25.21,244.94 -75.47,303.87 -50.34,58.87 -131.54,88.36 -243.68,88.36 -135.19,0 -303.39,-37.38 -504.61,-112.06 l -120.76,344.81 c 114.96,51.72 234.3,91.18 357.96,118.53 123.6,27.27 241.53,40.94 353.67,40.94 500.29,0 750.44,-252.88 750.44,-758.59 V 1487.01 c 0,-74.74 10.04,-130.04 30.19,-165.93" /><path
         id="path18"
         style="fill:#e6683d;fill-opacity:1;fill-rule:nonzero;stroke:none"
         d="m 9503.98,3898.57 c 116.46,-50.31 229.26,-127.15 338.57,-230.6 l -263.09,-314.64 c -74.8,68.97 -147.38,119.94 -217.8,153.01 -70.49,33 -147.37,49.57 -230.74,49.57 -172.51,0 -307.7,-86.2 -405.41,-258.61 -97.79,-172.42 -146.64,-461.19 -146.64,-866.35 0,-399.43 48.85,-686.07 146.64,-859.88 97.71,-173.89 235.73,-260.77 414.04,-260.77 89.08,0 166.72,17.91 232.89,53.88 66.11,35.89 143.74,91.18 232.9,165.94 l 263.09,-301.71 c -92.05,-103.45 -202.71,-188.97 -332.09,-256.461 -129.4,-67.488 -274.61,-101.277 -435.61,-101.277 -336.41,0 -603.81,130.708 -802.2,392.218 -198.39,261.44 -297.59,650.83 -297.59,1168.06 0,341.92 47.44,627.8 142.33,857.72 94.88,229.86 224.94,401.53 390.31,515.07 165.31,113.48 354.34,170.26 567.15,170.26 152.36,0 286.81,-25.19 403.25,-75.43" /><path
         id="path20"
         style="fill:#e6683d;fill-opacity:1;fill-rule:nonzero;stroke:none"
         d="m 11382.3,3215.4 -64.7,-405.15 H 10800 V 935.313 h -530.5 V 2810.25 h -556.34 v 405.15 h 1669.14" /><path
         id="path22"
         style="fill:#e6683d;fill-opacity:1;fill-rule:nonzero;stroke:none"
         d="m 12714.9,1463.31 c 57.5,125 86.3,329.73 86.3,614.2 0,298.82 -24.5,507.12 -73.3,624.98 -49,117.8 -125.1,176.72 -228.6,176.72 -132.3,0 -250.2,-94.82 -353.7,-284.47 V 1491.33 c 92,-143.72 198.4,-215.51 319.2,-215.51 109.2,0 192.6,62.49 250.1,187.49 z m 461.5,1504.26 c 115,-205.48 172.5,-500.72 172.5,-885.74 0,-373.58 -65.4,-668.83 -196.2,-885.75 -130.9,-216.99 -312.7,-325.408 -545.6,-325.408 -184.1,0 -337.9,81.879 -461.5,245.668 V 60.3398 L 11615.1,0 v 3215.4 h 470.1 l 21.6,-275.85 c 74.7,114.9 158.1,199.68 250.1,254.3 92,54.55 195.5,81.89 310.6,81.89 224.2,0 393.9,-102.77 508.9,-308.17" /><path
         id="path24"
         style="fill:#e6683d;fill-opacity:1;fill-rule:nonzero;stroke:none"
         d="m 14651.4,1538.74 v 478.43 h -125.1 c -146.6,0 -253.8,-33.07 -321.3,-99.13 -67.6,-66.13 -101.4,-168.1 -101.4,-306.03 0,-117.86 20.1,-206.88 60.4,-267.22 40.2,-60.35 97.7,-90.52 172.5,-90.52 138,0 243,94.82 314.9,284.47 z m 547.7,-217.66 c 20.1,-35.97 53.2,-65.39 99.2,-88.36 l -107.8,-353.439 c -118,14.41 -212.1,46 -282.5,94.821 -70.5,48.828 -122.9,123.518 -157.4,224.128 -132.3,-218.398 -317.8,-327.558 -556.4,-327.558 -189.8,0 -340.7,63.969 -452.9,191.788 -112.1,127.83 -168.2,298.08 -168.2,510.76 0,247.09 76.9,435.33 230.8,564.63 153.8,129.31 377.4,193.97 670.6,193.97 h 176.9 v 159.47 c 0,143.65 -25.2,244.94 -75.5,303.87 -50.3,58.87 -131.5,88.36 -243.7,88.36 -135.2,0 -303.4,-37.38 -504.6,-112.06 l -120.8,344.81 c 115,51.72 234.4,91.18 358,118.53 123.6,27.27 241.5,40.94 353.7,40.94 500.3,0 750.4,-252.88 750.4,-758.59 V 1487.01 c 0,-74.74 10.1,-130.04 30.2,-165.93" /><g
         transform="scale(1.06396)"
         id="g26"><path
           id="path28"
           style="fill:#e6683d;fill-opacity:1;fill-rule:nonzero;stroke:none"
           d="M 15651.4,2669.66 H 15319 l -28.3,-494.24 c -19,-280.91 -50.1,-484.8 -93.3,-611.71 -43.2,-126.98 -114.9,-228.25 -214.8,-303.82 h 668.8 z M 16300,1259.89 V 243.073 h -344.6 l -56.7,636.01 h -1009.4 l -56.7,-636.01 H 14488 V 1259.89 h 125.7 c 43.2,37.79 77.7,82.35 103.3,133.68 25.7,51.27 48.7,135.02 68.9,251.17 20.3,116.08 37.2,280.85 50.7,494.23 l 52.7,883.13 h 1228.3 V 1259.89 h 182.4" /></g><g
         transform="scale(1.18196)"
         id="g30"><path
           id="path32"
           style="fill:#e6683d;fill-opacity:1;fill-rule:nonzero;stroke:none"
           d="m 15752.8,1301.85 v 404.78 h -105.9 c -124,0 -214.7,-27.98 -271.8,-83.87 -57.2,-55.95 -85.8,-142.22 -85.8,-258.92 0,-99.71 17,-175.03 51.1,-226.08 34,-51.06 82.7,-76.59 146,-76.59 116.7,0 205.5,80.23 266.4,240.68 z m 463.4,-184.15 c 17,-30.43 45,-55.32 83.9,-74.76 l -91.2,-299.024 c -99.8,12.192 -179.5,38.918 -239,80.223 -59.7,41.311 -104,104.503 -133.2,189.621 -111.9,-184.773 -268.9,-277.128 -470.7,-277.128 -160.6,0 -288.3,54.121 -383.2,162.263 -94.9,108.145 -142.3,252.185 -142.3,432.135 0,209.05 65,368.3 195.2,477.7 130.2,109.4 319.3,164.11 567.4,164.11 h 149.7 v 134.92 c 0,121.53 -21.3,207.23 -63.9,257.09 -42.6,49.8 -111.3,74.75 -206.2,74.75 -114.4,0 -256.7,-31.62 -426.9,-94.81 l -102.2,291.73 c 97.3,43.76 198.3,77.14 302.9,100.28 104.6,23.07 204.3,34.64 299.2,34.64 423.3,0 634.9,-213.95 634.9,-641.8 v -871.55 c 0,-63.24 8.6,-110.02 25.6,-140.39" /></g><path
         id="path34"
         style="fill:#e6683d;fill-opacity:1;fill-rule:nonzero;stroke:none"
         d="m 11291.5,4464.68 c -39.7,-114.77 -82.7,-205.28 -129.2,-271.54 -46.6,-66.31 -103,-116.76 -169.3,-151.36 -66.3,-34.64 -151,-59.82 -253.9,-75.67 l -35.6,183.99 c 95,21.75 166.3,53.89 213.8,96.45 47.5,42.52 89.1,112.26 124.7,209.22 h -89.1 l -448.4,1216.75 h 264.3 l 350.4,-1062.43 329.6,1062.43 h 258.4 l -415.7,-1207.84" /><path
         id="path36"
         style="fill:#e6683d;fill-opacity:1;fill-rule:nonzero;stroke:none"
         d="m 13013.8,5672.52 -493,-786.43 531.6,-887.34 h -279.1 l -457.4,780.5 h -145.5 v -780.5 h -261.3 v 1673.77 h 261.3 v -691.47 h 145.5 l 439.5,691.47 h 258.4" /><path
         id="path38"
         style="fill:#e6683d;fill-opacity:1;fill-rule:nonzero;stroke:none"
         d="m 13959.6,4880.15 c 56.4,49.43 84.6,138.46 84.6,267.09 0,114.71 -28.7,197.35 -86.1,247.8 -57.5,50.45 -144.6,75.67 -261.3,75.67 h -127.7 v -664.75 h 127.7 c 118.7,0 206.3,24.72 262.8,74.19 z m 194.5,660.31 c 104.9,-88.06 157.3,-219.15 157.3,-393.22 0,-182.05 -52.9,-318.05 -158.8,-408.06 -106,-90.05 -252,-135.03 -438,-135.03 h -145.5 v -605.4 h -261.4 v 1673.77 h 392 c 198,0 349.4,-44.05 454.4,-132.06" /><path
         id="path40"
         style="fill:#e6683d;fill-opacity:1;fill-rule:nonzero;stroke:none"
         d="m 14670.8,4616.03 h 409.8 l -204.9,845.78 z m 558.2,-617.28 -100.9,412.51 h -504.9 l -100.9,-412.51 h -258.4 l 457.3,1673.77 h 317.8 l 454.3,-1673.77 H 15229" /><g
         transform="scale(1.00061)"
         id="g42"><path
           id="path44"
           style="fill:#e6683d;fill-opacity:1;fill-rule:nonzero;stroke:none"
           d="m 16255.5,6306.74 c 29.7,-31.65 44.5,-70.22 44.5,-115.67 0,-45.51 -14.8,-84.07 -44.5,-115.68 -29.7,-31.65 -67.2,-47.45 -112.8,-47.45 -43.5,0 -80.6,15.8 -111.2,47.45 -30.7,31.61 -46,70.17 -46,115.68 0,45.45 15.3,84.02 46,115.67 30.6,31.6 67.7,47.45 111.2,47.45 45.6,0 83.1,-15.85 112.8,-47.45 z m -261.1,-637.66 V 3996.32 h -261.3 v 1672.76 z m -258.3,637.66 c 29.7,-31.65 44.6,-70.22 44.6,-115.67 0,-45.51 -14.9,-84.07 -44.6,-115.68 -29.6,-31.65 -67.2,-47.45 -112.7,-47.45 -45.6,0 -83.1,15.8 -112.8,47.45 -29.7,31.61 -44.5,70.17 -44.5,115.68 0,45.45 14.8,84.02 44.5,115.67 29.7,31.6 67.2,47.45 112.8,47.45 45.5,0 83.1,-15.85 112.7,-47.45" /></g><g
         transform="scale(1.07475)"
         id="g46"><path
           id="path48"
           style="fill:#e6683d;fill-opacity:1;fill-rule:nonzero;stroke:none"
           d="M 16300,5277.97 V 3720.62 h -243.1 v 717.92 H 15554 v -717.92 h -243.2 v 1557.35 h 243.2 v -640.61 h 502.9 v 640.61 h 243.1" /></g><g
         transform="scale(1.16548)"
         id="g50"><path
           id="path52"
           style="fill:#e6683d;fill-opacity:1;fill-rule:nonzero;stroke:none"
           d="m 15594.3,3960.63 h 351.5 l -175.8,725.7 z m 478.9,-529.64 -86.5,353.95 h -433.3 l -86.5,-353.95 h -221.7 l 392.3,1436.13 h 272.7 L 16300,3430.99 h -226.8" /></g><path
         id="path54"
         style="fill:#e6683e;fill-opacity:1;fill-rule:nonzero;stroke:none"
         d="m 2895.07,8008.61 c -99.79,-4.75 -149.65,-33.01 -208.81,-94.67 -114.83,-119.69 -133.94,-264.91 -50.42,-419.07 86.97,-160.48 237.89,-244.36 388.56,-221.7 70.55,10.6 89.9,39.55 78.88,112.07 -22.79,150.1 -43.03,301.73 -47,453.19 -3.03,115.96 -37.66,165.43 -161.21,170.18 z m 776.73,-601.45 c -0.94,-10.95 12.08,-17.25 20.14,-9.79 90.33,83.54 172,139.06 221.87,228.8 107.01,192.61 132.58,469.88 66.55,672.3 -88.4,271.04 -246.88,482.61 -469.86,638.33 -281.22,196.41 -598.01,275.61 -997.17,209.08 -640.08,-106.68 -1077.08,-666.84 -988.71,-1394.53 62.5,-514.65 424.29,-1044.62 901.67,-1396.82 49.41,-36.44 80.67,-51.81 131.6,-5.84 68.88,62.16 143.38,118.48 218.51,173.15 42.04,30.59 37.39,54.88 19.68,101.04 -113.79,123.85 -275.16,242.93 -403.87,380.91 -480.78,515.38 -433.25,772.08 -419,933.55 14.25,161.56 117.96,460.48 418.16,579.71 244.66,92.92 468.78,115 714.8,57.02 370.39,-87.27 623.66,-490.66 592.14,-856.65 -8.21,-95.27 -16.3,-190.55 -26.51,-310.26 z m -15.36,-956.81 c -47.16,-44.01 -7.76,-122.24 55.72,-110.71 254.19,46.22 664.06,206.75 987.58,943.91 144.13,336.59 355.31,1043.47 412.69,1209.33 6.85,19.8 28.51,30.22 48.27,23.26 84.9,-29.84 330.76,-124.79 424.74,-152.52 35.6,-10.5 48.27,-27.13 38.14,-61.19 C 5447.57,7644.36 5283.8,6998.95 4892.43,6434.16 4642.16,6073.03 4443.23,5902.55 4077.91,5787.91 3699.59,5669.2 3306.35,5594.39 2912,5578.56 2774.09,5573.02 2696.43,5520.21 2621.2,5406.1 2270.46,4874.18 1931.94,4332.78 1686.43,3745.91 1132.13,2436.28 852.59,1123.41 834.707,994.609 826.879,938.223 831.434,937.371 777.332,936.531 526.008,932.59 289.203,939.66 66.5078,937.84 -3.6875,934.832 -10.4297,952.73 10.2617,996.691 257.816,1708.97 393.348,2114.92 601.359,2655.09 852.762,3307.92 1380.71,4565.73 1903.59,5459.1 c 63.88,109.14 124.8,220.18 193.02,326.54 35.6,55.48 43.87,102.96 -9.99,144.98 -206.86,161.41 -469.98,401.54 -599.68,592.24 -250.84,368.83 -401.88,621.91 -478.12,1046.6 -212.484,1183.6 693.54,2026.27 1472.84,2121.31 713.1,86.96 1309.57,-104.31 1753.43,-651.01 202.4,-249.31 380.53,-550.93 337.37,-1031.15 -29.5,-328.28 -114.04,-560.72 -308.86,-874.34 -164.47,-264.74 -292.03,-389.87 -607.16,-683.92" /></g></g></svg>