<svg width="22" height="22" viewBox="0 0 22 22" fill="none" xmlns="http://www.w3.org/2000/svg">
<path d="M11 0C8.82441 0 6.69767 0.645139 4.88873 1.85383C3.07979 3.06253 1.66989 4.78049 0.83733 6.79048C0.00476615 8.80047 -0.213071 11.0122 0.211367 13.146C0.635804 15.2798 1.68345 17.2398 3.22183 18.7782C4.76021 20.3165 6.72022 21.3642 8.85401 21.7886C10.9878 22.2131 13.1995 21.9952 15.2095 21.1627C17.2195 20.3301 18.9375 18.9202 20.1462 17.1113C21.3549 15.3023 22 13.1756 22 11C22 8.08262 20.8411 5.28472 18.7782 3.22182C16.7153 1.15892 13.9174 0 11 0ZM13.4713 20.2058C14.2878 18.9053 14.9209 16.9767 15.2558 14.7009H19.7853C19.2192 16.0372 18.3565 17.2272 17.2626 18.1809C16.1688 19.1346 14.8723 19.827 13.4713 20.2058ZM2.22689 14.7009H6.74423C7.07911 16.9767 7.722 18.9053 8.52867 20.2058C7.12771 19.827 5.83125 19.1346 4.73737 18.1809C3.64348 17.2272 2.78083 16.0372 2.21467 14.7009H2.22689ZM8.54089 1.79422C7.80756 2.96755 7.216 4.65178 6.864 6.64155H2.52512C3.13469 5.46123 3.98326 4.42071 5.01684 3.58618C6.05043 2.75165 7.2464 2.14139 8.52867 1.79422H8.54089ZM19.4749 6.64155H15.1556C14.8036 4.65178 14.2144 2.97489 13.4787 1.79422C14.7596 2.1423 15.9541 2.75297 16.9864 3.58746C18.0187 4.42195 18.8661 5.462 19.4749 6.64155ZM11 20.5333C10.5722 20.5333 9.81445 19.8 9.16178 18.2209C8.71815 17.0871 8.40647 15.906 8.23289 14.7009H13.7671C13.5935 15.906 13.2819 17.0871 12.8382 18.2209C12.1856 19.8 11.4278 20.5333 11 20.5333ZM11 1.46667C11.4278 1.46667 12.1856 2.2 12.8382 3.77911C13.2045 4.70387 13.478 5.66272 13.6547 6.64155H8.34534C8.52203 5.66272 8.79552 4.70387 9.16178 3.77911C9.81445 2.2 10.5722 1.46667 11 1.46667ZM7.94934 11C7.9487 10.0335 8.00584 9.06787 8.12045 8.10822H13.8796C13.9942 9.06787 14.0513 10.0335 14.0507 11C14.0507 11.7553 14.014 12.5058 13.948 13.2342H8.052C7.986 12.5058 7.94934 11.7553 7.94934 11ZM6.57556 13.2342H1.73312C1.32228 11.5387 1.38571 9.7628 1.91645 8.10089H6.64156C6.53496 9.06357 6.48191 10.0314 6.48267 11C6.48267 11.7651 6.51445 12.5131 6.57556 13.2342ZM15.3584 8.10089H20.0836C20.6143 9.7628 20.6777 11.5387 20.2669 13.2342H15.4244C15.4856 12.5009 15.5173 11.7676 15.5173 11C15.5178 10.0339 15.4648 9.06847 15.3584 8.10822V8.10089Z" fill="#333333"/>
</svg>
