<svg width="137" height="49" viewBox="0 0 137 49" fill="none" xmlns="http://www.w3.org/2000/svg">
<path d="M25.336 48C25.2174 47.9976 25.1031 47.9549 25.012 47.879C23.263 46.52 23.312 33.871 23.312 32.822C22.272 33.372 21.812 34.712 21.394 35.894C20.994 37.038 20.655 38.025 19.903 38.161C19.027 38.317 17.689 37.251 15.687 34.805C15.6222 34.7171 15.5387 34.6446 15.4426 34.5927C15.3465 34.5409 15.2401 34.5109 15.131 34.505H15.099C14.428 34.505 13.567 35.391 12.655 36.327C11.5 37.516 10.311 38.745 9.246 38.496C7.352 38.053 3.92 34.846 3.888 34.812L3.931 34.767C3.965 34.799 7.383 37.995 9.257 38.436C10.286 38.677 11.471 37.46 12.615 36.284C13.535 35.338 14.405 34.443 15.101 34.443H15.135C15.2529 34.4506 15.3677 34.4839 15.4713 34.5405C15.575 34.5972 15.665 34.6759 15.735 34.771C17.723 37.198 19.046 38.257 19.894 38.105C20.618 37.975 20.959 37.005 21.347 35.879C21.773 34.669 22.242 33.297 23.335 32.749L23.38 32.728V32.777C23.38 32.913 23.303 46.466 25.065 47.836C25.1183 47.8841 25.183 47.9179 25.2529 47.9344C25.3229 47.9508 25.3958 47.9493 25.465 47.93C26.53 47.651 27.336 46.53 28.365 45.107C30.819 41.698 34.531 36.551 46.017 37.224V37.286C45.3183 37.2446 44.6473 37.224 44.004 37.224C34.118 37.224 30.718 41.943 28.419 45.133C27.388 46.565 26.574 47.69 25.489 47.979C25.4394 47.9938 25.3878 48.0009 25.336 48Z" fill="#333333" stroke="#333333" stroke-width="0.2"/>
<path d="M25.862 46.805C25.7275 46.8014 25.5989 46.7491 25.5 46.658C24.085 45.458 23.663 37.19 23.482 33.658C23.444 32.906 23.412 32.301 23.39 32.167C22.301 32.695 21.835 34.053 21.421 35.252C21.027 36.396 20.688 37.383 19.915 37.534C19.37 37.641 18.343 37.442 15.754 34.489C15.6859 34.4026 15.6 34.3318 15.5022 34.2814C15.4044 34.231 15.2969 34.2022 15.187 34.197H15.159C14.484 34.197 13.627 35.049 12.722 35.94C12.454 36.206 12.174 36.481 11.897 36.74C11.081 37.494 10.131 38.2309 9.253 37.9969C7.335 37.4859 3.978 34.2789 3.946 34.2469L3.989 34.202C4.023 34.234 7.379 37.43 9.271 37.937C10.123 38.167 11.056 37.437 11.86 36.695C12.137 36.439 12.414 36.164 12.682 35.895C13.611 34.977 14.482 34.1099 15.194 34.1349C15.3112 34.141 15.4258 34.1717 15.5304 34.2249C15.6349 34.2781 15.7271 34.3528 15.801 34.444C17.757 36.675 19.059 37.6439 19.901 37.4669C20.64 37.3219 20.966 36.351 21.36 35.224C21.786 34.003 22.26 32.616 23.39 32.088H23.403C23.454 32.088 23.458 32.088 23.537 33.652C23.716 37.176 24.137 45.43 25.537 46.608C25.5926 46.6615 25.6607 46.7002 25.7351 46.7207C25.8095 46.7411 25.8879 46.7426 25.963 46.725C27.018 46.45 27.827 45.332 28.85 43.915C30.1008 41.9958 31.6984 40.3266 33.561 38.993C36.442 37.075 40.561 36.313 46.168 36.649V36.711C40.577 36.379 36.468 37.137 33.598 39.055C31.7434 40.3812 30.1536 42.0432 28.911 43.955C27.88 45.38 27.064 46.512 25.988 46.789C25.9468 46.7996 25.9045 46.8049 25.862 46.805Z" fill="#333333" stroke="#333333" stroke-width="0.2"/>
<path d="M26.388 45.6119C26.2563 45.6089 26.1297 45.5601 26.03 45.4739C24.707 44.4089 24.081 37.5569 23.742 33.8739C23.633 32.6829 23.529 31.6479 23.476 31.5109C22.343 32.0179 21.876 33.3839 21.454 34.6109C21.079 35.7109 20.723 36.7419 19.935 36.9159C19.072 37.1029 17.77 36.2319 15.835 34.1759C15.7629 34.0918 15.6741 34.0236 15.5743 33.9755C15.4745 33.9275 15.3657 33.9008 15.255 33.8969H15.232C14.552 33.8969 13.702 34.7069 12.803 35.5609C12.518 35.8319 12.223 36.1129 11.927 36.3729C11.166 37.0419 10.18 37.7729 9.274 37.4999C7.356 36.9199 4.048 33.7159 4.016 33.6819L4.059 33.6369C4.093 33.6689 7.387 36.865 9.292 37.437C10.168 37.703 11.137 36.981 11.885 36.323C12.179 36.063 12.475 35.7839 12.759 35.5109C13.667 34.6459 14.525 33.8299 15.23 33.8299H15.256C15.3747 33.8349 15.491 33.8641 15.598 33.9157C15.705 33.9673 15.8002 34.0402 15.878 34.1299C17.796 36.1689 19.078 37.03 19.926 36.853C20.682 36.689 21.015 35.715 21.4 34.588C21.826 33.354 22.3 31.9569 23.475 31.4449H23.488C23.573 31.4449 23.612 31.7449 23.808 33.8699C24.145 37.5429 24.769 44.3819 26.073 45.4279C26.1296 45.4797 26.198 45.5169 26.2722 45.5363C26.3465 45.5556 26.4243 45.5565 26.499 45.5389C27.545 45.2679 28.357 44.154 29.382 42.739C30.6095 40.8477 32.1937 39.2136 34.046 37.9279C36.603 36.2959 40.41 35.7279 46.363 36.0789V36.1409C40.423 35.7869 36.635 36.3539 34.082 37.9799C32.2364 39.2635 30.6581 40.8938 29.435 42.7799C28.402 44.2029 27.586 45.326 26.518 45.601C26.4753 45.6102 26.4316 45.6139 26.388 45.6119V45.6119Z" fill="#333333" stroke="#333333" stroke-width="0.2"/>
<path d="M26.912 44.418C26.7842 44.4141 26.6613 44.3677 26.563 44.2859C25.285 43.3229 24.543 37.596 24.045 33.808C23.9627 32.8125 23.8019 31.8251 23.564 30.8549C22.379 31.3389 21.904 32.732 21.485 33.961C21.108 35.061 20.754 36.107 19.945 36.305C19.093 36.505 17.814 35.73 15.925 33.861C15.164 33.107 14.061 34.115 12.895 35.182C12.595 35.459 12.279 35.747 11.964 36.009C10.848 36.942 10.027 37.251 9.305 37.009C7.373 36.37 4.128 33.157 4.096 33.125L4.139 33.082C4.171 33.114 7.405 36.31 9.325 36.951C10.025 37.188 10.816 36.883 11.925 35.965C12.238 35.703 12.551 35.417 12.854 35.14C14.043 34.053 15.166 33.024 15.969 33.821C17.838 35.675 19.097 36.446 19.934 36.25C20.71 36.067 21.061 35.04 21.425 33.95C21.851 32.704 22.33 31.293 23.556 30.801H23.567C23.703 30.801 23.81 31.538 24.11 33.809C24.577 37.359 25.356 43.299 26.603 44.249C26.6612 44.2979 26.73 44.3325 26.8041 44.3499C26.8781 44.3672 26.9551 44.3669 27.029 44.349C28.069 44.085 28.88 42.971 29.907 41.562C31.11 39.6987 32.6795 38.0996 34.52 36.862C37.096 35.294 41.031 35.183 46.549 35.511V35.573C39.124 35.13 36.454 35.758 34.556 36.915C32.719 38.1472 31.1536 39.7422 29.956 41.602C28.921 43.021 28.105 44.142 27.044 44.412C27.0004 44.4195 26.9561 44.4215 26.912 44.418V44.418Z" fill="#333333" stroke="#333333" stroke-width="0.2"/>
<path d="M27.438 43.226C27.3127 43.2224 27.1918 43.179 27.093 43.102C25.864 42.22 25.001 37.22 24.372 33.57C24.2478 32.4261 24.0034 31.2986 23.643 30.2059C22.414 30.6679 21.943 32.079 21.512 33.323C21.133 34.435 20.773 35.488 19.942 35.699C19.111 35.91 17.842 35.23 16.009 33.541C15.231 32.823 14.14 33.782 12.986 34.798C12.664 35.081 12.332 35.373 11.997 35.64C10.908 36.492 10.06 36.778 9.332 36.507C7.391 35.789 4.195 32.5849 4.168 32.5509L4.211 32.5079C4.243 32.5399 7.411 35.736 9.348 36.445C10.057 36.707 10.884 36.445 11.954 35.593C12.286 35.329 12.619 35.037 12.94 34.754C14.116 33.721 15.226 32.743 16.04 33.499C17.855 35.174 19.087 35.853 19.915 35.642C20.743 35.431 21.068 34.404 21.44 33.298C21.866 32.039 22.356 30.611 23.62 30.141H23.631C23.825 30.141 24.025 31.251 24.424 33.55C25.016 36.984 25.915 42.177 27.124 43.044C27.1825 43.0924 27.2514 43.1266 27.3253 43.1439C27.3992 43.1613 27.4761 43.1613 27.55 43.144C28.583 42.884 29.438 41.719 30.426 40.374C31.608 38.5406 33.1631 36.9769 34.99 35.785C37.442 34.362 41.083 34.585 45.69 34.869L46.728 34.933V34.9949L45.69 34.931C41.09 34.648 37.46 34.431 35.022 35.839C33.1966 37.0193 31.6465 38.5786 30.477 40.4109C29.482 41.7699 28.621 42.944 27.567 43.211C27.5248 43.2212 27.4815 43.2263 27.438 43.226V43.226Z" fill="#333333" stroke="#333333" stroke-width="0.2"/>
<path d="M27.968 42.0299C27.8472 42.0224 27.7314 41.9785 27.636 41.9039C26.436 41.0939 25.454 36.5259 24.736 33.1899C24.35 31.3959 23.95 29.5399 23.736 29.5399C22.355 29.7529 21.882 31.1809 21.426 32.5529C21.047 33.6929 20.689 34.7689 19.826 35.0069C18.963 35.2449 17.81 34.6659 16.106 33.2069C15.306 32.5249 14.233 33.4349 13.093 34.3999C12.752 34.6879 12.401 34.9859 12.045 35.2519C10.969 36.0569 10.127 36.2919 9.373 35.9889C7.415 35.2069 4.294 32.0029 4.26 31.9709L4.305 31.9279C4.337 31.9599 7.448 35.1559 9.395 35.9279C10.122 36.2199 10.95 35.9879 12.007 35.1969C12.361 34.9309 12.712 34.6339 13.053 34.3449C14.212 33.3629 15.309 32.4279 16.147 33.1519C17.811 34.5769 19.01 35.1629 19.812 34.9399C20.614 34.7169 20.999 33.6489 21.372 32.5239C21.834 31.1349 22.312 29.6989 23.731 29.4709H23.742C23.993 29.4709 24.281 30.7489 24.807 33.1709C25.523 36.4969 26.507 41.0539 27.681 41.8469C27.7409 41.8925 27.8103 41.9241 27.884 41.9395C27.9577 41.9549 28.0338 41.9537 28.107 41.9359C29.134 41.6799 29.993 40.5169 30.983 39.1659C32.1363 37.3589 33.6767 35.8307 35.493 34.6919C37.53 33.5729 40.53 33.8139 43.977 34.1099C44.932 34.1909 45.92 34.2759 46.943 34.3379V34.3999C45.918 34.3379 44.932 34.2549 43.975 34.1719C40.538 33.8779 37.568 33.6219 35.525 34.7469C33.7148 35.8814 32.1805 37.4054 31.034 39.2079C30.034 40.5649 29.172 41.7369 28.124 41.9969C28.0739 42.0156 28.0213 42.0267 27.968 42.0299V42.0299Z" fill="#333333" stroke="#333333" stroke-width="0.2"/>
<path d="M28.484 40.8389C28.3635 40.8362 28.2463 40.7983 28.147 40.7299C26.977 39.9859 25.927 35.972 25.088 32.743C24.57 30.764 24.082 28.8949 23.81 28.8949C22.395 29.1079 21.91 30.5379 21.449 31.9249C21.061 33.0839 20.695 34.1789 19.802 34.4429C18.988 34.6839 17.802 34.179 16.18 32.892C15.366 32.253 14.303 33.1049 13.18 34.0229C12.82 34.3169 12.447 34.623 12.068 34.875C11.7159 35.2051 11.2822 35.4355 10.8116 35.5426C10.3409 35.6496 9.85025 35.6294 9.39 35.4839C7.417 34.6319 4.36 31.4359 4.33 31.3999L4.375 31.3569C4.405 31.3889 7.456 34.5849 9.416 35.4279C9.86634 35.5695 10.3463 35.5886 10.8064 35.4831C11.2665 35.3777 11.6903 35.1515 12.034 34.8279C12.411 34.5619 12.782 34.259 13.142 33.976C14.286 33.045 15.366 32.1649 16.221 32.8429C17.821 34.1209 18.991 34.6179 19.783 34.3829C20.635 34.1269 21.006 33.047 21.389 31.903C21.86 30.503 22.346 29.0479 23.797 28.8329C24.108 28.8329 24.497 30.25 25.141 32.728C25.98 35.939 27.024 39.9359 28.179 40.6709C28.2398 40.7146 28.3094 40.7447 28.3829 40.759C28.4565 40.7733 28.5322 40.7716 28.605 40.754C29.626 40.503 30.486 39.3409 31.483 37.9969C32.6131 36.2182 34.1383 34.7241 35.94 33.631C37.777 32.677 40.312 32.992 43.25 33.373C44.492 33.531 45.775 33.6949 47.102 33.7729V33.8349C45.773 33.7559 44.488 33.592 43.246 33.435C40.319 33.062 37.792 32.7399 35.972 33.6859C34.1788 34.7743 32.6608 36.2615 31.536 38.032C30.536 39.387 29.665 40.557 28.624 40.812C28.5787 40.827 28.5316 40.8361 28.484 40.8389V40.8389Z" fill="#333333" stroke="#333333" stroke-width="0.2"/>
<path d="M29.015 39.642C28.8979 39.6395 28.7838 39.6049 28.685 39.542C27.528 38.85 26.385 35.176 25.468 32.223C24.829 30.18 24.232 28.249 23.885 28.249H23.872C22.421 28.449 21.931 29.898 21.456 31.304C21.056 32.486 20.678 33.604 19.756 33.893C18.951 34.149 17.804 33.718 16.256 32.581C15.423 31.97 14.424 32.751 13.273 33.646C12.894 33.946 12.5 34.251 12.097 34.517C11.7331 34.8295 11.2921 35.0388 10.8199 35.1231C10.3477 35.2073 9.8615 35.1634 9.412 34.996C7.428 34.076 4.431 30.875 4.401 30.844L4.446 30.801C4.476 30.833 7.467 34.025 9.438 34.939C9.87803 35.1018 10.3537 35.1436 10.8154 35.0601C11.2771 34.9765 11.7079 34.7707 12.063 34.464C12.463 34.2 12.856 33.893 13.235 33.597C14.362 32.715 15.427 31.897 16.299 32.532C17.842 33.659 18.964 34.085 19.759 33.838C20.65 33.557 21.022 32.455 21.417 31.281C21.899 29.858 22.395 28.388 23.882 28.181H23.901C24.276 28.181 24.753 29.643 25.544 32.197C26.458 35.139 27.596 38.797 28.744 39.479C28.8058 39.5207 28.8756 39.549 28.9489 39.5623C29.0222 39.5756 29.0975 39.5734 29.17 39.556C30.186 39.309 31.051 38.148 32.053 36.805C33.1613 35.056 34.6694 33.5956 36.453 32.544C38.153 31.715 40.531 32.144 43.053 32.593C44.4641 32.874 45.8906 33.0716 47.325 33.185V33.247C45.8879 33.1339 44.4588 32.9362 43.045 32.655C40.533 32.205 38.16 31.779 36.483 32.6C34.7084 33.6435 33.2076 35.0945 32.105 36.833C31.097 38.186 30.226 39.353 29.188 39.603C29.1328 39.6251 29.0744 39.6383 29.015 39.642V39.642Z" fill="#333333" stroke="#333333" stroke-width="0.2"/>
<path d="M29.55 38.4529C29.4358 38.4509 29.3242 38.4192 29.226 38.361C28.08 37.722 26.904 34.492 25.866 31.643C25.11 29.568 24.396 27.6059 23.976 27.6059H23.959C22.468 27.7889 21.967 29.2659 21.479 30.6929C21.068 31.8989 20.679 33.0369 19.728 33.3579C18.935 33.6239 17.828 33.2689 16.349 32.2669C15.497 31.6919 14.512 32.429 13.366 33.285C12.966 33.585 12.552 33.8959 12.126 34.1609C11.7486 34.4523 11.3005 34.6381 10.8277 34.6995C10.3549 34.7608 9.87425 34.6954 9.435 34.51C7.435 33.521 4.503 30.3229 4.473 30.2909L4.518 30.2509C4.548 30.2829 7.477 33.4739 9.463 34.4569C9.8932 34.6379 10.3638 34.7012 10.8265 34.6402C11.2892 34.5792 11.7274 34.3962 12.096 34.1099C12.522 33.8479 12.931 33.5369 13.332 33.2389C14.442 32.4059 15.49 31.6199 16.379 32.2179C17.843 33.2069 18.936 33.5599 19.705 33.2999C20.625 32.9909 21.011 31.864 21.405 30.673C21.899 29.226 22.405 27.733 23.936 27.545H23.957C24.421 27.545 25.08 29.3449 25.906 31.6229C26.888 34.3229 28.111 37.678 29.238 38.309C29.3008 38.3483 29.3708 38.3748 29.444 38.3868C29.5171 38.3988 29.5919 38.3962 29.664 38.3789C30.674 38.1359 31.543 36.979 32.551 35.637C33.704 34.101 35.01 32.362 36.895 31.499C38.495 30.766 40.702 31.286 43.035 31.844C44.4908 32.2354 45.9776 32.5007 47.479 32.637V32.699C45.9746 32.5622 44.4848 32.2963 43.026 31.904C40.704 31.352 38.511 30.839 36.926 31.555C35.055 32.407 33.754 34.144 32.607 35.673C31.593 37.024 30.717 38.189 29.686 38.443C29.6412 38.4517 29.5956 38.455 29.55 38.4529V38.4529Z" fill="#333333" stroke="#333333" stroke-width="0.2"/>
<path d="M30.063 37.255C29.952 37.2529 29.8432 37.2237 29.746 37.17C28.608 36.578 27.356 33.614 26.252 30.991C25.372 28.909 24.552 26.943 24.045 26.943H24.026C22.498 27.113 21.979 28.618 21.469 30.073C21.043 31.307 20.64 32.473 19.662 32.821C18.884 33.098 17.823 32.81 16.417 31.939C15.543 31.398 14.576 32.097 13.456 32.906C13.0356 33.2196 12.5997 33.512 12.15 33.782C11.7598 34.0548 11.3037 34.2184 10.829 34.2559C10.3543 34.2933 9.8782 34.2033 9.45 33.995C7.441 32.93 4.567 29.734 4.537 29.708L4.582 29.668C4.612 29.7 7.482 32.889 9.482 33.942C9.90165 34.1428 10.367 34.2288 10.8307 34.1914C11.2944 34.154 11.74 33.9944 12.122 33.729C12.5697 33.4596 13.0036 33.1679 13.422 32.855C14.513 32.067 15.553 31.325 16.452 31.886C17.841 32.738 18.885 33.032 19.652 32.762C20.602 32.423 21.001 31.271 21.423 30.052C21.932 28.58 22.458 27.052 24.023 26.882C24.564 26.822 25.333 28.652 26.313 30.966C27.413 33.566 28.657 36.523 29.779 37.104C29.904 37.1757 30.0514 37.1978 30.192 37.166C31.198 36.927 32.073 35.766 33.085 34.43C34.235 32.909 35.539 31.183 37.37 30.407C38.915 29.753 40.992 30.381 43.201 31.046C44.6497 31.5475 46.1506 31.883 47.675 32.046V32.108C46.1507 31.9446 44.6498 31.6092 43.201 31.108C41.007 30.445 38.94 29.83 37.412 30.469C35.599 31.238 34.299 32.955 33.151 34.469C32.13 35.818 31.251 36.983 30.221 37.228C30.1698 37.2441 30.1166 37.2532 30.063 37.255V37.255Z" fill="#333333" stroke="#333333" stroke-width="0.2"/>
<path d="M30.587 36.061C30.4788 36.0594 30.3724 36.0331 30.276 35.984C29.145 35.436 27.822 32.718 26.654 30.321C25.648 28.254 24.696 26.303 24.125 26.303H24.102C22.53 26.459 21.993 27.997 21.473 29.484C21.032 30.747 20.621 31.941 19.609 32.32C18.851 32.605 17.836 32.382 16.509 31.632C15.616 31.132 14.664 31.788 13.56 32.55C13.1196 32.8671 12.6616 33.1589 12.188 33.424C11.786 33.6761 11.3243 33.8171 10.85 33.8328C10.3757 33.8484 9.90577 33.738 9.488 33.513C7.68944 32.2731 6.05511 30.8104 4.624 29.16L4.671 29.12C6.09713 30.7653 7.72573 32.2235 9.518 33.46C9.92717 33.682 10.3883 33.7906 10.8535 33.7744C11.3188 33.7582 11.7712 33.6179 12.164 33.368C12.6354 33.1036 13.0915 32.8128 13.53 32.497C14.595 31.756 15.616 31.052 16.543 31.577C17.853 32.316 18.85 32.54 19.594 32.261C20.574 31.892 20.985 30.712 21.422 29.461C21.948 27.961 22.487 26.399 24.102 26.24H24.13C24.741 26.24 25.658 28.121 26.714 30.288C27.877 32.676 29.196 35.388 30.308 35.923C30.4341 35.9896 30.5798 36.0091 30.719 35.978C31.719 35.741 32.602 34.587 33.619 33.249C34.767 31.743 36.069 30.034 37.842 29.342C39.342 28.756 41.342 29.495 43.462 30.279C44.8616 30.8785 46.3371 31.2823 47.847 31.479V31.541C46.3318 31.3468 44.851 30.9429 43.447 30.341C41.342 29.561 39.352 28.826 37.871 29.404C36.113 30.09 34.818 31.79 33.671 33.29C32.644 34.639 31.753 35.802 30.733 36.043C30.6852 36.0548 30.6362 36.0609 30.587 36.061V36.061Z" fill="#333333" stroke="#333333" stroke-width="0.2"/>
<path d="M31.11 34.873C31.0062 34.871 30.904 34.8472 30.81 34.803C29.683 34.303 28.292 31.803 27.062 29.609C25.929 27.579 24.855 25.659 24.207 25.659H24.179C22.562 25.802 22.004 27.376 21.465 28.902C21.007 30.202 20.574 31.42 19.547 31.832C19.0469 31.9593 18.5255 31.9796 18.0169 31.8915C17.5084 31.8035 17.0242 31.6091 16.596 31.321C15.682 30.854 14.747 31.474 13.662 32.195C13.2016 32.5148 12.7213 32.805 12.224 33.0639C11.8078 33.2932 11.3391 33.4103 10.864 33.4036C10.3888 33.397 9.92361 33.2668 9.514 33.026C7.73101 31.7595 6.11404 30.2742 4.701 28.6049L4.748 28.5649C6.15817 30.2285 7.77066 31.7093 9.548 32.973C9.94919 33.2083 10.4047 33.3354 10.8697 33.3417C11.3348 33.348 11.7936 33.2333 12.201 33.0089C12.6962 32.7513 13.1745 32.4624 13.633 32.144C14.685 31.444 15.683 30.785 16.626 31.268C17.0454 31.554 17.5211 31.7474 18.0211 31.8352C18.5212 31.9229 19.0342 31.9031 19.526 31.777C20.532 31.377 20.96 30.1659 21.414 28.8839C21.959 27.3409 22.524 25.748 24.184 25.601H24.216C24.902 25.601 25.933 27.448 27.126 29.583C28.349 31.773 29.736 34.255 30.844 34.752C30.9709 34.8139 31.115 34.8311 31.253 34.8009C32.253 34.5689 33.181 33.359 34.165 32.076C35.311 30.585 36.611 28.8929 38.324 28.2859C39.815 27.7599 41.837 28.659 43.804 29.53C45.1325 30.2167 46.5628 30.6857 48.04 30.919V30.9809C46.5531 30.7487 45.1139 30.2759 43.779 29.581C41.823 28.716 39.801 27.821 38.344 28.339C36.644 28.939 35.361 30.625 34.213 32.11C33.178 33.457 32.285 34.6199 31.264 34.8559C31.2135 34.8678 31.1618 34.8735 31.11 34.873V34.873Z" fill="#333333" stroke="#333333" stroke-width="0.2"/>
<path d="M31.631 33.674C31.5299 33.6728 31.43 33.6517 31.337 33.612C30.212 33.15 28.817 30.964 27.468 28.852C26.205 26.873 25.011 25.002 24.283 25.002H24.251C22.585 25.13 22.005 26.749 21.451 28.317C20.997 29.595 20.526 30.899 19.472 31.345C19.0066 31.4839 18.5173 31.5246 18.0353 31.4646C17.5533 31.4045 17.0891 31.2449 16.672 30.996C15.737 30.57 14.818 31.152 13.755 31.827C13.2756 32.1458 12.7744 32.4305 12.255 32.679C11.8232 32.8895 11.3443 32.9849 10.8648 32.956C10.3853 32.9271 9.92138 32.7748 9.518 32.514C7.75259 31.2186 6.15265 29.7117 4.754 28.027L4.801 27.989C6.19561 29.6684 7.79046 31.1709 9.55 32.463C9.94226 32.7152 10.3926 32.8627 10.8581 32.8915C11.3236 32.9202 11.7887 32.8291 12.209 32.627C12.7254 32.3783 13.2236 32.0936 13.7 31.775C14.733 31.117 15.711 30.497 16.683 30.94C17.0924 31.1841 17.5478 31.341 18.0206 31.4011C18.4934 31.4612 18.9736 31.423 19.431 31.289C20.462 30.863 20.905 29.612 21.376 28.306C21.943 26.721 22.529 25.082 24.233 24.95H24.267C25.03 24.95 26.234 26.836 27.505 28.828C28.847 30.928 30.236 33.108 31.34 33.564C31.4676 33.6215 31.6102 33.6365 31.747 33.607C32.742 33.379 33.679 32.169 34.672 30.888C35.818 29.414 37.118 27.745 38.773 27.214C40.243 26.745 42.237 27.779 44.168 28.78C45.4056 29.5435 46.7724 30.0743 48.201 30.346V30.408C46.7654 30.1411 45.3924 29.608 44.153 28.836C42.235 27.841 40.253 26.814 38.805 27.274C37.169 27.796 35.878 29.46 34.74 30.928C33.74 32.217 32.795 33.436 31.781 33.668C31.7314 33.6756 31.6811 33.6776 31.631 33.674V33.674Z" fill="#333333" stroke="#333333" stroke-width="0.2"/>
<path d="M11.204 32.5299C10.6171 32.5216 10.0455 32.3423 9.559 32.0139C7.8107 30.6898 6.22771 29.1605 4.844 27.4589L4.891 27.4209C6.26974 29.118 7.84776 30.643 9.591 31.9629C9.97505 32.2321 10.4207 32.4001 10.8869 32.4515C11.353 32.5028 11.8246 32.4359 12.258 32.2569C12.8015 32.0144 13.3251 31.7295 13.824 31.4049C14.838 30.7889 15.797 30.2049 16.779 30.6049C17.1748 30.8127 17.6084 30.9386 18.0538 30.9752C18.4993 31.0118 18.9476 30.9583 19.372 30.8179C20.425 30.3489 20.885 29.0729 21.372 27.7179C21.962 26.0839 22.572 24.3959 24.327 24.2789C25.162 24.2259 26.509 26.0709 27.927 28.0249C29.345 29.9789 30.778 31.9389 31.886 32.3559C32.0128 32.4075 32.1521 32.42 32.286 32.3919C33.277 32.1679 34.223 30.9579 35.226 29.6799C36.368 28.2209 37.663 26.5689 39.255 26.1199C40.727 25.7069 42.7 26.8869 44.607 28.0369C45.74 28.8596 47.0279 29.4444 48.393 29.7559V29.8179C47.0177 29.5063 45.7201 28.9184 44.579 28.0899C42.679 26.9539 40.721 25.7799 39.279 26.1899C37.705 26.6329 36.418 28.2779 35.279 29.7289C34.271 31.0069 33.317 32.2349 32.296 32.4629C32.1485 32.4952 31.9948 32.4819 31.855 32.4249C30.728 31.9989 29.275 30.0049 27.869 28.0739C26.463 26.1429 25.159 24.3519 24.351 24.3519H24.317C22.602 24.4649 21.999 26.1349 21.417 27.7519C20.946 29.0519 20.46 30.4019 19.384 30.8819C18.9529 31.0298 18.496 31.0872 18.0418 31.0506C17.5876 31.0139 17.1458 30.884 16.744 30.6689C15.79 30.2789 14.888 30.8289 13.844 31.4639C13.3424 31.7887 12.8162 32.0736 12.27 32.3159C11.9319 32.4557 11.5698 32.5284 11.204 32.5299V32.5299Z" fill="#333333" stroke="#333333" stroke-width="0.2"/>
<path d="M11.378 32.1169C10.7333 32.1019 10.1081 31.8928 9.584 31.5169C7.85161 30.1663 6.28536 28.6152 4.918 26.8959L4.965 26.8579C6.32868 28.5722 7.89055 30.119 9.618 31.4659C9.99507 31.7498 10.4359 31.9371 10.902 32.0113C11.3682 32.0856 11.8454 32.0446 12.292 31.8919C12.8593 31.6643 13.406 31.3883 13.926 31.0669C14.921 30.4899 15.858 29.9459 16.86 30.3019C19.826 31.3669 20.565 29.3259 21.345 27.1759C21.959 25.4889 22.591 23.7419 24.402 23.6409H24.436C25.352 23.6409 26.801 25.3859 28.336 27.2309C29.795 28.9869 31.302 30.8019 32.416 31.1809C32.5441 31.2276 32.6827 31.2373 32.816 31.2089C33.805 30.9959 34.759 29.7819 35.771 28.5029C36.971 26.9919 38.202 25.4309 39.734 25.0579C41.225 24.6979 43.271 26.1019 45.082 27.3399C46.431 28.2629 47.707 29.1339 48.582 29.1849V29.2469C47.687 29.1939 46.407 28.3179 45.049 27.3909C43.249 26.1599 41.214 24.7659 39.749 25.1199C38.238 25.4859 37.009 27.0379 35.82 28.5439C34.802 29.8219 33.841 31.0439 32.837 31.2709C32.695 31.3005 32.5475 31.2902 32.411 31.2409C31.282 30.8549 29.767 29.0339 28.303 27.2719C26.78 25.4379 25.339 23.7029 24.453 23.7029H24.417C22.647 23.8029 22.017 25.5269 21.417 27.1969C20.661 29.2809 19.877 31.4369 16.853 30.3589C15.879 30.0119 14.995 30.5249 13.97 31.1199C13.4472 31.443 12.8975 31.7204 12.327 31.9489C12.0222 32.0607 11.6996 32.1162 11.375 32.1129L11.378 32.1169Z" fill="#333333" stroke="#333333" stroke-width="0.2"/>
<path d="M11.553 31.706C10.8516 31.6835 10.1743 31.4446 9.614 31.022C7.89771 29.6448 6.34821 28.0718 4.997 26.335L5.046 26.297C6.39264 28.0292 7.93637 29.5988 9.646 30.974C10.0161 31.2734 10.4527 31.4796 10.919 31.5753C11.3854 31.671 11.8679 31.6534 12.326 31.524C12.9165 31.3111 13.4856 31.0432 14.026 30.724C14.4351 30.4088 14.9041 30.1801 15.4043 30.0519C15.9046 29.9236 16.4257 29.8985 16.936 29.978C19.776 30.845 20.522 28.796 21.312 26.629C21.951 24.88 22.612 23.073 24.474 22.988C25.465 22.945 27.056 24.622 28.735 26.397C30.25 27.997 31.818 29.646 32.935 29.989C33.0641 30.0313 33.2022 30.0385 33.335 30.01C34.319 29.797 35.284 28.587 36.305 27.31C37.498 25.819 38.732 24.276 40.2 23.98C41.706 23.68 43.762 25.258 45.578 26.669C46.837 27.643 48.026 28.561 48.759 28.606V28.668C48.007 28.623 46.865 27.741 45.544 26.719C43.744 25.319 41.696 23.736 40.218 24.041C38.773 24.333 37.546 25.867 36.36 27.35C35.331 28.628 34.36 29.85 33.36 30.071C33.2184 30.1005 33.0716 30.0926 32.934 30.048C31.801 29.701 30.228 28.048 28.707 26.441C27.03 24.675 25.447 23.004 24.486 23.049C22.66 23.132 22.008 24.92 21.377 26.649C20.612 28.749 19.822 30.91 16.926 30.037C16.4242 29.9562 15.9111 29.9795 15.4186 30.1052C14.9261 30.231 14.4647 30.4565 14.063 30.768C13.5181 31.0913 12.9439 31.3625 12.348 31.578C12.0915 31.6626 11.8231 31.7059 11.553 31.706V31.706Z" fill="#333333" stroke="#333333" stroke-width="0.2"/>
<path d="M11.727 31.3009C10.9654 31.2689 10.2333 30.9973 9.635 30.5249C7.93427 29.1212 6.40144 27.5256 5.067 25.7699L5.116 25.7339C6.44675 27.485 7.9752 29.0765 9.671 30.4769C10.0363 30.7901 10.4693 31.0143 10.9358 31.1319C11.4024 31.2496 11.8899 31.2574 12.36 31.1549C12.9787 30.9563 13.5755 30.695 14.141 30.3749C14.9768 29.7804 16.0078 29.5269 17.024 29.6659C19.74 30.3539 20.49 28.2899 21.285 26.1039C21.948 24.2889 22.629 22.4119 24.555 22.3459H24.591C25.656 22.3459 27.361 23.9079 29.148 25.5589C30.72 27.0079 32.348 28.5059 33.475 28.8119C33.605 28.85 33.7425 28.8551 33.875 28.8269C34.857 28.6139 35.831 27.4099 36.858 26.1359C38.049 24.6659 39.278 23.1529 40.693 22.9209C42.233 22.6759 44.398 24.5549 46.137 26.0659C47.337 27.1079 48.374 28.0089 48.962 28.0429V28.1049C48.353 28.0689 47.309 27.1609 46.101 26.1129C44.371 24.6219 42.219 22.7419 40.709 22.9829C39.328 23.1959 38.109 24.7149 36.921 26.1829C35.883 27.4609 34.903 28.6779 33.9 28.8949C33.7589 28.9251 33.6126 28.92 33.474 28.8799C32.332 28.5689 30.704 27.0669 29.123 25.6139C27.423 24.0419 25.652 22.4139 24.606 22.4139H24.572C22.686 22.4799 22.015 24.3319 21.357 26.1339C20.586 28.2499 19.787 30.4339 17.021 29.7339C16.0205 29.5997 15.0063 29.8498 14.183 30.4339C13.614 30.7558 13.0136 31.0185 12.391 31.2179C12.1748 31.2772 11.9512 31.3052 11.727 31.3009V31.3009Z" fill="#333333" stroke="#333333" stroke-width="0.2"/>
<path d="M11.865 30.905C11.0519 30.8585 10.2758 30.5498 9.653 30.025C7.96794 28.5942 6.45179 26.9757 5.134 25.201L5.183 25.165C6.49775 26.9343 8.00947 28.5483 9.689 29.976C10.0505 30.3031 10.4806 30.5452 10.9478 30.6845C11.415 30.8238 11.9074 30.8567 12.389 30.781C13.0348 30.5996 13.6586 30.3474 14.249 30.029C15.0912 29.4787 16.0976 29.2363 17.098 29.343C19.691 29.865 20.481 27.685 21.246 25.578C21.932 23.69 22.639 21.743 24.627 21.69C25.769 21.664 27.687 23.198 29.542 24.69C31.174 25.998 32.864 27.353 34.001 27.624C34.1326 27.6547 34.2694 27.6547 34.401 27.624C35.381 27.411 36.365 26.214 37.401 24.942C38.588 23.491 39.817 21.993 41.157 21.842C41.2234 21.8344 41.2902 21.8307 41.357 21.831C42.927 21.831 45.017 23.861 46.709 25.506C47.774 26.541 48.695 27.436 49.14 27.462V27.524C48.671 27.496 47.787 26.638 46.669 25.551C44.916 23.851 42.73 21.716 41.169 21.903C39.852 22.054 38.634 23.544 37.453 24.984C36.405 26.262 35.414 27.472 34.415 27.684C34.2749 27.7166 34.1291 27.7166 33.989 27.684C32.839 27.411 31.145 26.052 29.515 24.74C27.685 23.274 25.795 21.757 24.67 21.757H24.64C22.695 21.806 21.994 23.736 21.316 25.605C20.543 27.736 19.739 29.943 17.097 29.41C16.1095 29.3034 15.1158 29.5446 14.287 30.092C13.6924 30.4122 13.0643 30.6658 12.414 30.848C12.2362 30.8902 12.0538 30.9103 11.871 30.908L11.865 30.905Z" fill="#333333" stroke="#333333" stroke-width="0.2"/>
<path d="M12.024 30.515C11.1562 30.45 10.3333 30.1038 9.68 29.529C8.006 28.0723 6.50483 26.4282 5.206 24.629L5.255 24.593C6.55475 26.3799 8.05039 28.0157 9.714 29.47C10.071 29.8098 10.4968 30.0689 10.9626 30.2299C11.4284 30.3908 11.9234 30.4499 12.414 30.403C13.0898 30.2409 13.7441 29.9992 14.363 29.683C15.2068 29.1756 16.1872 28.9425 17.169 29.016C19.662 29.395 20.45 27.205 21.217 25.074C21.924 23.11 22.657 21.079 24.707 21.047H24.733C25.95 21.047 27.974 22.447 29.933 23.817C31.633 24.995 33.385 26.212 34.533 26.446C34.6629 26.4736 34.7971 26.4736 34.927 26.446C35.905 26.233 36.898 25.046 37.948 23.774C39.133 22.344 40.358 20.868 41.636 20.791H41.743C43.394 20.791 45.665 23.256 47.336 25.067C48.236 26.047 49.019 26.893 49.326 26.912V26.974C48.994 26.955 48.244 26.141 47.293 25.11C45.631 23.31 43.371 20.849 41.754 20.849H41.654C40.401 20.934 39.185 22.4 38.009 23.819C36.944 25.097 35.951 26.301 34.954 26.512C34.8136 26.5423 34.6684 26.5423 34.528 26.512C33.365 26.276 31.605 25.055 29.903 23.872C27.954 22.519 25.936 21.1189 24.739 21.1189H24.716C22.709 21.1509 21.985 23.1599 21.284 25.1049C20.508 27.255 19.71 29.4789 17.184 29.1049C16.2145 29.0364 15.2474 29.2678 14.414 29.768C13.791 30.0861 13.1323 30.3291 12.452 30.492C12.3105 30.5145 12.1671 30.5222 12.024 30.515V30.515Z" fill="#333333" stroke="#333333" stroke-width="0.2"/>
<path d="M12.162 30.129C11.2466 30.0441 10.3853 29.6571 9.714 29.0289C8.05826 27.5481 6.57518 25.8849 5.293 24.0709L5.344 24.0369C6.62348 25.8458 8.10282 27.5046 9.754 28.9819C10.1095 29.3345 10.5332 29.6108 10.9992 29.794C11.4651 29.9771 11.9636 30.0632 12.464 30.047C13.1744 29.9054 13.8639 29.6742 14.516 29.3589C15.3579 28.8981 16.3102 28.677 17.269 28.7199C19.636 28.9439 20.429 26.72 21.196 24.576C21.925 22.531 22.687 20.4169 24.796 20.4019H24.809C26.087 20.4019 28.239 21.6799 30.309 22.9159C31.7736 23.9239 33.3775 24.7126 35.07 25.257C35.1995 25.2816 35.3325 25.2816 35.462 25.257C36.438 25.044 37.439 23.8569 38.5 22.5959C39.68 21.1899 40.9 19.735 42.122 19.713H42.143C43.899 19.713 46.385 22.7299 48.032 24.7299C48.444 25.3366 48.9469 25.8763 49.523 26.3299V26.392C49.329 26.381 48.867 25.8299 47.995 24.7729C46.354 22.7809 43.881 19.7729 42.153 19.7729H42.115C40.926 19.7939 39.715 21.2369 38.542 22.6339C37.477 23.9119 36.465 25.1079 35.47 25.3139C35.3329 25.3402 35.1921 25.3402 35.055 25.3139C33.3545 24.771 31.743 23.9812 30.272 22.9699C28.205 21.7389 26.072 20.464 24.799 20.464H24.786C22.715 20.477 21.969 22.5709 21.247 24.5949C20.474 26.7639 19.673 29.0069 17.259 28.7789C16.311 28.7491 15.3718 28.9695 14.536 29.4179C13.8797 29.7351 13.1858 29.9676 12.471 30.1099C12.3687 30.1247 12.2653 30.1311 12.162 30.129V30.129Z" fill="#333333" stroke="#333333" stroke-width="0.2"/>
<path d="M12.276 29.7499C11.316 29.6413 10.4206 29.2126 9.734 28.5329C8.09394 27.0257 6.6275 25.3399 5.362 23.5069L5.413 23.4729C6.67395 25.3029 8.13756 26.9845 9.776 28.4859C10.4918 29.2213 11.4661 29.6486 12.492 29.6769C13.2411 29.5583 13.9707 29.339 14.661 29.0249C15.4954 28.6144 16.4111 28.3961 17.341 28.3859C19.61 28.4749 20.4 26.2319 21.161 24.0629C21.907 21.9319 22.678 19.7379 24.849 19.7379C26.198 19.7379 28.449 20.8839 30.636 21.9919C32.1849 22.8966 33.8471 23.5917 35.579 24.0589C35.7089 24.0761 35.8408 24.071 35.969 24.0439C36.941 23.8439 37.997 22.6019 39.02 21.3979C40.181 20.0319 41.381 18.6279 42.52 18.6279H42.576C44.494 18.6979 47.306 22.5549 48.814 24.6279C49.0711 25.0247 49.3626 25.3981 49.685 25.7439V25.8059C49.602 25.8059 49.393 25.5229 48.769 24.6659C47.369 22.7479 44.469 18.7659 42.578 18.6999H42.544C41.43 18.6999 40.239 20.0999 39.086 21.4549C38.057 22.6649 36.994 23.9159 36.001 24.1199C35.8658 24.1482 35.7269 24.1532 35.59 24.1349C33.8511 23.6688 32.1823 22.9723 30.628 22.0639C28.453 20.9639 26.203 19.8209 24.875 19.8179C22.744 19.8179 21.982 21.9949 21.253 24.1029C20.484 26.2929 19.685 28.5579 17.373 28.4659H17.207C16.3424 28.5046 15.4952 28.7222 14.719 29.1049C14.0126 29.4159 13.2671 29.6289 12.503 29.7379C12.4277 29.7468 12.3518 29.7508 12.276 29.7499V29.7499Z" fill="#333333" stroke="#333333" stroke-width="0.2"/>
<path d="M12.392 29.373C11.292 29.373 9.808 28.318 7.977 26.237C7.0667 25.19 6.21922 24.0901 5.439 22.943L5.49 22.909C5.535 22.975 9.915 29.531 12.521 29.301C13.3207 29.2121 14.1035 29.0083 14.845 28.696C15.6611 28.3351 16.536 28.1257 17.427 28.078C19.613 28.04 20.395 25.771 21.149 23.578C21.903 21.385 22.692 19.104 24.903 19.104H24.939C26.345 19.119 28.693 20.118 30.962 21.083C32.6057 21.8827 34.3375 22.4869 36.122 22.883C37.187 22.992 38.404 21.592 39.574 20.235C40.707 18.918 41.879 17.559 42.951 17.559H43.066C45.595 17.795 49.735 24.884 49.909 25.184L49.856 25.214C49.813 25.139 45.556 17.853 43.056 17.614C41.991 17.514 40.781 18.914 39.617 20.264C38.477 21.574 37.305 22.936 36.234 22.936C36.1914 22.9382 36.1486 22.9382 36.106 22.936C34.3141 22.5424 32.576 21.9351 30.929 21.127C28.666 20.166 26.329 19.161 24.929 19.143H24.895C22.722 19.143 21.946 21.399 21.195 23.575C20.444 25.751 19.646 28.075 17.415 28.115C16.5322 28.1609 15.6654 28.3691 14.858 28.729C14.1149 29.0471 13.3298 29.2566 12.527 29.351L12.392 29.373Z" fill="#333333" stroke="#333333" stroke-width="0.2"/>
<path d="M12.042 28.175C10.923 28.175 9.46 27.246 7.685 25.405C6.80543 24.4854 5.98574 23.5104 5.231 22.486L5.28 22.45C5.323 22.51 9.524 28.322 12.194 28.105C12.9484 28.0268 13.6948 27.8843 14.425 27.679C15.3114 27.4179 16.2282 27.2746 17.152 27.253V27.253C19.283 27.253 20.096 25.003 20.893 22.826C21.69 20.649 22.519 18.36 24.679 18.296H24.771C26.239 18.296 28.657 19.296 31.001 20.269C32.5584 21.0044 34.1914 21.5677 35.871 21.949C36.936 22.077 38.142 20.749 39.301 19.465C40.501 18.138 41.741 16.765 42.901 16.883C45.432 17.13 49.601 24.099 49.776 24.398L49.723 24.43C49.68 24.358 45.394 17.186 42.895 16.945C41.762 16.83 40.532 18.191 39.343 19.502C38.118 20.857 36.965 22.137 35.86 22.002C34.1763 21.6205 32.5395 21.0554 30.979 20.317C28.635 19.349 26.228 18.349 24.771 18.349H24.681C22.57 18.413 21.747 20.663 20.95 22.838C20.153 25.013 19.316 27.312 17.15 27.312C16.2312 27.3343 15.3194 27.4776 14.438 27.738C13.7052 27.9435 12.9561 28.086 12.199 28.164C12.1469 28.1704 12.0945 28.1741 12.042 28.175V28.175Z" fill="#333333" stroke="#333333" stroke-width="0.2"/>
<path d="M11.687 26.977C8.936 26.977 5.059 22.077 5.02 22.036L5.069 21.998C5.107 22.049 8.969 26.915 11.687 26.915H11.857C12.545 26.862 13.176 26.772 13.775 26.689C14.7977 26.5203 15.8325 26.4363 16.869 26.438H16.922C18.94 26.438 19.764 24.307 20.636 22.072C21.488 19.901 22.351 17.655 24.411 17.506C25.922 17.395 28.525 18.45 31.043 19.468C32.5077 20.1391 34.036 20.6617 35.605 21.028C36.66 21.169 37.814 19.963 39.014 18.701C40.214 17.439 41.5 16.085 42.725 16.215C45.256 16.479 49.455 23.325 49.632 23.615L49.581 23.647C49.538 23.577 45.22 16.535 42.721 16.275C41.521 16.151 40.273 17.468 39.061 18.742C37.849 20.016 36.698 21.235 35.592 21.086C34.0189 20.7189 32.4865 20.195 31.018 19.522C28.623 18.553 25.905 17.455 24.418 17.564C22.407 17.707 21.544 19.933 20.707 22.087C19.87 24.241 19.007 26.487 16.936 26.487H16.883C15.8465 26.4838 14.8116 26.5671 13.789 26.736C13.18 26.821 12.547 26.909 11.857 26.964C11.803 26.9726 11.7463 26.977 11.687 26.977Z" fill="#333333" stroke="#333333" stroke-width="0.2"/>
<path d="M11.322 25.7809C8.529 25.7809 4.847 21.6259 4.809 21.5809L4.856 21.5409C4.894 21.5839 8.556 25.7169 11.322 25.7169H11.522C13.2132 25.5823 14.9109 25.5489 16.606 25.6169H16.706C18.624 25.6169 19.491 23.5169 20.406 21.2999C21.286 19.1499 22.2 16.9319 24.162 16.6999C25.732 16.5169 28.589 17.6499 31.112 18.6489C32.4805 19.2602 33.9026 19.7439 35.36 20.0939C36.425 20.2539 37.56 19.1199 38.769 17.9209C40.011 16.6789 41.296 15.3939 42.585 15.5349C45.116 15.8119 49.345 22.5349 49.524 22.8239L49.473 22.8559C49.43 22.7859 45.082 15.8679 42.578 15.5949C41.319 15.4569 40.045 16.7309 38.811 17.9639C37.577 19.1969 36.467 20.3179 35.355 20.1539C33.8937 19.8018 32.4675 19.3175 31.094 18.7069C28.571 17.7069 25.716 16.5809 24.168 16.7599C22.25 16.9859 21.336 19.1869 20.461 21.3149C19.541 23.5539 18.669 25.6699 16.707 25.6699H16.607C14.9149 25.6021 13.2202 25.6355 11.532 25.7699C11.458 25.7779 11.39 25.7809 11.322 25.7809Z" fill="#333333" stroke="#333333" stroke-width="0.2"/>
<path d="M16.473 24.86H16.326C15.734 24.826 15.158 24.771 14.6 24.715C13.4696 24.5725 12.3291 24.5277 11.191 24.581C9.59377 24.5023 8.06088 23.9272 6.806 22.936C6.02517 22.3944 5.28792 21.7926 4.601 21.136L4.644 21.093C4.68 21.129 8.144 24.527 10.944 24.527H11.18C12.3224 24.4732 13.4673 24.518 14.602 24.661C15.16 24.714 15.735 24.772 16.326 24.806H16.469C18.303 24.806 19.209 22.724 20.163 20.524C21.081 18.408 22.034 16.224 23.896 15.924C25.524 15.66 28.521 16.824 31.168 17.856C32.4406 18.4036 33.756 18.8458 35.101 19.178C36.166 19.355 37.301 18.285 38.493 17.154C39.756 15.954 41.05 14.719 42.413 14.872C44.946 15.162 49.203 21.772 49.384 22.05L49.333 22.082C49.288 22.014 44.91 15.217 42.407 14.932C41.088 14.781 39.789 16.01 38.536 17.197C37.33 18.339 36.192 19.419 35.091 19.238C33.7423 18.9004 32.4236 18.4529 31.148 17.9C28.51 16.873 25.525 15.71 23.904 15.972C22.074 16.272 21.134 18.441 20.218 20.54C19.259 22.76 18.345 24.86 16.473 24.86Z" fill="#333333" stroke="#333333" stroke-width="0.2"/>
<path d="M16.235 24.041H16.05C15.334 23.9723 14.6225 23.8628 13.919 23.713C12.9116 23.4725 11.8775 23.3616 10.842 23.383C9.30537 23.3598 7.80415 22.918 6.5 22.105C5.75655 21.6879 5.04763 21.212 4.38 20.682L4.418 20.635C5.08571 21.1626 5.79465 21.6357 6.538 22.05C7.83028 22.8584 9.3198 23.2964 10.844 23.316C11.8852 23.2931 12.925 23.404 13.938 23.646C14.6359 23.7952 15.3417 23.9047 16.052 23.974H16.231C17.984 23.974 18.931 21.901 19.936 19.713C20.89 17.636 21.879 15.486 23.636 15.113C25.33 14.761 28.6 16.013 31.229 17.031C32.4052 17.5251 33.6157 17.9332 34.851 18.252C35.916 18.446 37.045 17.438 38.234 16.371C39.512 15.22 40.844 14.027 42.254 14.2C44.787 14.5 49.072 20.99 49.254 21.265L49.203 21.299C49.158 21.231 44.75 14.558 42.245 14.268C40.852 14.089 39.539 15.268 38.278 16.411C37.078 17.489 35.934 18.505 34.841 18.311C33.6028 18.0003 32.3916 17.5906 31.219 17.086C28.598 16.08 25.336 14.83 23.662 15.168C21.913 15.537 20.933 17.678 19.987 19.749C18.982 21.951 18.025 24.041 16.235 24.041Z" fill="#333333" stroke="#333333" stroke-width="0.2"/>
<path d="M15.991 23.226C15.9198 23.2276 15.8486 23.2239 15.778 23.215C15.0073 23.1117 14.2473 22.94 13.507 22.702C12.5486 22.3632 11.5405 22.1867 10.524 22.18C7.541 22.372 4.224 20.25 4.192 20.228L4.218 20.173C6.00005 21.295 8.02844 21.9663 10.128 22.129C10.258 22.129 10.386 22.129 10.514 22.116C11.5388 22.1225 12.5554 22.2996 13.522 22.64C14.2589 22.8787 15.0155 23.0514 15.783 23.156C17.583 23.335 18.623 21.185 19.72 18.91C20.706 16.863 21.72 14.743 23.382 14.321C25.144 13.871 28.553 15.173 31.293 16.207C32.3682 16.655 33.4732 17.0279 34.6 17.323C35.665 17.536 36.794 16.586 37.979 15.582C39.279 14.482 40.621 13.341 42.097 13.524C44.632 13.835 48.949 20.208 49.128 20.478L49.077 20.512C49.032 20.446 44.603 13.894 42.087 13.586C40.64 13.407 39.307 14.538 38.015 15.631C36.815 16.645 35.688 17.602 34.585 17.384C33.4559 17.0857 32.3484 16.7112 31.27 16.263C28.539 15.225 25.136 13.936 23.387 14.38C21.757 14.795 20.745 16.9 19.765 18.935C18.712 21.14 17.712 23.226 15.991 23.226Z" fill="#333333" stroke="#333333" stroke-width="0.2"/>
<path d="M15.744 22.412C15.6628 22.4119 15.5816 22.4069 15.501 22.397C14.6909 22.2571 13.9001 22.0221 13.145 21.697C12.2151 21.2635 11.2082 21.0198 10.183 20.98C8.05524 21.0103 5.94424 20.5997 3.983 19.774L4.009 19.719C5.96396 20.5405 8.06765 20.949 10.188 20.919C11.2207 20.9558 12.2352 21.2007 13.171 21.639C13.9231 21.961 14.7095 22.1958 15.515 22.339C17.264 22.552 18.355 20.383 19.515 18.078C20.529 16.069 21.577 13.992 23.137 13.519C24.965 12.965 28.51 14.299 31.359 15.373C32.3375 15.7726 33.3393 16.1126 34.359 16.391C35.437 16.619 36.553 15.728 37.734 14.791C39.051 13.741 40.414 12.66 41.948 12.848C44.483 13.17 48.83 19.423 49.013 19.689L48.962 19.723C48.917 19.659 44.447 13.223 41.931 12.905C40.418 12.722 39.065 13.805 37.757 14.852C36.564 15.804 35.439 16.703 34.331 16.469C33.3085 16.19 32.304 15.849 31.323 15.448C28.483 14.383 24.948 13.048 23.139 13.597C21.611 14.053 20.57 16.13 19.562 18.118C18.445 20.319 17.391 22.412 15.744 22.412Z" fill="#333333" stroke="#333333" stroke-width="0.2"/>
<path d="M15.488 21.6009C15.3987 21.6011 15.3094 21.5947 15.221 21.5819C14.3755 21.3992 13.5592 21.1011 12.795 20.6959C11.8913 20.1739 10.881 19.8635 9.84 19.7879C7.80531 19.8732 5.7677 19.7165 3.77 19.3209L3.783 19.2609C5.77597 19.6537 7.80857 19.8082 9.838 19.7209C10.8888 19.7955 11.9088 20.108 12.821 20.6349C13.5803 21.0372 14.3912 21.3333 15.231 21.5149C16.918 21.7599 18.073 19.5659 19.3 17.2429C20.34 15.2719 21.411 13.2429 22.86 12.7299C24.76 12.0589 28.587 13.4969 31.382 14.5469C32.2646 14.9039 33.1659 15.2126 34.082 15.4719C35.166 15.7189 36.282 14.8839 37.457 13.9999C38.791 12.9999 40.167 11.9669 41.763 12.1779C44.301 12.5099 48.675 18.6459 48.863 18.9079L48.814 18.9439C48.769 18.8799 44.269 12.5689 41.76 12.2439C40.19 12.0309 38.822 13.0639 37.499 14.0549C36.308 14.9479 35.181 15.7889 34.073 15.5459C33.1535 15.2863 32.2489 14.9769 31.363 14.6189C28.576 13.5729 24.763 12.1389 22.881 12.8039C21.456 13.2959 20.39 15.3199 19.357 17.2759C18.183 19.4929 17.07 21.6009 15.488 21.6009Z" fill="#333333" stroke="#333333" stroke-width="0.2"/>
<path d="M15.232 20.782C15.1372 20.7823 15.0425 20.7746 14.949 20.759C14.0738 20.5296 13.2379 20.1707 12.469 19.694C11.5882 19.0846 10.5696 18.7038 9.505 18.586C6.362 18.756 3.593 18.869 3.565 18.869V18.809C3.593 18.809 6.365 18.696 9.503 18.526C10.5801 18.6379 11.6117 19.019 12.503 19.634C13.2648 20.1112 14.0946 20.4703 14.964 20.699C15.0542 20.7143 15.1455 20.722 15.237 20.722C16.728 20.722 17.887 18.613 19.113 16.388C20.178 14.47 21.263 12.483 22.605 11.937C24.574 11.137 28.53 12.625 31.419 13.712C32.425 14.089 33.292 14.412 33.837 14.549C34.924 14.815 36.037 14.033 37.214 13.209C38.492 12.309 39.956 11.291 41.614 11.509C42.679 11.654 44.205 12.809 46.144 14.95C47.582 16.55 48.726 18.114 48.737 18.129L48.688 18.165C48.677 18.15 47.533 16.582 46.088 14.995C44.761 13.531 42.905 11.75 41.595 11.573C39.963 11.36 38.58 12.323 37.242 13.263C36.051 14.098 34.928 14.884 33.816 14.614C33.266 14.48 32.397 14.154 31.389 13.775C28.512 12.691 24.575 11.213 22.625 11.991C21.3 12.526 20.213 14.501 19.163 16.412C17.925 18.658 16.766 20.782 15.232 20.782Z" fill="#333333" stroke="#333333" stroke-width="0.2"/>
<path d="M14.96 19.9599C14.8633 19.96 14.7669 19.9506 14.672 19.9319C13.7661 19.6543 12.9121 19.2297 12.144 18.6749C11.297 18.0129 10.3018 17.5668 9.244 17.3749H9.167C7.19881 17.4852 5.25126 17.8337 3.367 18.4129L3.344 18.3549C5.23557 17.7778 7.19019 17.4322 9.165 17.3259C10.2674 17.4846 11.3079 17.9332 12.18 18.6259C12.9388 19.1772 13.7835 19.5992 14.68 19.8749C16.246 20.1819 17.616 17.8059 18.92 15.5089C19.985 13.6399 21.095 11.7089 22.329 11.1369C24.364 10.1999 28.61 11.8019 31.418 12.8629C32.311 13.1999 33.08 13.4889 33.568 13.6169C34.661 13.9019 35.773 13.1759 36.951 12.4049C38.251 11.5529 39.721 10.5919 41.425 10.8309C42.49 10.9799 44.025 12.1089 45.972 14.2209C47.423 15.7829 48.572 17.3209 48.586 17.3379L48.537 17.3739C48.526 17.3589 47.376 15.8229 45.927 14.2629C44.593 12.8269 42.727 11.0629 41.417 10.8919C39.727 10.6579 38.266 11.6139 36.975 12.4579C35.784 13.2359 34.659 13.9709 33.543 13.6789C33.053 13.5509 32.28 13.2529 31.387 12.9229C28.589 11.8609 24.358 10.2739 22.344 11.2009C21.121 11.7629 20.02 13.6869 18.954 15.5469C17.73 17.7199 16.444 19.9599 14.96 19.9599Z" fill="#333333" stroke="#333333" stroke-width="0.2"/>
<path d="M14.694 19.1529C14.5931 19.1535 14.4925 19.1428 14.394 19.1209C13.4655 18.791 12.6005 18.3039 11.837 17.6809C10.9999 16.9418 9.98795 16.4286 8.897 16.1899H8.835C6.8257 16.3031 4.87537 16.9104 3.157 17.9579L3.131 17.9059C4.85573 16.8528 6.81349 16.2411 8.831 16.1249H8.884C9.726 16.1249 10.802 16.8879 11.867 17.6159C12.6235 18.2433 13.4847 18.7325 14.411 19.0609C15.911 19.3979 17.358 16.9769 18.753 14.6209C19.818 12.8099 20.941 10.9369 22.081 10.3469C24.181 9.25995 28.543 10.9199 31.43 12.0189C32.216 12.3189 32.894 12.5749 33.33 12.6969C34.43 13.0039 35.542 12.3259 36.722 11.6099C38.034 10.8099 39.522 9.90995 41.29 10.1609C42.355 10.3119 43.89 11.4389 45.852 13.4969C47.309 15.0329 48.468 16.5499 48.481 16.5499L48.432 16.5859C48.421 16.5709 47.262 15.0649 45.807 13.5329C44.469 12.1329 42.592 10.4119 41.273 10.2239C39.528 9.97495 38.049 10.8629 36.746 11.6639C35.555 12.3859 34.43 13.0699 33.307 12.7569C32.881 12.6359 32.193 12.3779 31.407 12.0769C28.707 11.0479 24.187 9.32595 22.113 10.3999C20.99 10.9819 19.88 12.8479 18.813 14.6499C17.489 16.8689 16.131 19.1529 14.694 19.1529Z" fill="#333333" stroke="#333333" stroke-width="0.2"/>
<path d="M14.423 18.338C14.3218 18.3378 14.221 18.325 14.123 18.3C13.1685 17.9139 12.2887 17.3643 11.523 16.676C10.432 15.824 9.303 14.955 8.495 14.993C6.4102 15.1462 4.4474 16.0342 2.956 17.499L2.918 17.456C4.42203 15.9802 6.40057 15.0856 8.502 14.931C9.335 14.895 10.471 15.783 11.57 16.631C12.3292 17.3132 13.2007 17.8589 14.146 18.244C15.588 18.61 17.129 16.113 18.603 13.71C19.717 11.876 20.78 10.154 21.82 9.54897C23.978 8.29997 28.638 10.092 31.408 11.164C32.122 11.439 32.686 11.656 33.068 11.769C34.174 12.097 35.237 11.498 36.477 10.808C37.8296 9.84824 39.4709 9.38256 41.126 9.48897C42.191 9.64497 43.734 10.75 45.705 12.772C47.171 14.272 48.338 15.755 48.349 15.772L48.3 15.81C48.289 15.795 47.122 14.319 45.66 12.827C44.311 11.442 42.43 9.75297 41.118 9.56097C39.476 9.4567 37.8481 9.91991 36.507 10.873C35.314 11.542 34.189 12.173 33.058 11.84C32.675 11.727 32.108 11.508 31.394 11.233C28.624 10.168 23.988 8.37997 21.858 9.61397C20.831 10.208 19.727 12.007 18.658 13.747C17.255 16.003 15.818 18.338 14.423 18.338Z" fill="#333333" stroke="#333333" stroke-width="0.2"/>
<path d="M14.152 17.5239C14.0505 17.5234 13.9496 17.509 13.852 17.4809C12.878 17.0378 11.9884 16.4287 11.223 15.681C10.109 14.741 8.956 13.7629 8.166 13.7999C4.81 13.9339 2.771 17.0129 2.752 17.0449L2.704 17.007C2.725 16.975 4.779 13.8709 8.167 13.7339H8.207C9.021 13.7339 10.161 14.6969 11.266 15.6339C12.0246 16.3779 12.9063 16.9849 13.872 17.4279C15.257 17.8219 16.887 15.2589 18.461 12.7769C19.573 11.0259 20.626 9.36795 21.567 8.76495C23.776 7.34195 28.726 9.27595 31.383 10.3159C32.001 10.5569 32.489 10.7419 32.823 10.8529C33.937 11.2019 35.005 10.6529 36.232 10.0159C37.6339 9.10951 39.296 8.69152 40.96 8.82695C42.025 8.98695 43.574 10.0729 45.56 12.0589C47.032 13.5349 48.208 14.9819 48.221 14.9969L48.174 15.035C48.163 15.02 46.989 13.5759 45.517 12.1009C44.158 10.7409 42.267 9.08395 40.954 8.88395C39.3041 8.75118 37.6566 9.16667 36.267 10.0659C35.018 10.7049 33.94 11.2659 32.803 10.9179C32.466 10.8109 31.978 10.6179 31.358 10.3789C28.697 9.33095 23.777 7.40295 21.594 8.80895C20.663 9.40895 19.615 11.0569 18.505 12.8039C17.028 15.1269 15.504 17.5239 14.152 17.5239Z" fill="#333333" stroke="#333333" stroke-width="0.2"/>
<path d="M13.877 16.7089C13.7728 16.7094 13.6693 16.6935 13.57 16.6619C12.5788 16.1561 11.6809 15.4852 10.915 14.6779C9.79 13.6549 8.629 12.5959 7.853 12.5959H7.817C4.408 12.7149 2.554 16.5499 2.537 16.5819L2.491 16.5559C2.491 16.5219 4.372 12.6679 7.817 12.5419H7.849C8.649 12.5419 9.82 13.6069 10.949 14.6419C11.7098 15.4412 12.5991 16.1075 13.58 16.6129C14.905 17.0389 16.644 14.3819 18.323 11.8129C19.1241 10.3982 20.1236 9.10545 21.291 7.97394C23.545 6.36294 28.601 8.37394 31.305 9.46494C31.833 9.67794 32.253 9.84194 32.543 9.93794C33.666 10.3129 34.737 9.80594 35.98 9.22194C37.4283 8.37137 39.1078 7.99873 40.78 8.15694C41.845 8.32094 43.401 9.39094 45.391 11.3359C46.891 12.7759 48.069 14.1929 48.082 14.2079L48.035 14.2459C48.022 14.2309 46.842 12.8159 45.363 11.3719C44.002 10.0399 42.101 8.41094 40.787 8.20994C39.1273 8.0518 37.4599 8.41984 36.021 9.26194C34.768 9.85194 33.677 10.3619 32.54 9.97994C32.248 9.87994 31.828 9.71594 31.3 9.50494C28.6 8.42694 23.562 6.42194 21.333 8.01394C20.1691 9.14341 19.1745 10.4351 18.38 11.8489C16.813 14.2369 15.191 16.7089 13.877 16.7089Z" fill="#333333" stroke="#333333" stroke-width="0.2"/>
<path d="M2.327 16.124L2.278 16.105C2.295 16.058 3.978 11.456 7.494 11.339H7.52C8.306 11.339 9.508 12.509 10.671 13.639C11.4302 14.4963 12.3267 15.2212 13.324 15.784C14.581 16.236 16.524 13.353 18.239 10.796C19.0265 9.48263 19.9664 8.26688 21.039 7.17396C23.329 5.36296 28.683 7.54296 31.266 8.58896C31.713 8.76996 32.066 8.91496 32.314 9.00196C33.447 9.40196 34.526 8.93996 35.774 8.40796C37.2596 7.61211 38.9523 7.28738 40.627 7.47696C41.692 7.64296 43.254 8.69596 45.255 10.603C46.746 12.022 47.933 13.409 47.946 13.424L47.899 13.464C47.852 13.409 43.141 7.92496 40.617 7.53896C38.949 7.35715 37.2648 7.67861 35.781 8.46196C34.522 8.99896 33.437 9.46196 32.281 9.06196C32.032 8.97496 31.681 8.82996 31.231 8.64896C28.674 7.60696 23.348 5.43596 21.075 7.22596C20.0039 8.31797 19.0651 9.53234 18.278 10.844C16.55 13.405 14.603 16.311 13.29 15.844C12.2817 15.2813 11.3767 14.5509 10.614 13.684C9.459 12.561 8.27 11.4 7.506 11.4H7.483C4.021 11.514 2.344 16.08 2.327 16.124Z" fill="#333333" stroke="#333333" stroke-width="0.2"/>
<path d="M2.116 15.669L2.065 15.654C2.35084 14.7051 2.75076 13.7944 3.256 12.942C4.006 11.696 5.291 10.198 7.156 10.142H7.177C7.95 10.142 9.186 11.42 10.377 12.654C11.1371 13.562 12.0366 14.3434 13.042 14.969C14.256 15.448 16.342 12.427 18.183 9.75996C18.9437 8.55465 19.814 7.42218 20.783 6.37696C23.099 4.35096 28.762 6.71196 31.183 7.71896C31.554 7.87196 31.846 7.99596 32.057 8.07296C33.201 8.49896 34.288 8.07296 35.545 7.59996C37.0815 6.8739 38.7923 6.59824 40.479 6.80496C43.025 7.20496 47.779 12.583 47.829 12.638L47.782 12.678C47.735 12.625 42.992 7.26596 40.468 6.86396C38.7928 6.65925 37.0939 6.93315 35.568 7.65395C34.29 8.13995 33.203 8.56196 32.038 8.12696C31.825 8.04796 31.538 7.92696 31.162 7.77096C28.754 6.77096 23.115 4.41696 20.827 6.41796C19.8639 7.46304 18.9968 8.59258 18.236 9.79296C16.382 12.478 14.282 15.522 13.023 15.021C12.0059 14.3961 11.0976 13.6094 10.334 12.692C9.147 11.465 7.92 10.199 7.183 10.199H7.164C5.325 10.254 4.056 11.735 3.314 12.969C2.80693 13.8172 2.40466 14.7238 2.116 15.669V15.669Z" fill="#333333" stroke="#333333" stroke-width="0.2"/>
<path d="M1.905 15.2129L1.852 15.2019C2.10183 14.1335 2.47291 13.0971 2.958 12.1129C3.983 10.0779 5.31 8.98294 6.812 8.94294H6.829C7.592 8.94294 8.864 10.3299 10.093 11.6719C10.8561 12.6258 11.7574 13.4603 12.767 14.1479C13.93 14.6639 16.287 11.3269 18.179 8.64794C18.885 7.5711 19.6684 6.54707 20.523 5.58394C22.852 3.32994 28.623 5.79694 31.093 6.86194C31.393 6.98994 31.628 7.08994 31.802 7.16194C32.959 7.61594 34.054 7.24294 35.322 6.80994C36.898 6.14859 38.622 5.91972 40.316 6.14694C42.873 6.55994 47.649 11.8139 47.698 11.8679L47.653 11.9079C47.606 11.8549 42.834 6.61594 40.307 6.20794C38.6231 5.98456 36.91 6.21232 35.343 6.86794C34.065 7.29394 32.959 7.68194 31.781 7.21994C31.606 7.15194 31.37 7.04994 31.069 6.91994C28.615 5.86994 22.869 3.41294 20.569 5.64194C19.717 6.60401 18.9337 7.62487 18.225 8.69694C16.225 11.5259 13.953 14.7439 12.743 14.2109C11.7199 13.5248 10.8092 12.6845 10.043 11.7199C8.822 10.3759 7.559 9.00794 6.826 9.00794H6.814C5.783 9.03594 4.287 9.59994 3.007 12.1439C2.52476 13.1228 2.15571 14.1535 1.907 15.2159L1.905 15.2129Z" fill="#333333" stroke="#333333" stroke-width="0.2"/>
<path d="M1.695 14.759H1.635C1.84943 13.5674 2.1914 12.4024 2.655 11.284C3.629 9.00398 4.95 7.78398 6.477 7.74498H6.49C7.24 7.74498 8.555 9.24497 9.824 10.702C10.5832 11.702 11.4832 12.5868 12.496 13.329C13.617 13.885 16.296 10.159 18.259 7.42898C18.8835 6.51537 19.5533 5.6336 20.266 4.78697C22.595 2.28697 28.699 4.97198 30.998 5.98698C31.211 6.08698 31.411 6.16797 31.55 6.22597C32.7255 6.58147 33.99 6.49977 35.11 5.99598C36.7223 5.40336 38.4565 5.22022 40.157 5.46298C42.714 5.88898 47.522 11.02 47.569 11.073L47.524 11.116C47.475 11.065 42.675 5.94297 40.146 5.52497C38.4545 5.28419 36.7297 5.46663 35.126 6.05597C33.993 6.56465 32.7141 6.64565 31.526 6.28398C31.385 6.22598 31.194 6.14097 30.972 6.04497C28.682 5.04497 22.605 2.36797 20.306 4.83497C19.842 5.33497 19.13 6.32597 18.306 7.47297C16.378 10.162 14 13.447 12.745 13.449C12.6498 13.45 12.5556 13.4288 12.47 13.387C11.4504 12.6406 10.544 11.7507 9.779 10.745C8.515 9.30898 7.211 7.81597 6.488 7.81597H6.478C5.432 7.83097 3.928 8.45498 2.705 11.308C2.24623 12.419 1.90763 13.5759 1.695 14.759V14.759Z" fill="#333333" stroke="#333333" stroke-width="0.2"/>
<path d="M1.484 14.303H1.424C1.60649 12.9966 1.91972 11.7118 2.359 10.468C3.282 7.92797 4.588 6.57497 6.139 6.53697C6.88 6.53697 8.239 8.16497 9.548 9.73697C10.3089 10.7711 11.2007 11.7021 12.201 12.507C13.315 13.121 16.415 8.86397 18.471 6.04697C19.11 5.17297 19.656 4.41897 20.007 3.99997C22.323 1.24297 28.776 4.16597 30.898 5.12497L31.298 5.30397C32.4733 5.69353 33.7484 5.65492 34.898 5.19497C36.5412 4.67118 38.2832 4.53428 39.988 4.79497C42.545 5.22097 47.388 10.241 47.432 10.295L47.387 10.338C47.338 10.287 42.508 5.27997 39.977 4.85797C38.2784 4.59927 36.543 4.73616 34.906 5.25797C33.7426 5.72541 32.4503 5.76088 31.263 5.35797L30.863 5.17897C28.752 4.22197 22.341 1.31397 20.044 4.03697C19.692 4.46297 19.144 5.20897 18.51 6.07997C16.45 8.91597 13.331 13.2 12.186 12.568C11.1805 11.7634 10.283 10.8324 9.516 9.79797C8.21 8.23397 6.857 6.61897 6.145 6.61897C5.08 6.63797 3.573 7.32597 2.421 10.486C1.97994 11.7246 1.66436 13.0043 1.479 14.306L1.484 14.303Z" fill="#333333" stroke="#333333" stroke-width="0.2"/>
<path d="M1.273 13.849H1.211C1.36131 12.4161 1.64726 11.0008 2.065 9.62195C2.937 6.85195 4.23 5.35995 5.807 5.34795C6.542 5.34795 7.959 7.11195 9.331 8.81895C10.0859 9.87611 10.9634 10.8402 11.945 11.691C13.066 12.383 17.045 6.90595 18.952 4.27395C19.269 3.83495 19.544 3.45795 19.74 3.20895C20.716 1.91595 22.629 1.59995 25.426 2.26895C27.2749 2.75838 29.0711 3.42826 30.789 4.26895L31.034 4.38195C32.2145 4.81544 33.5095 4.82145 34.694 4.39895C36.3672 3.95101 38.1157 3.85802 39.827 4.12595C42.384 4.55195 47.254 9.45195 47.303 9.51195L47.26 9.55495C47.211 9.50595 42.36 4.61795 39.818 4.18795C38.1135 3.91768 36.3711 4.01071 34.705 4.46095C33.5063 4.88147 32.1989 4.87405 31.005 4.43995L30.76 4.32495C29.046 3.48731 27.2541 2.81946 25.41 2.33095C22.64 1.66595 20.746 1.97495 19.785 3.24695C19.591 3.50495 19.316 3.88595 18.999 4.31195C16.93 7.16295 13.076 12.468 11.913 11.746C10.9252 10.8923 10.0433 9.92342 9.286 8.85995C7.988 7.24195 6.521 5.41195 5.811 5.41195C4.733 5.42695 3.221 6.17295 2.127 9.64295C1.71023 11.0149 1.42429 12.4231 1.273 13.849V13.849Z" fill="#333333" stroke="#333333" stroke-width="0.2"/>
<path d="M1.062 13.389H1C1.11819 11.8358 1.37487 10.2964 1.767 8.78896C2.587 5.76796 3.867 4.16396 5.474 4.14396C6.205 4.14396 7.692 6.06196 9.13 7.91896C9.87361 8.99059 10.7309 9.97867 11.687 10.866C11.7326 10.8962 11.7839 10.9168 11.8377 10.9264C11.8915 10.936 11.9468 10.9345 12 10.922C12.675 10.798 14.028 9.52196 15.9 7.20596C17.466 5.28796 18.925 3.22596 19.479 2.40596C20.441 0.997961 22.421 0.639961 25.359 1.36596C27.2037 1.86488 28.9932 2.54938 30.7 3.40896L30.785 3.44896C31.9741 3.9208 33.2888 3.97196 34.511 3.59396C36.2048 3.21311 37.9561 3.16252 39.669 3.44496C42.226 3.88996 47.126 8.66896 47.177 8.71796L47.134 8.76296C47.085 8.71396 42.193 3.94796 39.66 3.50696C37.9539 3.22751 36.21 3.27809 34.523 3.65596C33.2872 4.03389 31.9596 3.98065 30.758 3.50496L30.673 3.46496C28.9706 2.60748 27.1859 1.92434 25.346 1.42596C22.434 0.705961 20.478 1.04696 19.536 2.44196C18.368 4.16796 13.666 10.675 12 10.984C11.9391 10.9989 11.8757 11.0013 11.8138 10.991C11.7519 10.9807 11.6928 10.9579 11.64 10.924C10.6867 10.0304 9.83063 9.03858 9.086 7.96496C7.718 6.20696 6.173 4.21296 5.474 4.21296C3.491 4.23396 2.4 6.72496 1.831 8.80996C1.43905 10.3104 1.1817 11.8428 1.062 13.389V13.389Z" fill="#333333" stroke="#333333" stroke-width="0.2"/>
<path d="M73.2 18.9999H75.552V15.2719H77.472C77.9581 15.3138 78.4475 15.253 78.9086 15.0934C79.3696 14.9338 79.7919 14.6789 80.148 14.3455C80.5042 14.012 80.7861 13.6073 80.9756 13.1577C81.1651 12.7081 81.2579 12.2237 81.248 11.7359C81.2583 11.247 81.1674 10.7611 80.9809 10.309C80.7945 9.85683 80.5165 9.44812 80.1645 9.10854C79.8126 8.76896 79.3942 8.50584 78.9356 8.33571C78.4771 8.16558 77.9883 8.09212 77.5 8.11994H73.2V18.9999ZM75.552 13.2999V10.1199H77.184C77.4047 10.0991 77.6273 10.1253 77.8371 10.1967C78.047 10.2682 78.2393 10.3833 78.4014 10.5344C78.5636 10.6856 78.6918 10.8694 78.7778 11.0738C78.8637 11.2781 78.9054 11.4983 78.9 11.7199C78.906 11.9437 78.8635 12.1662 78.7754 12.372C78.6873 12.5778 78.5557 12.7621 78.3896 12.9122C78.2235 13.0623 78.0269 13.1747 77.8133 13.2416C77.5996 13.3086 77.374 13.3285 77.152 13.2999H75.552ZM86.64 19.2239C87.1839 19.2514 87.7276 19.1656 88.2366 18.9719C88.7456 18.7783 89.2088 18.481 89.5969 18.0989C89.985 17.7169 90.2895 17.2583 90.4911 16.7524C90.6927 16.2465 90.787 15.7042 90.768 15.1599C90.7832 14.6188 90.686 14.0805 90.4824 13.5789C90.2789 13.0773 89.9734 12.6234 89.5854 12.2459C89.1974 11.8684 88.7353 11.5756 88.2283 11.3859C87.7213 11.1962 87.1805 11.1138 86.64 11.1439C86.0991 11.112 85.5574 11.1931 85.0496 11.3821C84.5418 11.5712 84.0789 11.8639 83.6905 12.2418C83.3021 12.6196 82.9968 13.0743 82.7938 13.5767C82.5909 14.0791 82.4949 14.6183 82.512 15.1599C82.4916 15.7046 82.585 16.2475 82.7861 16.754C82.9872 17.2606 83.2917 17.7197 83.68 18.102C84.0684 18.4844 84.5322 18.7816 85.0418 18.9748C85.5515 19.1679 86.0958 19.2528 86.64 19.2239V19.2239ZM86.64 17.2879C86.3712 17.2863 86.1057 17.2282 85.8607 17.1176C85.6157 17.007 85.3966 16.8462 85.2176 16.6457C85.0386 16.4452 84.9036 16.2094 84.8213 15.9535C84.739 15.6975 84.7113 15.4272 84.74 15.1599C84.7139 14.8946 84.7436 14.6266 84.8272 14.3734C84.9108 14.1202 85.0464 13.8872 85.2253 13.6895C85.4042 13.4917 85.6225 13.3336 85.8661 13.2252C86.1097 13.1168 86.3733 13.0605 86.64 13.0599C86.9067 13.0605 87.1703 13.1168 87.4139 13.2252C87.6575 13.3336 87.8758 13.4917 88.0547 13.6895C88.2336 13.8872 88.3692 14.1202 88.4528 14.3734C88.5364 14.6266 88.5661 14.8946 88.54 15.1599C88.5687 15.4272 88.541 15.6975 88.4587 15.9535C88.3764 16.2094 88.2414 16.4452 88.0624 16.6457C87.8834 16.8462 87.6643 17.007 87.4193 17.1176C87.1743 17.2282 86.9088 17.2863 86.64 17.2879V17.2879ZM94.976 19.1759C96.928 19.1759 98.16 18.1999 98.16 16.8399C98.1763 16.4183 98.049 16.0035 97.7991 15.6635C97.5492 15.3235 97.1913 15.0783 96.784 14.9679C97.0787 14.8276 97.3263 14.6048 97.4967 14.3264C97.6671 14.0481 97.753 13.7262 97.744 13.3999C97.744 11.9759 96.464 11.2079 94.912 11.2079C93.9509 11.2104 93.0054 11.4509 92.16 11.9079L92.768 13.4599C93.3037 13.1791 93.8955 13.0219 94.5 12.9999C95.236 12.9999 95.572 13.2999 95.572 13.6719C95.572 14.0719 95.284 14.3279 94.756 14.3279H93.52V15.8999H94.992C95.632 15.8999 95.92 16.1999 95.92 16.6199C95.92 17.0999 95.52 17.4199 94.656 17.4199C93.9109 17.421 93.18 17.2161 92.544 16.8279L91.824 18.3799C92.7742 18.9478 93.8701 19.2245 94.976 19.1759V19.1759ZM104.224 15.0479L107.008 11.4319V11.3679H104.544L102.336 14.2999V11.3679H100.144V18.9999H102.336V15.8319L104.72 18.9999H107.22V18.9199L104.224 15.0479ZM111.824 11.2079C110.667 11.2191 109.527 11.4984 108.496 12.0239L109.12 13.6719C109.843 13.2946 110.641 13.0815 111.456 13.0479C112.304 13.0479 112.8 13.3479 112.8 14.0239V14.3239C112.608 14.3079 112.416 14.2919 112.08 14.2919C109.78 14.2919 108.192 15.1719 108.192 16.9919C108.189 17.2963 108.25 17.598 108.371 17.8771C108.493 18.1561 108.672 18.4063 108.897 18.6111C109.123 18.8159 109.389 18.9707 109.678 19.0653C109.967 19.1599 110.273 19.1922 110.576 19.1599C111.085 19.1942 111.594 19.0961 112.054 18.8753C112.514 18.6545 112.908 18.3185 113.2 17.8999L113.584 18.9999H115.024V14.1519C115.024 12.2159 113.808 11.2079 111.824 11.2079ZM111.264 17.5919C110.704 17.5919 110.336 17.3199 110.336 16.7599C110.336 16.0239 111.008 15.5919 112.128 15.5919C112.379 15.5899 112.631 15.6059 112.88 15.6399C112.864 16.9199 112.144 17.5919 111.264 17.5919V17.5919ZM125.184 15.0479L127.632 11.4319V11.3679H125.2L123.312 14.4079V11.3679H121.1V14.4239L119.2 11.3679H116.768V11.4319L119.216 15.0479L116.56 18.8999V18.9999H118.992L121.12 15.7359V18.9999H123.312V15.7519L125.424 18.9999H127.856V18.8999L125.184 15.0479ZM135.484 11.3359L132.336 14.4999C132.096 14.7559 131.856 15.0119 131.616 15.2999C131.648 14.9756 131.664 14.6499 131.664 14.3239V11.3639H129.488V19.0159H130.416L133.584 15.8159C133.826 15.5774 134.056 15.3264 134.272 15.0639C134.24 15.3839 134.24 15.7199 134.24 16.0399V18.9999H136.416V11.3359H135.484ZM81.004 26.3359H80.32L77.728 29.3119C77.536 29.5199 77.36 29.7439 77.184 29.9679C77.008 29.7439 76.832 29.5199 76.64 29.3119L74.032 26.3359H73.36L72.64 33.9999H74.8L75.072 30.9759L75.12 30.2399C75.312 30.4959 75.504 30.7399 75.712 30.9759L76.96 32.4639H77.408L78.736 30.8799C78.928 30.6719 79.104 30.4479 79.28 30.2399C79.28 30.4479 79.296 30.6559 79.312 30.8639L79.552 33.9999H81.728L81.004 26.3359ZM87.244 26.1439C86.7182 26.1363 86.1963 26.2356 85.7101 26.4357C85.2238 26.6359 84.7833 26.9327 84.4152 27.3083C84.0471 27.6839 83.7592 28.1303 83.5689 28.6205C83.3785 29.1107 83.2898 29.6344 83.308 30.1599C83.2856 30.7106 83.3797 31.2598 83.5842 31.7716C83.7887 32.2834 84.099 32.7463 84.4947 33.1299C84.8904 33.5135 85.3626 33.8093 85.8805 33.9978C86.3984 34.1863 86.9503 34.2634 87.5 34.2239C88.6002 34.252 89.6737 33.8828 90.524 33.1839L89.708 31.8079C89.1599 32.2475 88.4744 32.4798 87.772 32.4639C87.267 32.5207 86.7588 32.3887 86.3453 32.0933C85.9318 31.7979 85.6421 31.3601 85.532 30.8639H90.72C90.7641 30.5512 90.7855 30.2357 90.784 29.9199C90.784 27.6319 89.488 26.1439 87.248 26.1439H87.244ZM87.216 27.8999C87.4191 27.892 87.6215 27.9281 87.8093 28.0057C87.9971 28.0832 88.166 28.2005 88.3042 28.3494C88.4425 28.4984 88.547 28.6754 88.6105 28.8685C88.6739 29.0615 88.6949 29.266 88.672 29.4679H85.52C85.5532 29.041 85.7464 28.6424 86.0608 28.3517C86.3752 28.061 86.7878 27.8997 87.216 27.8999V27.8999ZM97.584 26.3679V29.2159H94.992V26.3679H92.8V33.9999H94.992V31.0719H97.584V33.9999H99.792V26.3679H97.584ZM103.328 25.0999C103.567 25.0855 103.797 25.0012 103.989 24.8576C104.181 24.7139 104.326 24.5172 104.407 24.2917C104.489 24.0663 104.502 23.8219 104.446 23.5889C104.39 23.356 104.267 23.1445 104.091 22.9808C103.916 22.8171 103.697 22.7083 103.461 22.6678C103.225 22.6273 102.982 22.6569 102.762 22.753C102.543 22.8491 102.356 23.0075 102.226 23.2085C102.095 23.4094 102.026 23.6443 102.028 23.8839C102.026 24.0513 102.059 24.2173 102.125 24.3712C102.191 24.5251 102.288 24.6637 102.41 24.778C102.533 24.8924 102.677 24.9801 102.835 25.0355C102.993 25.0909 103.161 25.1128 103.328 25.0999ZM102.228 33.9999H104.42V26.3679H102.224L102.228 33.9999Z" fill="#333333"/>
<path fill-rule="evenodd" clip-rule="evenodd" d="M60.574 33.6559V9.50095H61.574V33.6559H60.574Z" fill="#333333"/>
</svg>
