<svg width="120" height="120" viewBox="0 0 120 120" fill="none" xmlns="http://www.w3.org/2000/svg">
<path d="M69.8428 50.157V30.4907H50.1577V50.157H30.4915V69.8421H50.1577V89.5084H69.8428V69.8421H89.5091V50.157H69.8428Z" fill="#EE3124"/>
<path d="M99.3514 60.0002H98.369C98.369 70.5984 94.0806 80.1765 87.1285 87.1286C80.1763 94.0808 70.5983 98.3692 60 98.3692C49.4018 98.3692 39.8237 94.0808 32.8715 87.1286C25.9383 80.1765 21.6499 70.5984 21.6499 60.0002C21.6499 49.4019 25.9383 39.8238 32.8904 32.8717C39.8237 25.9385 49.4018 21.65 60 21.65C70.5983 21.65 80.1763 25.9385 87.1285 32.8906C94.0806 39.8427 98.369 49.4208 98.369 60.0191H99.3514H100.334C100.334 37.7458 82.2733 19.6853 60 19.6853C37.7267 19.6853 19.6663 37.7458 19.6663 60.0191C19.6663 82.2924 37.7267 100.353 60 100.353C82.2733 100.353 100.334 82.2924 100.334 60.0191H99.3514V60.0002Z" fill="#EE3124"/>
<path d="M119.018 60H118.035C118.035 76.0202 111.537 90.529 101.033 101.033C90.529 111.537 76.0202 118.035 60 118.035C43.9799 118.035 29.471 111.537 18.9673 101.033C8.46348 90.529 1.96474 76.0202 1.96474 60C1.96474 43.9799 8.46348 29.471 18.9673 18.9673C29.471 8.46348 43.9799 1.96474 60 1.96474C76.0202 1.96474 90.529 8.46348 101.033 18.9673C111.537 29.471 118.035 43.9799 118.035 60H119.018H120C120 26.864 93.136 0 60 0C26.864 0 0 26.864 0 60C0 93.136 26.864 120 60 120C93.136 120 120 93.136 120 60H119.018Z" fill="#EE3124"/>
<path d="M61.9651 109.175C61.9651 110.271 61.0772 111.14 60.0003 111.14C58.9235 111.14 58.0356 110.252 58.0356 109.175C58.0356 108.079 58.9235 107.21 60.0003 107.21C61.0772 107.21 61.9651 108.098 61.9651 109.175Z" fill="#EE3124"/>
<path d="M39.2 109.289L45.642 111.537L46.1143 110.214L43.7151 109.383L46.0199 102.771L44.3763 102.204L42.0904 108.816L39.6534 107.966L39.2 109.289Z" fill="#EE3124"/>
<path d="M34.8741 102.072C35.2897 101.316 35.762 100.806 36.2532 100.56C36.7444 100.315 37.2544 100.334 37.7456 100.598C38.2557 100.881 38.5391 101.316 38.5957 101.883C38.6524 102.449 38.4635 103.111 38.0479 103.866L37.859 104.225C37.4434 104.981 36.9711 105.491 36.4799 105.737C35.9887 105.982 35.4786 105.963 34.9685 105.68C34.4585 105.397 34.1751 104.981 34.1184 104.433C34.0617 103.885 34.2507 103.224 34.6663 102.449L34.8741 102.072ZM33.1549 101.58C32.7582 102.298 32.5315 103.016 32.4937 103.696C32.4559 104.395 32.5882 105.019 32.9093 105.567C33.2305 106.114 33.6839 106.568 34.3073 106.908C34.9119 107.248 35.5542 107.399 36.1776 107.361C36.8199 107.324 37.4245 107.116 37.9723 106.7C38.5391 106.285 39.0114 105.718 39.4081 105L39.6159 104.641C39.9937 103.923 40.2204 103.224 40.2393 102.544C40.2771 101.864 40.126 101.24 39.8237 100.674C39.5025 100.126 39.0491 99.6724 38.4257 99.3324C37.8023 98.9923 37.1789 98.8412 36.5366 98.879C35.8942 98.9167 35.3086 99.1246 34.7418 99.5402C34.194 99.9369 33.7028 100.504 33.3061 101.24L33.1549 101.58Z" fill="#EE3124"/>
<path d="M28.621 101.449L27.6764 100.693C27.2986 100.391 27.0908 100.107 27.0152 99.843C26.9397 99.5785 27.0341 99.2951 27.2608 98.9929C27.6764 98.4639 28.2432 98.4639 28.9422 98.9929L29.9434 99.7863L28.621 101.449ZM29.4522 97.8594C28.8288 97.3493 28.7721 96.8014 29.2444 96.1969C29.4522 95.9324 29.7167 95.8002 30.019 95.7813C30.3213 95.7624 30.6235 95.8946 30.9447 96.1402L32.0971 97.0659L30.6802 98.8417L29.4522 97.8594ZM31.7759 95.0256C31.0203 94.44 30.3213 94.1377 29.6601 94.1566C28.9988 94.1566 28.4132 94.4778 27.922 95.1012C27.6198 95.479 27.4686 95.8569 27.4686 96.2725C27.4497 96.6881 27.582 97.0659 27.8653 97.4249C27.4875 97.3115 27.1097 97.2926 26.7507 97.406C26.3918 97.5193 26.0895 97.7271 25.825 98.0483C25.3528 98.6339 25.2016 99.2385 25.3716 99.8808C25.5417 100.523 26.014 101.147 26.8263 101.789L29.1311 103.621L34.3641 97.0659L31.7759 95.0256Z" fill="#EE3124"/>
<path d="M21.7632 94.1376L23.4068 91.266L24.8048 92.834L21.7632 94.1376ZM25.0504 88.3945L23.8224 87.0154L19.6663 94.9499L20.7242 96.1401L29.0554 92.8718L27.8275 91.4927L26.1461 92.2106L24.1247 89.9436L25.0504 88.3945Z" fill="#EE3124"/>
<path d="M16.6248 88.6778L15.7746 87.3365C15.5479 86.9776 15.4913 86.6186 15.5668 86.2786C15.6613 85.9385 15.8691 85.6552 16.228 85.4473C16.5681 85.2395 16.8892 85.1829 17.1915 85.2584C17.4938 85.3529 17.7771 85.5796 18.0227 85.9763L18.8351 87.2798L16.6248 88.6778ZM19.2507 85.2584C18.7217 84.4083 18.1172 83.8793 17.3993 83.6526C16.7003 83.4259 16.0013 83.5393 15.3023 83.9738C14.8489 84.2572 14.5089 84.635 14.2822 85.0695C14.0555 85.504 13.9799 85.9952 14.0366 86.5242C14.0933 87.0531 14.3011 87.5821 14.6222 88.1111L16.3603 90.8881L23.4635 86.4297L22.5378 84.9562L20.0253 86.5242L19.2507 85.2584Z" fill="#EE3124"/>
<path d="M16.3415 79.5526L11.1651 81.6496L11.8263 83.2554L19.5908 80.1004L18.9485 78.4947L12.5253 77.4745L17.6828 75.3775L17.0216 73.7717L9.25708 76.9266L9.8994 78.5324L16.3415 79.5526Z" fill="#EE3124"/>
<path d="M12.9029 68.2936C13.413 68.218 13.8097 68.2936 14.112 68.5014C14.4143 68.7092 14.6032 69.0681 14.7165 69.5971C14.8488 70.1827 14.7165 70.6362 14.3765 70.9951C14.0175 71.354 13.413 71.6185 12.5251 71.8074L11.9017 71.9397C11.0515 72.1097 10.3903 72.1097 9.93692 71.9019C9.46463 71.713 9.18125 71.3351 9.0679 70.7684C8.95455 70.2583 8.99234 69.8427 9.18125 69.5404C9.37017 69.2382 9.71022 69.0115 10.2392 68.8603L9.88025 67.1601C8.97345 67.4435 8.35002 67.9346 7.95329 68.6147C7.57546 69.2948 7.481 70.1261 7.68881 71.0707C7.83994 71.7508 8.12332 72.3175 8.55783 72.7709C8.99234 73.2243 9.5402 73.5266 10.2014 73.6777C10.8626 73.8288 11.5805 73.81 12.374 73.6588L12.884 73.5455C14.112 73.281 15.0377 72.7709 15.6044 72.0152C16.1901 71.2596 16.3601 70.3528 16.1334 69.3137C15.9256 68.3503 15.51 67.6324 14.8865 67.1412C14.2631 66.6689 13.4886 66.48 12.6007 66.6122L12.9029 68.2936Z" fill="#EE3124"/>
<path d="M6.51782 59.2252L6.85787 66.0451L8.25586 65.9885L8.12362 63.457L15.1135 63.1169L15.038 61.3789L8.04805 61.7189L7.91581 59.1497L6.51782 59.2252Z" fill="#EE3124"/>
<path d="M8.21788 55.3903L8.35012 54.1812C8.4068 53.7089 8.52015 53.3689 8.70907 53.161C8.89798 52.9532 9.18136 52.8777 9.55919 52.9155C10.2393 52.991 10.5227 53.4633 10.4471 54.3323L10.296 55.5981L8.21788 55.3903ZM11.7128 54.2001C11.8073 53.4066 12.2418 53.0666 13.0164 53.1422C13.3564 53.1799 13.602 53.3311 13.772 53.5767C13.9421 53.8223 13.9987 54.1434 13.961 54.559L13.7909 56.0326L11.5428 55.787L11.7128 54.2001ZM15.3212 54.6535C15.4156 53.7089 15.2834 52.9532 14.9433 52.3865C14.5844 51.8197 14.0176 51.4986 13.2053 51.4041C12.733 51.3474 12.3174 51.423 11.9773 51.6308C11.6184 51.8386 11.3728 52.1598 11.2217 52.5754C11.1272 52.1787 10.9194 51.8764 10.636 51.6308C10.3526 51.3852 9.9937 51.2341 9.59698 51.1963C8.84131 51.1207 8.25567 51.3097 7.80227 51.782C7.34887 52.2542 7.08438 53.0099 6.95214 54.0112L6.63098 56.9394L14.9622 57.884L15.3212 54.6535Z" fill="#EE3124"/>
<path d="M13.5076 44.4902C14.3389 44.7358 14.9434 45.0759 15.2834 45.5104C15.6235 45.9449 15.718 46.4361 15.5668 46.9839C15.3968 47.5507 15.0379 47.9285 14.5089 48.0985C13.961 48.2686 13.2809 48.2308 12.4686 47.9852L12.0719 47.8718C11.2406 47.6263 10.655 47.2862 10.296 46.8517C9.95599 46.4172 9.86153 45.926 10.0316 45.3781C10.2016 44.8114 10.5416 44.4525 11.0706 44.2824C11.5996 44.1124 12.2797 44.1502 13.1298 44.3958L13.5076 44.4902ZM13.621 42.6955C12.8275 42.4688 12.0908 42.4121 11.4107 42.5066C10.7305 42.62 10.1449 42.8844 9.67261 43.319C9.20032 43.7535 8.86027 44.3013 8.67135 44.9625C8.48244 45.6426 8.46355 46.2849 8.63357 46.8895C8.8036 47.5129 9.14365 48.0419 9.67261 48.5142C10.1827 48.9676 10.8439 49.3265 11.6373 49.5532L12.0341 49.6666C12.8086 49.8933 13.5454 49.9499 14.2255 49.8366C14.9056 49.7232 15.4913 49.4587 15.9635 49.0242C16.4358 48.5897 16.7759 48.0419 16.9648 47.3807C17.1537 46.7006 17.1726 46.0582 17.0026 45.4348C16.8326 44.8114 16.4925 44.2824 15.9635 43.829C15.4535 43.3756 14.7923 43.0356 13.9988 42.79L13.621 42.6955Z" fill="#EE3124"/>
<path d="M17.9853 27.053L21.0646 29.32C20.8379 29.8112 20.5546 30.2835 20.2145 30.7369C19.8745 31.1903 19.5533 31.4548 19.251 31.5115C18.9488 31.5681 18.5898 31.4548 18.212 31.1714L16.0961 29.6034L15.0571 31.0014L17.1918 32.5883C17.9097 33.0984 18.6087 33.2684 19.3266 33.0984C20.0256 32.9283 20.6868 32.4183 21.3291 31.5681C21.6692 31.1147 21.9525 30.6235 22.1792 30.1513L24.7296 32.0404L25.7687 30.6424L19.0054 25.655L17.9853 27.053Z" fill="#EE3124"/>
<path d="M26.8831 22.4811L24.5217 24.8048L23.1237 23.369L25.9008 20.6675L24.9184 19.6663L20.8945 23.5768L26.7698 29.5844L30.7937 25.6549L29.8114 24.6537L27.0343 27.3741L25.4474 25.7683L27.8277 23.4446L26.8831 22.4811Z" fill="#EE3124"/>
<path d="M28.8851 18.3439L30.1698 17.4182C30.5287 17.1726 30.8688 17.097 31.2088 17.1537C31.5489 17.2292 31.8511 17.4182 32.0778 17.7582C32.3045 18.0794 32.3801 18.4005 32.3234 18.7217C32.2479 19.0428 32.0212 19.3262 31.6622 19.5907L30.3965 20.4786L28.8851 18.3439ZM32.4557 20.762C33.268 20.1952 33.7592 19.534 33.9481 18.835C34.137 18.1172 33.9859 17.4371 33.5136 16.757C33.1924 16.3224 32.8146 16.0013 32.3612 15.7935C31.9078 15.6046 31.4166 15.5479 30.8876 15.6235C30.3587 15.7179 29.8486 15.9446 29.3385 16.3036L26.6748 18.1927L31.53 25.0315L32.9468 24.0303L31.2466 21.6121L32.4557 20.762Z" fill="#EE3124"/>
<path d="M36.2343 13.753L37.33 13.2241C37.7645 13.0162 38.1046 12.9407 38.3879 12.9974C38.6524 13.054 38.8791 13.2429 39.0492 13.583C39.3514 14.1875 39.1058 14.6976 38.3313 15.0943L37.1789 15.6422L36.2343 13.753ZM39.1058 16.0578C39.8237 15.7178 40.3527 15.9067 40.6927 16.5868C40.8439 16.889 40.8628 17.1913 40.7305 17.4558C40.6172 17.7392 40.3716 17.947 39.9937 18.1359L38.6524 18.7782L37.6701 16.7379L39.1058 16.0578ZM40.6549 19.3827C41.5051 18.9671 42.0718 18.4571 42.3552 17.8525C42.6386 17.248 42.6008 16.5868 42.2607 15.8689C42.0529 15.4533 41.7696 15.1321 41.4106 14.9432C41.0517 14.7543 40.6361 14.7165 40.2204 14.7921C40.5038 14.4898 40.6549 14.1686 40.7116 13.7908C40.7683 13.413 40.7116 13.054 40.5227 12.6762C40.2015 11.9961 39.7104 11.5994 39.068 11.486C38.4257 11.3727 37.6512 11.5238 36.7255 11.9772L34.0806 13.2618L37.7267 20.8185L40.6549 19.3827Z" fill="#EE3124"/>
<path d="M48.2682 12.4119C48.4949 13.2431 48.5326 13.9232 48.3626 14.4522C48.1926 14.9811 47.8148 15.3212 47.2669 15.4723C46.7001 15.6423 46.1901 15.529 45.7556 15.1701C45.321 14.8111 44.981 14.2066 44.7543 13.3753L44.6409 12.9786C44.4142 12.1474 44.3765 11.4673 44.5465 10.9383C44.7165 10.4093 45.0943 10.0693 45.6422 9.91816C46.209 9.74814 46.7001 9.86149 47.1346 10.2015C47.5692 10.5605 47.8903 11.1461 48.1359 11.9962L48.2682 12.4119ZM49.8362 11.5428C49.6095 10.7494 49.2694 10.0882 48.816 9.57811C48.3626 9.04914 47.8147 8.70909 47.2102 8.53907C46.5868 8.36904 45.9445 8.36904 45.2833 8.55796C44.6032 8.74688 44.0553 9.08693 43.6208 9.55922C43.1863 10.0315 42.9218 10.6172 42.8085 11.2973C42.6951 11.9774 42.7518 12.7141 42.9785 13.5265L43.0918 13.9232C43.3185 14.6978 43.6586 15.3401 44.112 15.8502C44.5654 16.3602 45.1132 16.7003 45.7178 16.8703C46.3412 17.0403 46.9835 17.0403 47.6447 16.8325C48.3248 16.6436 48.8727 16.3036 49.3072 15.8313C49.7417 15.359 50.0062 14.7733 50.1195 14.0932C50.2329 13.4131 50.1762 12.6763 49.9495 11.8829L49.8362 11.5428Z" fill="#EE3124"/>
<path d="M58.1297 6.55518L56.4105 6.7252L56.7317 10.1068L53.3878 10.428L53.0478 7.04636L51.3286 7.21638L52.1599 15.5665L53.879 15.3965L53.5201 11.826L56.8828 11.4859L57.2228 15.0753L58.942 14.9053L58.1297 6.55518Z" fill="#EE3124"/>
<path d="M65.7432 11.3351C65.6676 12.2041 65.4598 12.8464 65.1197 13.281C64.7797 13.7155 64.3074 13.9044 63.7406 13.8477C63.155 13.8099 62.7205 13.5265 62.4371 13.0354C62.1537 12.5442 62.0593 11.8641 62.116 11.014L62.1537 10.5983C62.2293 9.72932 62.4371 9.087 62.796 8.65249C63.155 8.23688 63.6084 8.02907 64.194 8.08574C64.7797 8.12353 65.2142 8.38801 65.4787 8.8792C65.762 9.35149 65.8565 10.0316 65.7998 10.9195L65.7432 11.3351ZM67.5379 11.0706C67.5945 10.2583 67.519 9.52151 67.2734 8.8603C67.0278 8.21799 66.65 7.68902 66.121 7.31118C65.6109 6.93335 65.0064 6.72554 64.3074 6.66887C63.6084 6.61219 62.985 6.72554 62.4182 7.02781C61.8515 7.31118 61.3981 7.76459 61.0391 8.36912C60.6991 8.97365 60.4913 9.69154 60.4157 10.5039L60.3779 10.9195C60.3212 11.7318 60.4157 12.4497 60.6613 13.092C60.9069 13.7344 61.2847 14.2444 61.8137 14.6223C62.3238 15.0001 62.9283 15.2079 63.6273 15.2646C64.3263 15.3213 64.9686 15.2079 65.5353 14.9056C66.1021 14.6034 66.5555 14.1689 66.8955 13.5643C67.2356 12.9598 67.4434 12.2608 67.5001 11.4296L67.5379 11.0706Z" fill="#EE3124"/>
<path d="M75.699 8.87897L70.3527 7.57544L68.3501 15.7178L70.0315 16.1334L71.7129 9.35126L75.3589 10.2392L75.699 8.87897Z" fill="#EE3124"/>
<path d="M80.5541 15.5101C80.2141 16.3224 79.8174 16.8703 79.3451 17.1725C78.8728 17.4748 78.3816 17.5126 77.8526 17.2859C77.3048 17.0592 76.9836 16.6625 76.8703 16.1146C76.7569 15.5479 76.8703 14.8867 77.2103 14.0932L77.3614 13.7154C77.7015 12.903 78.0982 12.3552 78.5705 12.0718C79.0428 11.7884 79.534 11.7506 80.063 11.9584C80.6108 12.1851 80.932 12.563 81.0453 13.1108C81.1587 13.6587 81.0453 14.3388 80.7053 15.1511L80.5541 15.5101ZM82.33 15.8123C82.6511 15.0567 82.7834 14.3199 82.7645 13.6398C82.7267 12.9408 82.5378 12.3363 82.1599 11.8262C81.7821 11.2972 81.272 10.9194 80.6297 10.636C79.9874 10.3715 79.3451 10.2771 78.7216 10.3904C78.0982 10.4849 77.5126 10.7683 77.0025 11.2406C76.4924 11.7128 76.0579 12.3174 75.7557 13.073L75.6045 13.4509C75.3023 14.1877 75.17 14.9055 75.1889 15.6045C75.2267 16.2846 75.4345 16.8892 75.8123 17.4181C76.1902 17.9282 76.7002 18.3249 77.3426 18.6083C77.9849 18.8728 78.6272 18.9673 79.2695 18.8539C79.8929 18.7594 80.4786 18.4761 80.9887 18.0038C81.4987 17.5504 81.9143 16.927 82.2355 16.1713L82.33 15.8123Z" fill="#EE3124"/>
<path d="M94.7799 19.4963L93.3252 18.155L92.324 22.878L87.6199 24.3137L89.1124 25.655L92.2862 24.5782L91.4927 27.8276L92.9852 29.1878L93.9675 24.3704L98.5771 22.9535L97.1225 21.6122L94.0053 22.689L94.7799 19.4963Z" fill="#EE3124"/>
<path d="M100.05 26.8452L101.032 28.092C101.297 28.4321 101.391 28.7721 101.354 29.1311C101.297 29.4711 101.127 29.7734 100.787 30.0379C100.466 30.2835 100.163 30.3779 99.8423 30.3213C99.5212 30.2646 99.2189 30.0568 98.9355 29.6978L97.972 28.4888L100.05 26.8452ZM97.802 30.5291C98.4254 31.3036 99.0866 31.7759 99.8045 31.9271C100.522 32.0782 101.203 31.8893 101.864 31.3792C102.298 31.0391 102.582 30.6424 102.771 30.1701C102.941 29.6978 102.978 29.2066 102.865 28.6966C102.752 28.1865 102.506 27.6764 102.109 27.1852L100.088 24.616L93.4947 29.8112L94.5715 31.1714L96.8952 29.3389L97.802 30.5291Z" fill="#EE3124"/>
<path d="M104.849 37.8023L103.224 34.893L104.981 33.9295L106.87 37.3111L108.098 36.631L105.359 31.738L98.0286 35.8375L100.768 40.7305L101.996 40.0504L100.088 36.6499L102.053 35.5542L103.677 38.4446L104.849 37.8023Z" fill="#EE3124"/>
<path d="M105.473 45.1888C104.982 45.321 104.566 45.321 104.245 45.151C103.924 44.981 103.678 44.6598 103.489 44.1497C103.281 43.6019 103.338 43.1107 103.64 42.714C103.943 42.3173 104.509 41.9583 105.359 41.6372L105.945 41.4105C106.757 41.1271 107.419 41.0326 107.91 41.1649C108.401 41.2971 108.741 41.6183 108.93 42.1661C109.119 42.6573 109.138 43.0729 108.987 43.413C108.854 43.7341 108.533 44.0175 108.042 44.2442L108.628 45.8689C109.478 45.4533 110.045 44.8865 110.328 44.1497C110.611 43.413 110.592 42.6006 110.252 41.6938C110.007 41.0326 109.648 40.5225 109.157 40.1258C108.665 39.748 108.08 39.5213 107.4 39.4646C106.72 39.4079 106.002 39.5213 105.246 39.8047L104.774 39.9747C103.584 40.4092 102.752 41.0326 102.299 41.8639C101.827 42.6951 101.789 43.6019 102.148 44.622C102.488 45.5477 102.998 46.2089 103.697 46.5868C104.396 46.9646 105.171 47.0402 106.04 46.7946L105.473 45.1888Z" fill="#EE3124"/>
<path d="M113.067 53.2747L111.782 46.5681L110.403 46.8326L110.876 49.3074L104.018 50.6298L104.339 52.3301L111.197 51.0077L111.688 53.5391L113.067 53.2747Z" fill="#EE3124"/>
<path d="M111.216 58.0918L108.117 59.2631L108.042 57.1661L111.216 58.0918ZM105.038 60.4344L105.114 62.2669L113.388 58.8286L113.332 57.2228L104.83 54.408L104.906 56.2405L106.663 56.7505L106.776 59.7732L105.038 60.4344Z" fill="#EE3124"/>
<path d="M111.461 74.3386L112.009 72.5628L105.416 73.5829L104.963 73.224C104.774 73.054 104.66 72.9028 104.622 72.7328C104.585 72.5628 104.604 72.3739 104.679 72.1283C104.736 71.9393 104.792 71.7882 104.83 71.7126L103.508 71.3159L103.3 71.8827C103.036 72.7328 103.187 73.4885 103.791 74.1308L104.15 74.4897L109.874 79.3638L110.441 77.588L107.116 74.9431L111.461 74.3386Z" fill="#EE3124"/>
<path d="M99.3137 81.9714L98.3691 83.8039L103.621 83.256L105.982 87.3555L106.946 85.4853L104.868 82.1225L105.227 81.4235L108.231 82.9349L109.005 81.4046L101.524 77.6074L100.731 79.1376L103.791 80.7057L103.338 81.5936L99.3137 81.9714Z" fill="#EE3124"/>
<path d="M102.62 89.7733L101.675 91.039C101.411 91.3791 101.109 91.568 100.769 91.6058C100.428 91.6436 100.088 91.5491 99.7484 91.3035C99.4272 91.0579 99.2572 90.7935 99.2194 90.4723C99.1816 90.1511 99.3138 89.8111 99.5783 89.4333L100.504 88.1864L102.62 89.7733ZM98.4826 88.602C97.897 89.3955 97.6136 90.17 97.6703 90.9068C97.727 91.6436 98.067 92.2481 98.7282 92.7393C99.1627 93.0605 99.635 93.2494 100.126 93.2872C100.617 93.3249 101.109 93.2305 101.581 92.9849C102.053 92.7393 102.469 92.3615 102.847 91.8514L104.792 89.2254L98.0481 84.238L97.028 85.636L99.4083 87.393L98.4826 88.602Z" fill="#EE3124"/>
<path d="M96.272 96.2154L93.306 94.7419L94.7796 93.2494L96.272 96.2154ZM90.34 93.2683L89.0365 94.5718L97.1977 98.2746L98.3312 97.1411L94.6095 88.9988L93.306 90.3023L94.1184 91.927L91.9836 94.0806L90.34 93.2683Z" fill="#EE3124"/>
<path d="M92.4747 103.337C92.2669 103.318 92.078 103.375 91.8891 103.526C91.7002 103.677 91.5868 103.847 91.5679 104.055C91.5301 104.263 91.5868 104.433 91.7002 104.603C91.8324 104.773 92.0024 104.849 92.2102 104.868C92.418 104.886 92.607 104.83 92.7959 104.679C92.9659 104.546 93.0792 104.376 93.117 104.169C93.1548 103.961 93.0981 103.772 92.9848 103.621C92.8337 103.451 92.6825 103.356 92.4747 103.337ZM94.685 101.618C94.4772 101.599 94.2883 101.656 94.1183 101.807C93.9294 101.958 93.816 102.128 93.7971 102.336C93.7782 102.544 93.816 102.714 93.9483 102.884C94.0805 103.035 94.2316 103.13 94.4395 103.167C94.6473 103.186 94.8362 103.13 95.0251 102.978C95.214 102.827 95.3274 102.657 95.3462 102.468C95.384 102.26 95.3274 102.09 95.1951 101.92C95.044 101.713 94.8929 101.618 94.685 101.618ZM91.9646 102.752L93.3248 101.694L88.1863 95.0627L86.8261 96.1207L91.9646 102.752Z" fill="#EE3124"/>
<path d="M83.8791 107.872L85.3715 107.003L83.6713 104.056L86.5806 102.355L88.2998 105.302L89.7922 104.433L85.5605 97.179L84.068 98.048L85.8816 101.146L82.9723 102.846L81.1587 99.7482L79.6663 100.617L83.8791 107.872Z" fill="#EE3124"/>
<path d="M77.8146 104.396L79.7038 109.647L81.3474 109.062L78.4947 101.165L76.8701 101.751L75.6043 108.136L73.7152 102.884L72.0716 103.47L74.9242 111.367L76.5489 110.781L77.8146 104.396Z" fill="#EE3124"/>
</svg>
