<svg xmlns="http://www.w3.org/2000/svg" xmlns:xlink="http://www.w3.org/1999/xlink" width="68" height="68" viewBox="0 0 68 68">
  <defs>
    <clipPath id="clip-path">
      <circle id="Ellipse_44" data-name="Ellipse 44" cx="34" cy="34" r="34" transform="translate(6255 1052)" fill="#ebf0fd"/>
    </clipPath>
  </defs>
  <g id="Group_906" data-name="Group 906" transform="translate(826 -1742)">
    <circle id="Ellipse_41" data-name="Ellipse 41" cx="34" cy="34" r="34" transform="translate(-826 1742)" fill="#ebf0fd"/>
    <g id="Mask_Group_17" data-name="Mask Group 17" transform="translate(-7081 690)" clip-path="url(#clip-path)">
      <g id="Group_905" data-name="Group 905" transform="translate(6208.623 1061.446)">
        <g id="Group_884" data-name="Group 884" transform="translate(57.646 120.607)">
          <g id="Group_883" data-name="Group 883">
            <path id="Path_737" data-name="Path 737" d="M316.414,401.367l.024,44.183H338.3l1.68-44.183Z" transform="translate(-316.414 -401.367)" fill="#3b4483"/>
            <path id="Path_738" data-name="Path 738" d="M398.608,401.367l-.024,44.183H376.726l-1.68-44.183Z" transform="translate(-351.149 -401.367)" fill="#3b4483"/>
            <rect id="Rectangle_143" data-name="Rectangle 143" width="22.6" height="15.35" transform="translate(12.921)" fill="#3b4483"/>
          </g>
          <line id="Line_32" data-name="Line 32" x2="15.588" transform="translate(16.078 15.35)" fill="none" stroke="#282828" stroke-linecap="round" stroke-linejoin="round" stroke-width="1.397"/>
        </g>
        <g id="Group_895" data-name="Group 895" transform="translate(0 41.533)">
          <g id="Group_886" data-name="Group 886" transform="translate(92.893 6.046)">
            <g id="Group_885" data-name="Group 885" transform="translate(11.351 34.471)">
              <path id="Path_739" data-name="Path 739" d="M445.414,306.763c.866,9.567-2.8,17.834-7.241,28.826-2.4,5.946-6.724,11.854-6.581,21.8v-5.355l-.846-42.861Z" transform="translate(-430.745 -306.763)" fill="#ffb1a5"/>
              <path id="Path_740" data-name="Path 740" d="M434.686,324.4s8.079-.74,13.6-4.383l-.146-3.206-13.461,1.833Z" transform="translate(-433.077 -312.713)" fill="#f3978e"/>
            </g>
            <path id="Path_741" data-name="Path 741" d="M402.894,222.188s25.661,6.454,30.31,39.025c0,0-12.559,5.445-25.145,3.1l2.831-10.894Z" transform="translate(-402.894 -222.188)" fill="#f7e9db"/>
          </g>
          <g id="Group_893" data-name="Group 893">
            <g id="Group_890" data-name="Group 890">
              <path id="Path_742" data-name="Path 742" d="M203.514,255.417l19.106,22.564-5.847,16.465s-14.522-20.19-21.047-35.8Z" transform="translate(-187.269 -235.828)" fill="#ffb1a5"/>
              <g id="Group_889" data-name="Group 889">
                <g id="Group_888" data-name="Group 888">
                  <g id="Group_887" data-name="Group 887">
                    <path id="Path_743" data-name="Path 743" d="M196.225,238.085s-6.709,3.79-8.416,2.419c-2.982-2.4-5.446-11.167-5.446-11.167s12.546-4.73,12.428-4.545S196.225,238.085,196.225,238.085Z" transform="translate(-179.353 -217.682)" fill="#ffb1a5"/>
                    <path id="Path_744" data-name="Path 744" d="M213.072,239.616c-.119-.676,2.488-7.962,3.382-10.694a1.205,1.205,0,0,0-.954-1.519h0a1.392,1.392,0,0,0-1.552.636l-3.147,5.378Z" transform="translate(-196.2 -219.212)" fill="#ffb1a5"/>
                    <path id="Path_745" data-name="Path 745" d="M208.994,220.873l-2.161-10.749a1.353,1.353,0,0,0-1.564-1.073h0a1.165,1.165,0,0,0-.957,1.292l.941,8Z" transform="translate(-192.351 -208.346)" fill="#ffb1a5"/>
                    <path id="Path_746" data-name="Path 746" d="M197.421,215.916l-2.934-7.676a1.346,1.346,0,0,0-1.667-.821h0a1.16,1.16,0,0,0-.767,1.377l2.177,8.87Z" transform="translate(-185.075 -207.354)" fill="#ffb1a5"/>
                    <path id="Path_747" data-name="Path 747" d="M188.279,221.736l-3.712-7.542a1.476,1.476,0,0,0-1.884-.723h0a1.286,1.286,0,0,0-.663,1.7l2.959,7.12Z" transform="translate(-179.086 -210.911)" fill="#ffb1a5"/>
                    <path id="Path_748" data-name="Path 748" d="M177.988,227.065l-2.913-4.621a1.043,1.043,0,0,1,.509-1.394h0a1.192,1.192,0,0,1,1.456.423l3.83,5.314Z" transform="translate(-174.978 -215.409)" fill="#ffb1a5"/>
                  </g>
                </g>
                <path id="Path_749" data-name="Path 749" d="M207.358,236.095s-4.375-.459-4.824,5.371" transform="translate(-191.303 -224.376)" fill="none" stroke="#282828" stroke-linecap="round" stroke-linejoin="round" stroke-width="1.532"/>
              </g>
            </g>
            <g id="Group_892" data-name="Group 892" transform="translate(25.629 5.481)">
              <g id="Group_891" data-name="Group 891" transform="translate(0 13.156)">
                <path id="Path_750" data-name="Path 750" d="M237.859,285.362s3.594,12.436,10.754,10.783S266.935,279.2,266.935,279.2l-2.5-26.115-20.1,24.737Z" transform="translate(-237.859 -253.082)" fill="#ffb1a5"/>
                <path id="Path_751" data-name="Path 751" d="M269.051,291.66s6.786,10.235,12.575,13.845l3.788-4.783L270.8,289.415Z" transform="translate(-256.338 -274.607)" fill="#f3978e"/>
              </g>
              <path id="Path_752" data-name="Path 752" d="M297.5,220.8s-19.922,4.49-30.539,27.644c0,0,6.414,9.665,16.7,13.961l6.885-8.434Z" transform="translate(-255.102 -220.803)" fill="#f7e9db"/>
            </g>
          </g>
          <g id="Group_894" data-name="Group 894" transform="translate(55.05 3.68)">
            <path id="Path_753" data-name="Path 753" d="M323.47,218.113A49.892,49.892,0,0,0,310.8,227.4l1.535,67.682h49.042l-.159-67.333s-6.182-6.05-12.881-9C342.642,216.244,329,215.275,323.47,218.113Z" transform="translate(-310.489 -216.383)" fill="#f7e9db"/>
            <path id="Rectangle_144" data-name="Rectangle 144" d="M0,0H13.643a0,0,0,0,1,0,0V6.821a6.821,6.821,0,0,1-6.821,6.821h0A6.821,6.821,0,0,1,0,6.821V0A0,0,0,0,1,0,0Z" transform="translate(29.366 21.067)" fill="none" stroke="#282828" stroke-linecap="round" stroke-linejoin="round" stroke-width="1.397"/>
            <line id="Line_33" data-name="Line 33" y1="22.141" x2="0.636" transform="translate(50.804 22.604)" fill="none" stroke="#282828" stroke-linecap="round" stroke-linejoin="round" stroke-width="1.397"/>
            <line id="Line_34" data-name="Line 34" x1="1.06" y1="19.192" transform="translate(0 21.862)" fill="none" stroke="#282828" stroke-linecap="round" stroke-linejoin="round" stroke-width="1.397"/>
          </g>
        </g>
        <g id="Group_904" data-name="Group 904" transform="translate(64.161)">
          <path id="Path_754" data-name="Path 754" d="M339.994,133.984,337.95,123.87a7.108,7.108,0,0,1-.043-3.29c.648-1.976,3.027-5.772,7.095-4.034l.88,4s-4.224.853-5.919,6.379Z" transform="translate(-335.549 -111.762)" fill="#3e2d4a"/>
          <path id="Path_755" data-name="Path 755" d="M346,122.313c-.074,1.329-1.247,7.143-5.371,9.262C340.633,131.575,337.021,123.828,346,122.313Z" transform="translate(-336.851 -115.441)" fill="#282828"/>
          <path id="Path_756" data-name="Path 756" d="M360.484,191.1h0V173.921H344.652V191.1l-4.713,2.148s1.105,7.118,12.8,7.276,12.864-6.926,12.864-6.926Z" transform="translate(-336.865 -146.015)" fill="#ffb1a5"/>
          <path id="Path_757" data-name="Path 757" d="M355.588,110.237s2.906-7.665,11.865-3.59c5.423,2.466,6.942,5.773,7.588,8.116a9.427,9.427,0,0,1,.242,2.733l-2.167,10.178-8.461-14.083-8.187.649Z" transform="translate(-346.136 -105.453)" fill="#3e2d4a"/>
          <g id="Group_898" data-name="Group 898" transform="translate(26.04 21.128)">
            <path id="Path_758" data-name="Path 758" d="M397.228,158.384a2.637,2.637,0,0,1,3.269-.863c2.2.835,1.206,6.182-2.1,6.863a2.612,2.612,0,0,1-2.112-.552S397.1,159.883,397.228,158.384Z" transform="translate(-396.288 -157.291)" fill="#f3978e"/>
            <g id="Group_897" data-name="Group 897" transform="translate(0.619 2.057)">
              <g id="Group_896" data-name="Group 896">
                <path id="Path_759" data-name="Path 759" d="M400.96,162.4s-1.844-.615-3.153,2.1" transform="translate(-397.807 -162.338)" fill="none" stroke="#282828" stroke-linecap="round" stroke-linejoin="round" stroke-width="1.397"/>
              </g>
            </g>
          </g>
          <g id="Group_901" data-name="Group 901" transform="translate(0 21.128)">
            <path id="Path_760" data-name="Path 760" d="M336.842,158.384a2.637,2.637,0,0,0-3.269-.863c-2.2.835-1.206,6.182,2.1,6.863a2.612,2.612,0,0,0,2.112-.552S336.97,159.883,336.842,158.384Z" transform="translate(-332.397 -157.291)" fill="#f3978e"/>
            <g id="Group_900" data-name="Group 900" transform="translate(1.613 2.057)">
              <g id="Group_899" data-name="Group 899">
                <path id="Path_761" data-name="Path 761" d="M336.354,162.4s1.844-.615,3.153,2.1" transform="translate(-336.354 -162.338)" fill="none" stroke="#282828" stroke-linecap="round" stroke-linejoin="round" stroke-width="1.397"/>
              </g>
            </g>
          </g>
          <path id="Path_762" data-name="Path 762" d="M365.69,130.878c0,3.223-.316,9.966-2.3,13.968a9.871,9.871,0,0,1-8.972,5.9c-4.034.12-7.039-1.434-9.447-6.311s-2.293-13.5-2.293-13.5,0-11.514,11.38-11.514C366.045,119.424,365.69,130.878,365.69,130.878Z" transform="translate(-338.489 -113.73)" fill="#ffb1a5"/>
          <path id="Path_763" data-name="Path 763" d="M351.794,186.688s1.326,6.727,7.18,7.5c6.738.89,8.533-7.329,8.533-7.329a10.719,10.719,0,0,1-7.686,3.737A10.3,10.3,0,0,1,351.794,186.688Z" transform="translate(-343.888 -153.579)" fill="#282828"/>
          <g id="Group_903" data-name="Group 903" transform="translate(4.331 14.454)">
            <path id="Path_764" data-name="Path 764" d="M368.917,159.254v2.665a.872.872,0,0,0,.062.325.858.858,0,0,0,1.023.474l.884-.235" transform="translate(-358.364 -151.78)" fill="none" stroke="#282828" stroke-linecap="round" stroke-linejoin="round" stroke-width="1.397"/>
            <path id="Path_765" data-name="Path 765" d="M357.66,154.626a1.036,1.036,0,1,1-1.036-1.036A1.036,1.036,0,0,1,357.66,154.626Z" transform="translate(-350.467 -148.424)" fill="#282828"/>
            <path id="Path_766" data-name="Path 766" d="M381.49,154.626a1.036,1.036,0,1,1-1.036-1.036A1.036,1.036,0,0,1,381.49,154.626Z" transform="translate(-364.585 -148.424)" fill="#282828"/>
            <path id="Path_767" data-name="Path 767" d="M375.454,141.964l6.965,1.8s-.317-1.954-3.166-2.664S375.454,141.964,375.454,141.964Z" transform="translate(-362.236 -140.916)" fill="#282828"/>
            <path id="Path_768" data-name="Path 768" d="M354.711,141.964l-6.965,1.8s.317-1.954,3.166-2.664S354.711,141.964,354.711,141.964Z" transform="translate(-345.822 -140.916)" fill="#282828"/>
            <path id="Path_769" data-name="Path 769" d="M361.436,172.379s1.027.787,3.73.787a9.445,9.445,0,0,0,3.992-.787" transform="translate(-353.932 -159.555)" fill="none" stroke="#282828" stroke-linecap="round" stroke-linejoin="round" stroke-width="1.397"/>
            <g id="Group_902" data-name="Group 902" transform="translate(0 2.103)">
              <circle id="Ellipse_42" data-name="Ellipse 42" cx="4.402" cy="4.402" r="4.402" transform="translate(1.476)" fill="none" stroke="#fff" stroke-miterlimit="10" stroke-width="1.951"/>
              <circle id="Ellipse_43" data-name="Ellipse 43" cx="4.402" cy="4.402" r="4.402" transform="translate(12.29)" fill="none" stroke="#fff" stroke-miterlimit="10" stroke-width="1.951"/>
              <path id="Path_770" data-name="Path 770" d="M368.246,156.246a1.433,1.433,0,0,1,2.01,0" transform="translate(-357.966 -151.844)" fill="none" stroke="#fff" stroke-miterlimit="10" stroke-width="1.951"/>
              <line id="Line_35" data-name="Line 35" x1="1.476" y1="0.037" transform="translate(0 4.365)" fill="none" stroke="#fff" stroke-miterlimit="10" stroke-width="1.951"/>
              <line id="Line_36" data-name="Line 36" y1="0.027" x2="1.648" transform="translate(21.094 4.375)" fill="none" stroke="#fff" stroke-miterlimit="10" stroke-width="1.951"/>
            </g>
          </g>
          <path id="Path_771" data-name="Path 771" d="M351.794,119.248s2.114,6.006,11.653,5.821c6.482-.125,8.03,4.565,8.03,4.565s-1.128-10.486-1.424-10.387-9.863-2.553-9.863-2.553Z" transform="translate(-343.888 -112.113)" fill="#282828"/>
        </g>
      </g>
    </g>
  </g>
</svg>
