<svg width="68" height="68" viewBox="0 0 68 68" fill="none" xmlns="http://www.w3.org/2000/svg">
<path d="M34 68C52.7777 68 68 52.7777 68 34C68 15.2223 52.7777 0 34 0C15.2223 0 0 15.2223 0 34C0 52.7777 15.2223 68 34 68Z" fill="#EBF0FD"/>
<mask id="mask0" mask-type="alpha" maskUnits="userSpaceOnUse" x="0" y="0" width="68" height="68">
<path d="M34 68C52.7777 68 68 52.7777 68 34C68 15.2223 52.7777 0 34 0C15.2223 0 0 15.2223 0 34C0 52.7777 15.2223 68 34 68Z" fill="#EBF0FD"/>
</mask>
<g mask="url(#mask0)">
<path d="M50.227 29.4036C48.0353 26.7758 46.3612 23.7566 45.2933 20.5057C43.8411 16.3948 39.0844 18.0658 39.0844 18.0658C39.0844 18.0658 35.1209 12.9672 29.1571 14.7426C23.1933 16.518 21.1203 20.7629 20.9991 25.8084C20.8779 30.8539 16.9083 31.6436 13.8524 37.4808C8.45749 47.7859 17.5412 56.467 34.076 54.058L34.0989 53.8978C36.0696 54.4418 38.1209 54.6333 40.1583 54.4633C60.0237 53.2844 58.1042 38.6732 50.227 29.4036Z" fill="#3E2D4A"/>
<path d="M43.7255 37.0463C45.3581 38.5274 49.0093 32.9104 47.4284 31.3329C45.8476 29.7554 44.6472 32.2304 44.6472 32.2304L43.9429 33.9068L43.4117 36.1777L43.2852 36.7722L43.7255 37.0463Z" fill="#F3978E"/>
<path d="M46.6675 33.3223C46.6675 33.3223 45.4321 32.7662 44.334 34.5578" stroke="#282828" stroke-width="0.993" stroke-linecap="round" stroke-linejoin="round"/>
<path d="M24.4165 36.8751C22.9151 38.491 18.8028 33.2005 20.2423 31.4957C21.6817 29.791 23.0895 32.1549 23.0895 32.1549L23.9325 33.766L24.6542 35.9837L24.8299 36.5654L24.4165 36.8751Z" fill="#F3978E"/>
<path d="M21.1689 33.4147C21.1689 33.4147 22.3532 32.7562 23.5988 34.4488" stroke="#282828" stroke-width="0.993" stroke-linecap="round" stroke-linejoin="round"/>
<path d="M46.5879 25.9743C46.5879 33.4099 40.9197 36.9358 33.9258 36.9358C26.9319 36.9358 21.2637 33.4099 21.2637 25.9743C21.2637 18.5387 26.9326 13.4805 33.9258 13.4805C40.919 13.4805 46.5879 18.5387 46.5879 25.9743Z" fill="#282828"/>
<path d="M39.0851 42.5664H28.6689V56.0546H39.0851V42.5664Z" fill="#FFB1A5"/>
<mask id="mask1" mask-type="alpha" maskUnits="userSpaceOnUse" x="28" y="42" width="12" height="15">
<path d="M39.0851 42.5664H28.6689V56.0546H39.0851V42.5664Z" fill="#FFB1A5"/>
</mask>
<g mask="url(#mask1)">
<path d="M24.2383 41.0698C24.2383 41.0698 27.8925 46.7759 32.3832 47.6668C33.5914 47.8928 34.8579 47.8356 36.0247 47.5021C37.7165 47.0328 39.8622 45.0597 40.227 42.8756L40.3967 41.6275C40.3967 41.6275 32.4011 45.0352 24.2383 41.0698Z" fill="#E69F95"/>
</g>
<path d="M44.867 26.4913C44.8615 30.2939 44.4292 34.0839 43.5783 37.79C42.9482 40.5269 41.1748 42.4396 38.6682 43.9801L38.2117 44.2601C36.8923 45.0602 35.3823 45.4913 33.8394 45.5085C32.2965 45.5256 30.7773 45.1282 29.4404 44.3578V44.3578C26.7244 42.7742 24.8231 40.6871 24.2381 37.7503C23.5591 34.033 23.1645 30.2693 23.0578 26.492C23.0578 26.492 22.0479 14.969 33.8072 15.1932C45.5665 15.4174 44.867 26.4913 44.867 26.4913Z" fill="#FFB1A5"/>
<path d="M33.1397 33.6909V34.6382C33.1394 34.7304 33.1568 34.8218 33.1908 34.9075C33.2614 35.0637 33.3858 35.1891 33.5414 35.2608C33.697 35.3326 33.8733 35.3458 34.0378 35.298L34.7696 35.1048" stroke="#282828" stroke-width="1.23" stroke-linecap="round" stroke-linejoin="round"/>
<path d="M35.5908 27.4452L41.8482 28.9264C41.8482 28.9264 41.564 27.3179 39.0036 26.7342C36.4432 26.1505 35.5908 27.4452 35.5908 27.4452Z" fill="#282828"/>
<path d="M32.3059 27.4452L25.9678 28.9264C25.9678 28.9264 26.2559 27.3179 28.8487 26.7342C31.4414 26.1505 32.3059 27.4452 32.3059 27.4452Z" fill="#282828"/>
<path d="M30.0348 31.3289C30.0359 31.5241 29.979 31.7152 29.8713 31.878C29.7636 32.0408 29.6101 32.168 29.4301 32.2434C29.2501 32.3188 29.0517 32.3391 28.8602 32.3017C28.6686 32.2643 28.4925 32.1708 28.3541 32.0332C28.2157 31.8956 28.1213 31.7199 28.0828 31.5286C28.0443 31.3372 28.0635 31.1388 28.138 30.9584C28.2124 30.7779 28.3388 30.6237 28.501 30.5151C28.6632 30.4066 28.854 30.3486 29.0491 30.3486C29.1782 30.3483 29.3061 30.3734 29.4255 30.4224C29.5449 30.4715 29.6535 30.5436 29.745 30.6346C29.8365 30.7257 29.9092 30.8338 29.9589 30.953C30.0087 31.0721 30.0344 31.1998 30.0348 31.3289V31.3289Z" fill="#282828"/>
<path d="M39.3805 31.3289C39.3816 31.5241 39.3247 31.7152 39.217 31.878C39.1093 32.0408 38.9558 32.168 38.7758 32.2434C38.5958 32.3188 38.3974 32.3391 38.2059 32.3017C38.0143 32.2643 37.8382 32.1708 37.6998 32.0332C37.5614 31.8956 37.467 31.7199 37.4285 31.5286C37.39 31.3372 37.4093 31.1388 37.4837 30.9584C37.5581 30.7779 37.6845 30.6237 37.8467 30.5151C38.0089 30.4066 38.1997 30.3486 38.3948 30.3486C38.5239 30.3483 38.6518 30.3734 38.7712 30.4224C38.8906 30.4715 38.9992 30.5436 39.0907 30.6346C39.1822 30.7257 39.2549 30.8338 39.3047 30.953C39.3544 31.0721 39.3801 31.1998 39.3805 31.3289Z" fill="#282828"/>
<path d="M29.3838 36.9355H38.0359C38.0359 36.9355 37.4253 39.3129 33.5022 39.3129C32.664 39.3306 31.8371 39.1184 31.111 38.6993C30.385 38.2802 29.7876 37.6702 29.3838 36.9355V36.9355Z" fill="white"/>
<path d="M23.209 30.3113C23.209 30.3113 27.9117 23.9537 26.8271 17.5132C25.687 18.1866 24.7045 19.0964 23.9457 20.1815C23.1868 21.2666 22.6693 22.5016 22.428 23.8035C21.5184 28.3373 23.209 30.3113 23.209 30.3113Z" fill="#282828"/>
<path d="M44.8757 30.1C44.8757 30.1 39.4128 23.5222 40.4994 17.0811C42.8919 18.6135 44.5808 21.0302 45.1975 23.8036C46.103 28.3374 44.8757 30.1 44.8757 30.1Z" fill="#282828"/>
<path d="M23.6035 20.051C23.6035 20.051 28.9997 27.3034 45.5204 26.1717C45.5204 26.1717 43.6352 15.8289 35.6234 14.7935C35.6267 14.7961 26.3821 13.692 23.6035 20.051Z" fill="#3E2D4A"/>
<path d="M29.2887 53.8333C29.6327 53.8333 9.36673 54.1942 5.66309 79.7838L17.3106 81.5679L19.659 100.887H52.1495L58.6001 65.1927C58.6001 65.1927 54.0144 57.4596 40.6481 53.6704L29.2887 53.8333Z" fill="#9ADDFF"/>
<path d="M19.3828 56.9271C19.3828 56.9271 22.2469 60.7291 33.9819 60.7291C45.6079 60.7291 48.5804 56.7278 48.5804 56.7278C43.9407 54.2738 38.9443 52.5638 33.7739 51.6602C28.7458 52.705 23.8975 54.4794 19.3828 56.9271Z" fill="#FFB1A5"/>
</g>
</svg>
