<svg width="140" height="115" viewBox="0 0 140 115" fill="none" xmlns="http://www.w3.org/2000/svg">
<path d="M22.3202 57.4011C22.3202 76.8783 38.2387 92.6673 57.8735 92.6673C67.6205 92.6673 76.4498 88.7763 82.8689 82.4754H74.7605C69.9292 85.685 64.1181 87.5544 57.8735 87.5544C41.0823 87.5544 27.4725 74.0572 27.4725 57.4011C27.4725 40.7507 41.0823 27.2478 57.8735 27.2478C64.1632 27.2478 70.0137 29.1454 74.8618 32.3944H82.9365C76.5061 26.0541 67.6487 22.1406 57.8735 22.1406C38.2387 22.135 22.3202 37.924 22.3202 57.4011Z" fill="white"/>
<path d="M97.2339 82.4753C88.9227 95.2912 74.4119 103.783 57.9022 103.783C32.096 103.783 11.1716 83.0328 11.1716 57.4349C11.1716 31.8369 32.096 11.0872 57.9079 11.0872C74.4176 11.0872 88.9227 19.5785 97.2395 32.3944H110.038C100.652 13.2213 80.8368 0 57.9079 0C25.9245 0 0 25.7162 0 57.4349C0 89.1536 25.9245 114.87 57.9079 114.87C80.8368 114.87 100.652 101.648 110.033 82.4753H97.2339Z" fill="white"/>
<path d="M65.076 45.3847C65.076 44.3655 64.3496 43.5884 63.3642 43.5884H61.247V47.1865H63.3642C64.3552 47.1809 65.076 46.4038 65.076 45.3847ZM68.3024 45.3847C68.3024 48.0424 66.1458 50.1822 63.3642 50.1822H61.247V54.5799H58.0205V40.5872H63.3585C66.1458 40.5872 68.3024 42.7269 68.3024 45.3847Z" fill="white"/>
<path d="M81.1572 47.5807C81.1572 45.0806 79.3441 43.4252 77.0467 43.4252C74.7493 43.4252 72.9362 45.0863 72.9362 47.5807C72.9362 50.0809 74.7493 51.7363 77.0467 51.7363C79.3441 51.7363 81.1572 50.0809 81.1572 47.5807ZM69.7153 47.5807C69.7153 43.4646 72.9981 40.3057 77.0523 40.3057C81.1009 40.3057 84.3893 43.4646 84.3893 47.5807C84.3893 51.6969 81.1066 54.8558 77.0523 54.8558C72.9981 54.8558 69.7153 51.6969 69.7153 47.5807Z" fill="white"/>
<path d="M95.9721 50.6214C95.9721 53.2398 93.7141 54.8615 90.7523 54.8615C87.8524 54.8615 86.2194 53.5213 85.3917 51.5449L88.1734 49.9682C88.5337 51.0494 89.2432 51.8658 90.7523 51.8658C92.1037 51.8658 92.7456 51.3084 92.7456 50.3849C92.7456 49.4615 92.0812 48.904 90.7298 48.904H88.9335V46.0604H90.3243C91.5913 46.0604 92.2388 45.5424 92.2388 44.6808C92.2388 43.8193 91.7546 43.3013 90.6059 43.3013C89.3558 43.3013 88.7308 44.0389 88.3704 44.9005L85.6113 43.3238C86.4785 41.6064 87.9875 40.3057 90.6115 40.3057C93.4101 40.3057 95.4653 41.8823 95.4653 44.4444C95.4653 45.7057 94.9417 46.6629 94.052 47.3443C95.2457 48.0031 95.9721 49.1236 95.9721 50.6214Z" fill="white"/>
<path d="M101.311 40.5872H98.0844V54.5799H101.311V40.5872Z" fill="white"/>
<path d="M111.086 45.3847C111.086 44.3655 110.36 43.5884 109.374 43.5884H107.257V47.1865H109.374C110.36 47.1809 111.086 46.4038 111.086 45.3847ZM114.307 45.3847C114.307 48.0424 112.15 50.1822 109.369 50.1822H107.251V54.5799H104.025V40.5872H109.363C112.15 40.5872 114.307 42.7269 114.307 45.3847Z" fill="white"/>
<path d="M123.575 50.2385C123.575 49.4614 123.051 48.8983 122.246 48.8983H119.543V51.5786H122.246C123.051 51.5786 123.575 51.0212 123.575 50.2385ZM119.549 43.5828V46.0604H121.846C122.573 46.0604 123.074 45.5423 123.074 44.8216C123.074 44.1008 122.59 43.5828 121.846 43.5828H119.549ZM126.802 50.4806C126.802 52.9582 124.763 54.5799 122.246 54.5799H116.323V40.5872H121.846C124.302 40.5872 126.301 42.1638 126.301 44.5851C126.301 45.745 125.839 46.6629 125.073 47.3217C126.115 47.9805 126.802 49.0616 126.802 50.4806Z" fill="white"/>
<path d="M136.774 46.9838L131.334 54.5742H128.918V40.5872H132.139V48.1832L137.584 40.5872H140V54.5742H136.774V46.9838Z" fill="white"/>
<path d="M65.7634 74.1075L61.253 67.6263V74.1075H58.0266V60.1147H61.253V66.1905L65.5607 60.1147H69.232L64.4739 66.9281L69.4291 74.1075H65.7634Z" fill="white"/>
<path d="M81.1801 67.1081C81.1801 64.608 79.3669 62.9525 77.0696 62.9525C74.7722 62.9525 72.959 64.6136 72.959 67.1081C72.959 69.6082 74.7722 71.2637 77.0696 71.2637C79.3669 71.2637 81.1801 69.6082 81.1801 67.1081ZM69.7325 67.1081C69.7325 62.9919 73.0153 59.833 77.0696 59.833C81.1181 59.833 84.4066 62.9919 84.4066 67.1081C84.4066 71.2243 81.1238 74.3832 77.0696 74.3832C73.0153 74.3832 69.7325 71.2243 69.7325 67.1081Z" fill="white"/>
<path d="M85.3079 71.1062C86.7606 71.3258 87.6447 70.8866 87.6447 68.5498V60.1147H97.3973V74.1075H94.1708V63.1948H90.8655V68.4315C90.8655 73.4261 87.9037 74.389 85.3022 74.1075V71.1062H85.3079Z" fill="white"/>
<path d="M111.57 67.1081C111.57 64.608 109.756 62.9525 107.459 62.9525C105.162 62.9525 103.349 64.6136 103.349 67.1081C103.349 69.6082 105.162 71.2637 107.459 71.2637C109.751 71.2637 111.57 69.6082 111.57 67.1081ZM100.122 67.1081C100.122 62.9919 103.405 59.833 107.459 59.833C111.508 59.833 114.796 62.9919 114.796 67.1081C114.796 71.2243 111.513 74.3832 107.459 74.3832C103.405 74.3832 100.122 71.2243 100.122 67.1081Z" fill="white"/>
</svg>
