<svg width="156" height="37" viewBox="0 0 156 37" fill="none" xmlns="http://www.w3.org/2000/svg">
<path d="M0 18.5C0 8.28273 8.28273 0 18.5 0H136C147.046 0 156 8.9543 156 20V34C156 35.6569 154.657 37 153 37H18.5C8.28273 37 0 28.7173 0 18.5Z" fill="white"/>
<path d="M22.7852 23H24.6732V13.864H29.5852V23H31.4892V12.12H22.7852V23ZM38.5769 15.688C37.4729 15.688 36.5769 16.168 35.9849 16.952L35.6489 15.864H34.4649V26.52H36.2089V23.88C36.2089 23.256 36.2089 22.68 36.1769 22.184C36.7529 22.792 37.5849 23.176 38.5769 23.176C40.5609 23.176 41.9849 21.624 41.9849 19.4C41.9849 17.256 40.5449 15.688 38.5769 15.688ZM38.2089 21.656C36.9929 21.656 36.1449 20.76 36.1449 19.416C36.1449 18.104 36.9769 17.224 38.2089 17.224C39.4089 17.224 40.2089 18.12 40.2089 19.448C40.2089 20.744 39.4089 21.656 38.2089 21.656ZM49.9252 15.864L46.6772 19.144C46.4372 19.4 46.1972 19.656 45.9572 19.944C45.9892 19.656 45.9892 19.368 45.9892 19.064V15.864H44.2612V23.016H44.9332L48.2612 19.608C48.4852 19.384 48.6932 19.16 48.9012 18.904C48.8692 19.192 48.8692 19.464 48.8692 19.736V23H50.5972V15.864H49.9252ZM58.2198 19.336C58.7478 19.032 59.0838 18.552 59.0838 17.768C59.0838 16.6 58.1558 15.864 56.7958 15.864H53.2918V23H57.0678C58.4598 23 59.4038 22.28 59.4038 21.016C59.4038 20.152 58.9398 19.576 58.2198 19.336ZM56.4438 17.128C57.1318 17.128 57.4198 17.496 57.4198 17.928C57.4198 18.392 57.1318 18.792 56.4438 18.792H54.9878V17.128H56.4438ZM56.6358 21.736H54.9878V19.992H56.6358C57.3398 19.992 57.6598 20.36 57.6598 20.872C57.6598 21.384 57.3398 21.736 56.6358 21.736ZM62.5149 14.376C63.1709 14.376 63.6029 13.928 63.6029 13.352C63.6029 12.76 63.1869 12.296 62.5149 12.296C61.8429 12.296 61.4269 12.76 61.4269 13.336C61.4269 13.912 61.8429 14.376 62.5149 14.376ZM61.6349 23H63.3789V15.864H61.6349V23ZM67.3678 23H69.1278V17.368H71.1598V15.864H65.3198V17.368H67.3678V23ZM73.2533 20.968C72.7093 20.968 72.1333 21.32 72.1333 22.088C72.1333 22.808 72.6613 23.192 73.2533 23.192H73.3813C73.2533 23.864 72.8693 24.376 72.3093 24.888L72.7573 25.352C73.7973 24.584 74.4053 23.528 74.4053 22.344C74.4053 21.416 73.9093 20.968 73.2533 20.968ZM83.7359 15.864C82.1359 15.864 81.1279 16.792 81.1279 18.216C81.1279 19.224 81.6399 19.976 82.5039 20.328L80.6319 22.92V23H82.5679L84.2159 20.552H85.4479V23H87.1759V15.864H83.7359ZM84.0079 19.288C83.2239 19.288 82.8719 18.872 82.8719 18.264C82.8719 17.64 83.2239 17.224 84.0079 17.224H85.4479V19.288H84.0079ZM102.997 20.808V12.12H95.8927L95.3327 17.512C95.1887 18.856 94.9167 19.848 94.4207 20.808H93.1407V25.432H95.3167V23H102.149V25.432H104.341V20.808H102.997ZM97.6367 17.88L98.0047 14.312H100.661V20.808H96.9007C97.2847 19.928 97.5247 19.032 97.6367 17.88ZM106.431 23H108.799V19.288H110.703C113.087 19.288 114.479 17.704 114.479 15.736C114.479 13.784 113.055 12.12 110.719 12.12H106.431V23ZM108.799 17.304V14.136H110.399C111.471 14.136 112.095 14.824 112.095 15.736C112.095 16.584 111.551 17.304 110.367 17.304H108.799ZM122.927 12.12L120.655 17.608L117.855 12.12H115.263L119.503 20.024C118.959 20.712 118.191 21.032 116.847 21.112L117.071 23.128C119.903 22.984 120.879 22.136 122.111 19.416L125.455 12.12H122.927ZM127.258 23H129.626V14.312H134.266V12.12H127.258V23Z" fill="#2A6ACC"/>
</svg>
