<svg width="410" height="44" viewBox="0 0 410 44" fill="none" xmlns="http://www.w3.org/2000/svg">
<path d="M0 6C0 2.68629 2.68629 0 6 0H410V38C410 41.3137 407.314 44 404 44H0V6Z" fill="#2ACC92"/>
<path d="M29.9123 16.056H29.3363L24.2003 26.968V27H26.1843L27.0803 25.032H32.1683L33.0643 27H35.0323V26.952L29.9123 16.056ZM29.6243 19.096C29.8803 19.8 30.1043 20.376 30.3603 20.952L31.5443 23.544H27.7043L28.8883 20.952C29.1443 20.36 29.3683 19.8 29.6243 19.096ZM40.2474 19.848C39.2394 19.848 38.3114 20.232 37.5914 21.144C37.7354 19.896 38.2474 18.968 39.0634 18.472C40.2954 17.672 41.4634 17.8 42.8554 16.92L42.2794 15.368C41.0154 16.168 39.7034 16.008 38.0874 17.112C36.5674 18.136 35.9434 20.088 35.9434 21.784V22.616C35.9434 25.592 37.4634 27.176 39.7834 27.176C41.9274 27.176 43.5754 25.864 43.5754 23.432C43.5754 21.128 42.0554 19.848 40.2474 19.848ZM39.7834 25.656C38.6634 25.656 37.8154 24.856 37.8154 23.528C37.8154 22.264 38.6474 21.368 39.7994 21.368C41.0634 21.368 41.7994 22.312 41.7994 23.48C41.7994 24.696 41.0954 25.656 39.7834 25.656ZM48.7038 27.208C49.9678 27.208 50.7838 26.84 51.5838 26.104L50.7038 24.936C50.1758 25.432 49.6478 25.672 48.8798 25.672C47.7278 25.672 46.7838 24.84 46.7838 23.432C46.7838 22.072 47.7118 21.192 48.9118 21.192C49.5998 21.192 50.0798 21.368 50.5918 21.8L51.4398 20.632C50.6878 19.976 49.8238 19.672 48.7838 19.672C46.7358 19.672 45.0238 21.096 45.0238 23.432C45.0238 25.928 46.8958 27.208 48.7038 27.208ZM56.4022 27.208C58.6422 27.208 60.2422 25.64 60.2422 23.432C60.2422 21.224 58.6422 19.672 56.4022 19.672C54.1622 19.672 52.5782 21.224 52.5782 23.432C52.5782 25.64 54.1622 27.208 56.4022 27.208ZM56.4022 25.656C55.1862 25.656 54.3382 24.744 54.3382 23.432C54.3382 22.12 55.1862 21.208 56.4022 21.208C57.6342 21.208 58.4662 22.12 58.4662 23.432C58.4662 24.744 57.6342 25.656 56.4022 25.656ZM61.2512 27.112C63.3792 26.968 64.2272 25.96 64.4352 23.496L64.5952 21.368H66.4992V27H68.2432V19.864H63.0592L62.7552 23.384C62.6272 24.792 62.2752 25.464 61.0592 25.592L61.2512 27.112ZM77.2597 19.672C75.2917 19.672 73.8837 20.872 73.5637 22.648H72.3477V19.864H70.6037V27H72.3477V24.136H73.5477C73.8357 25.96 75.2597 27.192 77.2597 27.192C79.5157 27.192 81.0837 25.64 81.0837 23.432C81.0837 21.24 79.5157 19.672 77.2597 19.672ZM77.2597 25.656C76.0597 25.656 75.2437 24.744 75.2437 23.432C75.2437 22.12 76.0597 21.224 77.2597 21.224C78.4757 21.224 79.3077 22.12 79.3077 23.432C79.3077 24.744 78.4757 25.656 77.2597 25.656ZM84.0478 27H85.8078V21.368H87.8398V19.864H81.9998V21.368H84.0478V27ZM94.0864 19.864V22.648H91.2064V19.864H89.4624V27H91.2064V24.152H94.0864V27H95.8464V19.864H94.0864ZM101.596 27.208C103.836 27.208 105.436 25.64 105.436 23.432C105.436 21.224 103.836 19.672 101.596 19.672C99.3559 19.672 97.7719 21.224 97.7719 23.432C97.7719 25.64 99.3559 27.208 101.596 27.208ZM101.596 25.656C100.38 25.656 99.5319 24.744 99.5319 23.432C99.5319 22.12 100.38 21.208 101.596 21.208C102.828 21.208 103.66 22.12 103.66 23.432C103.66 24.744 102.828 25.656 101.596 25.656ZM114.114 19.736C113.154 19.736 112.178 19.992 111.122 20.472L111.618 21.8C112.354 21.448 113.138 21.224 113.842 21.224C114.754 21.224 115.298 21.592 115.298 22.328V22.648C115.042 22.632 114.77 22.616 114.402 22.616C112.226 22.616 110.786 23.512 110.786 25.144C110.786 26.408 111.714 27.144 113.026 27.144C114.194 27.144 115.042 26.68 115.57 25.928L115.89 27H117.058V22.392C117.058 20.664 115.938 19.736 114.114 19.736ZM113.538 25.832C112.898 25.832 112.514 25.528 112.514 24.968C112.514 24.184 113.25 23.736 114.514 23.736C114.834 23.736 115.058 23.752 115.346 23.784C115.314 25.08 114.562 25.832 113.538 25.832ZM123.96 19.864V22.648H121.08V19.864H119.336V27H121.08V24.152H123.96V27H125.72V19.864H123.96ZM131.47 27.208C133.71 27.208 135.31 25.64 135.31 23.432C135.31 21.224 133.71 19.672 131.47 19.672C129.23 19.672 127.646 21.224 127.646 23.432C127.646 25.64 129.23 27.208 131.47 27.208ZM131.47 25.656C130.254 25.656 129.406 24.744 129.406 23.432C129.406 22.12 130.254 21.208 131.47 21.208C132.702 21.208 133.534 22.12 133.534 23.432C133.534 24.744 132.702 25.656 131.47 25.656ZM141.85 19.864V22.648H138.97V19.864H137.226V27H138.97V24.152H141.85V27H143.61V19.864H141.85ZM146.864 18.376C147.52 18.376 147.952 17.928 147.952 17.352C147.952 16.76 147.536 16.296 146.864 16.296C146.192 16.296 145.776 16.76 145.776 17.336C145.776 17.912 146.192 18.376 146.864 18.376ZM145.984 27H147.728V19.864H145.984V27ZM157.557 19.864H157.013L154.549 22.792C154.373 23 154.181 23.224 154.021 23.464C153.845 23.224 153.653 23 153.477 22.792L151.013 19.864H150.469L149.813 27H151.525L151.813 23.896C151.829 23.608 151.861 23.32 151.861 23.016C152.085 23.32 152.325 23.608 152.549 23.912L153.829 25.48H154.197L155.525 23.832C155.749 23.56 155.957 23.304 156.165 23.032C156.165 23.288 156.197 23.56 156.213 23.816L156.485 27H158.213L157.557 19.864ZM164.904 19.864V22.648H162.024V19.864H160.28V27H162.024V24.152H164.904V27H166.664V19.864H164.904ZM171.885 19.736C170.925 19.736 169.949 19.992 168.893 20.472L169.389 21.8C170.125 21.448 170.909 21.224 171.613 21.224C172.525 21.224 173.069 21.592 173.069 22.328V22.648C172.813 22.632 172.541 22.616 172.173 22.616C169.997 22.616 168.557 23.512 168.557 25.144C168.557 26.408 169.485 27.144 170.797 27.144C171.965 27.144 172.813 26.68 173.341 25.928L173.661 27H174.829V22.392C174.829 20.664 173.709 19.736 171.885 19.736ZM171.309 25.832C170.669 25.832 170.285 25.528 170.285 24.968C170.285 24.184 171.021 23.736 172.285 23.736C172.605 23.736 172.829 23.752 173.117 23.784C173.085 25.08 172.333 25.832 171.309 25.832ZM181.021 27H182.765V21.384H185.645V27H187.389V19.864H181.021V27ZM192.995 27.208C194.259 27.208 195.075 26.84 195.875 26.104L194.995 24.936C194.467 25.432 193.939 25.672 193.171 25.672C192.019 25.672 191.075 24.84 191.075 23.432C191.075 22.072 192.003 21.192 193.203 21.192C193.891 21.192 194.371 21.368 194.883 21.8L195.731 20.632C194.979 19.976 194.115 19.672 193.075 19.672C191.027 19.672 189.315 21.096 189.315 23.432C189.315 25.928 191.187 27.208 192.995 27.208ZM203.122 19.864L199.874 23.144C199.634 23.4 199.394 23.656 199.154 23.944C199.186 23.656 199.186 23.368 199.186 23.064V19.864H197.458V27.016H198.13L201.458 23.608C201.682 23.384 201.89 23.16 202.098 22.904C202.066 23.192 202.066 23.464 202.066 23.736V27H203.794V19.864H203.122ZM205.417 27H207.353L208.409 25.336C208.585 25.048 208.745 24.76 208.921 24.376C209.113 24.76 209.257 25.048 209.433 25.336L210.473 27H212.441V26.968L210.041 23.288L212.217 19.912V19.864H210.313L209.401 21.32L208.921 22.184C208.761 21.848 208.633 21.592 208.473 21.336L207.577 19.864H205.625V19.912L207.817 23.288L205.417 26.968V27ZM217.037 27.208C219.277 27.208 220.877 25.64 220.877 23.432C220.877 21.224 219.277 19.672 217.037 19.672C214.797 19.672 213.213 21.224 213.213 23.432C213.213 25.64 214.797 27.208 217.037 27.208ZM217.037 25.656C215.821 25.656 214.973 24.744 214.973 23.432C214.973 22.12 215.821 21.208 217.037 21.208C218.269 21.208 219.101 22.12 219.101 23.432C219.101 24.744 218.269 25.656 217.037 25.656ZM221.886 27.112C224.014 26.968 224.862 25.96 225.07 23.496L225.23 21.368H227.134V27H228.878V19.864H223.694L223.39 23.384C223.262 24.792 222.91 25.464 221.694 25.592L221.886 27.112ZM234.614 27.208C236.854 27.208 238.454 25.64 238.454 23.432C238.454 21.224 236.854 19.672 234.614 19.672C232.374 19.672 230.79 21.224 230.79 23.432C230.79 25.64 232.374 27.208 234.614 27.208ZM234.614 25.656C233.398 25.656 232.55 24.744 232.55 23.432C232.55 22.12 233.398 21.208 234.614 21.208C235.846 21.208 236.678 22.12 236.678 23.432C236.678 24.744 235.846 25.656 234.614 25.656ZM240.371 27H242.131V21.368H245.219V19.864H240.371V27ZM247.774 18.376C248.43 18.376 248.862 17.928 248.862 17.352C248.862 16.76 248.446 16.296 247.774 16.296C247.102 16.296 246.686 16.76 246.686 17.336C246.686 17.912 247.102 18.376 247.774 18.376ZM246.894 27H248.638V19.864H246.894V27ZM254.883 19.864V23C254.499 23.224 254.099 23.304 253.571 23.304C252.723 23.304 252.307 23 252.307 22.168V19.864H250.563V22.328C250.563 24.04 251.491 24.824 253.091 24.824C253.747 24.824 254.355 24.648 254.883 24.36V27H256.627V19.864H254.883ZM263.611 19.864V22.648H260.731V19.864H258.987V27H260.731V24.152H263.611V27H265.371V19.864H263.611ZM270.592 19.736C269.632 19.736 268.656 19.992 267.6 20.472L268.096 21.8C268.832 21.448 269.616 21.224 270.32 21.224C271.232 21.224 271.776 21.592 271.776 22.328V22.648C271.52 22.632 271.248 22.616 270.88 22.616C268.704 22.616 267.264 23.512 267.264 25.144C267.264 26.408 268.192 27.144 269.504 27.144C270.672 27.144 271.52 26.68 272.048 25.928L272.368 27H273.536V22.392C273.536 20.664 272.416 19.736 270.592 19.736ZM270.016 25.832C269.376 25.832 268.992 25.528 268.992 24.968C268.992 24.184 269.728 23.736 270.992 23.736C271.312 23.736 271.536 23.752 271.824 23.784C271.792 25.08 271.04 25.832 270.016 25.832ZM279.728 27H281.472V21.384H284.352V27H286.096V19.864H279.728V27ZM289.35 18.376C290.006 18.376 290.438 17.928 290.438 17.352C290.438 16.76 290.022 16.296 289.35 16.296C288.678 16.296 288.262 16.76 288.262 17.336C288.262 17.912 288.678 18.376 289.35 18.376ZM288.47 27H290.214V19.864H288.47V27ZM298.906 25.528V19.864H293.674L293.354 23.336C293.274 24.248 293.13 24.904 292.73 25.528H291.834V28.824H293.434V27H298.298V28.824H299.898V25.528H298.906ZM295.21 21.32H297.226V25.56H294.522C294.794 25.016 294.906 24.488 294.986 23.624L295.21 21.32ZM302.703 27H304.463V21.368H306.495V19.864H300.655V21.368H302.703V27ZM312.229 19.688C311.125 19.688 310.229 20.168 309.637 20.952L309.301 19.864H308.117V30.52H309.861V27.88C309.861 27.256 309.861 26.68 309.829 26.184C310.405 26.792 311.237 27.176 312.229 27.176C314.213 27.176 315.637 25.624 315.637 23.4C315.637 21.256 314.197 19.688 312.229 19.688ZM311.861 25.656C310.645 25.656 309.797 24.76 309.797 23.416C309.797 22.104 310.629 21.224 311.861 21.224C313.061 21.224 313.861 22.12 313.861 23.448C313.861 24.744 313.061 25.656 311.861 25.656ZM323.258 19.864L320.01 23.144C319.77 23.4 319.53 23.656 319.29 23.944C319.322 23.656 319.322 23.368 319.322 23.064V19.864H317.594V27.016H318.266L321.594 23.608C321.818 23.384 322.026 23.16 322.234 22.904C322.202 23.192 322.202 23.464 322.202 23.736V27H323.93V19.864H323.258ZM333.76 19.864H333.216L330.752 22.792C330.576 23 330.384 23.224 330.224 23.464C330.048 23.224 329.856 23 329.68 22.792L327.216 19.864H326.672L326.016 27H327.728L328.016 23.896C328.032 23.608 328.064 23.32 328.064 23.016C328.288 23.32 328.528 23.608 328.752 23.912L330.032 25.48H330.4L331.728 23.832C331.952 23.56 332.16 23.304 332.368 23.032C332.368 23.288 332.4 23.56 332.416 23.816L332.688 27H334.416L333.76 19.864ZM339.732 23.32L342.564 19.928V19.864H340.58L338.228 22.696V19.864H336.484V27H338.228V23.96L340.804 27H342.804V26.92L339.732 23.32ZM346.917 19.736C345.957 19.736 344.981 19.992 343.925 20.472L344.421 21.8C345.157 21.448 345.941 21.224 346.645 21.224C347.557 21.224 348.101 21.592 348.101 22.328V22.648C347.845 22.632 347.573 22.616 347.205 22.616C345.029 22.616 343.589 23.512 343.589 25.144C343.589 26.408 344.517 27.144 345.829 27.144C346.997 27.144 347.845 26.68 348.373 25.928L348.693 27H349.861V22.392C349.861 20.664 348.741 19.736 346.917 19.736ZM346.341 25.832C345.701 25.832 345.317 25.528 345.317 24.968C345.317 24.184 346.053 23.736 347.317 23.736C347.637 23.736 347.861 23.752 348.149 23.784C348.117 25.08 347.365 25.832 346.341 25.832ZM359.333 25.384C359.045 25.384 358.645 25.384 358.277 25.4C358.501 25.16 358.741 24.856 358.917 24.616L360.645 22.296C361.717 20.888 362.069 20.152 362.069 19.128C362.069 17.528 360.869 16.232 358.949 16.232C357.493 16.232 356.421 16.952 355.621 18.168L356.869 19.128C357.397 18.408 358.005 17.944 358.805 17.944C359.653 17.944 360.165 18.52 360.165 19.32C360.165 19.864 359.909 20.392 359.269 21.272L355.525 26.296V27H362.277V25.384H359.333ZM369.997 23.48V16.312H368.957L363.261 24.024V25H368.269V27H369.997V25H371.197V23.48H369.997ZM368.317 23.48H366.541C366.173 23.48 365.821 23.48 365.453 23.496C365.661 23.24 365.853 22.984 366.061 22.712L367.693 20.472C367.917 20.184 368.125 19.88 368.365 19.496C368.317 19.976 368.317 20.344 368.317 20.824V23.48ZM373.665 27.192L377.873 15.928H376.513L372.289 27.192H373.665ZM378.918 16.424V18.04H382.182C382.646 18.04 382.966 18.04 383.35 18.024C383.238 18.312 383.094 18.648 382.95 19.048L379.958 27H381.878L385.606 17.112V16.424H378.918Z" fill="#F7F9FD"/>
</svg>
