<svg width="21" height="17" viewBox="0 0 21 17" fill="none" xmlns="http://www.w3.org/2000/svg">
<path d="M10.5 1.80597C10.3323 1.80597 9.91374 1.85221 9.64923 2.28047L2.73526 13.4745C2.4567 13.9255 2.62669 14.3329 2.7127 14.4871C2.79871 14.6413 3.05599 15 3.58606 15H17.414C17.9441 15 18.2013 14.6413 18.2874 14.4871C18.3734 14.3329 18.5433 13.9255 18.2648 13.4745L11.3508 2.28047C11.0863 1.85221 10.6677 1.80597 10.5 1.80597ZM10.5 0.805969C11.1554 0.805969 11.8108 1.12231 12.2016 1.75498L19.1156 12.949C19.9386 14.2815 18.9801 16 17.414 16H3.58606C2.01994 16 1.06148 14.2815 1.88446 12.949L8.79843 1.75498C9.1892 1.12231 9.84461 0.805969 10.5 0.805969Z" fill="#E95146"/>
<path d="M10.563 11.224C10.3509 11.2419 10.1533 11.3388 10.0092 11.4955C9.86522 11.6521 9.78528 11.8572 9.78528 12.07C9.78528 12.2828 9.86522 12.4879 10.0092 12.6446C10.1533 12.8013 10.3509 12.8981 10.563 12.916C10.7715 12.8933 10.9643 12.7944 11.1043 12.6382C11.2444 12.4821 11.3219 12.2798 11.3219 12.07C11.3219 11.8603 11.2444 11.6579 11.1043 11.5018C10.9643 11.3456 10.7715 11.2467 10.563 11.224V11.224Z" fill="#E95146"/>
<path d="M10.373 4.84901C10.1864 4.91723 10.027 5.04422 9.91879 5.21086C9.81058 5.3775 9.75943 5.57478 9.77302 5.77301C9.79202 6.04001 9.80702 6.31102 9.82602 6.57802C9.87902 7.59602 9.93201 8.59502 9.98501 9.61302C9.9834 9.76971 10.0438 9.92068 10.153 10.0331C10.2622 10.1454 10.4114 10.2101 10.568 10.213C10.7263 10.2065 10.8758 10.1385 10.9847 10.0235C11.0935 9.9084 11.1532 9.7554 11.151 9.59701C11.151 9.38701 11.151 9.19702 11.17 8.98102C11.204 8.32802 11.242 7.67502 11.276 7.02202C11.295 6.59902 11.329 6.17602 11.348 5.75302C11.3514 5.6087 11.327 5.46508 11.276 5.33001C11.2111 5.15277 11.083 5.00571 10.9164 4.91696C10.7498 4.82821 10.5563 4.80402 10.373 4.84901V4.84901Z" fill="#E95146"/>
</svg>
