<svg width="62" height="62" viewBox="0 0 62 62" fill="none" xmlns="http://www.w3.org/2000/svg">
<path d="M57.0025 0H4.99749C2.24202 0 0 2.24202 0 4.99749V57.0025C0 59.758 2.24202 62 4.99749 62H57.0025C59.758 62 62 59.758 62 57.0025V4.99749C62 2.24202 59.7583 0 57.0025 0ZM57.0025 57.7164H4.99749C4.61054 57.7164 4.28356 57.3895 4.28356 57.0025V4.99749C4.28356 4.61054 4.61054 4.28356 4.99749 4.28356H57.0025C57.3895 4.28356 57.7164 4.61054 57.7164 4.99749V29.2867H53.8267V28.2709C53.8267 24.7036 50.9244 21.8013 47.3568 21.8013H42.3704C38.8028 21.8013 35.9005 24.7036 35.9005 28.2709V29.2867H31.0001C30.054 29.2867 29.2867 30.0538 29.2867 31.0001C29.2867 31.9465 30.054 32.7136 31.0001 32.7136H57.7167V57.0028C57.7164 57.3895 57.3897 57.7164 57.0025 57.7164ZM39.3274 29.2867V28.2709C39.3274 26.5929 40.6924 25.2282 42.3704 25.2282H47.3568C49.0348 25.2282 50.3998 26.5932 50.3998 28.2709V29.2867H39.3274Z" fill="#636268"/>
<path d="M20.1433 9.16113H13.4749C10.7192 9.16113 8.47746 11.4031 8.47746 14.1586V47.9465C8.47746 50.702 10.7192 52.944 13.4749 52.944H20.1436C22.8991 52.944 25.1411 50.702 25.1411 47.9465V14.1586C25.1408 11.4031 22.8991 9.16113 20.1433 9.16113ZM20.8572 47.9465C20.8572 48.3335 20.5303 48.6604 20.1433 48.6604H13.4749C13.088 48.6604 12.761 48.3335 12.761 47.9465V14.1586C12.761 13.7717 13.088 13.4447 13.4749 13.4447H20.1436C20.5305 13.4447 20.8575 13.7717 20.8575 14.1586V47.9465H20.8572Z" fill="#636268"/>
<path d="M44.844 20.9022C48.4988 20.9022 51.4719 17.9283 51.4719 14.2724C51.4719 10.6165 48.4988 7.64258 44.844 7.64258C41.1887 7.64258 38.2151 10.6168 38.2151 14.2724C38.2151 17.928 41.1887 20.9022 44.844 20.9022ZM44.844 11.0697C46.6092 11.0697 48.045 12.5064 48.045 14.2727C48.045 16.0389 46.6092 17.4756 44.844 17.4756C43.0784 17.4756 41.6419 16.0389 41.6419 14.2727C41.6419 12.5064 43.0786 11.0697 44.844 11.0697Z" fill="#636268"/>
<path d="M52.0787 36.7354H37.6497C36.7033 36.7354 35.9362 37.5027 35.9362 38.4488C35.9362 39.3952 36.7036 40.1622 37.6497 40.1622H52.0787C53.0248 40.1622 53.7921 39.3952 53.7921 38.4488C53.7921 37.5024 53.0251 36.7354 52.0787 36.7354Z" fill="#636268"/>
<path d="M31.0001 36.3091C30.4347 36.3091 29.8836 36.5375 29.4866 36.9345C29.0868 37.3343 28.8584 37.8854 28.8584 38.448C28.8584 39.0134 29.0868 39.5646 29.4866 39.9644C29.8836 40.3613 30.4376 40.5898 31.0001 40.5898C31.5627 40.5898 32.1136 40.3613 32.5137 39.9644C32.9135 39.5646 33.1419 39.0134 33.1419 38.448C33.1419 37.8854 32.9135 37.3343 32.5137 36.9345C32.1167 36.5373 31.5653 36.3091 31.0001 36.3091Z" fill="#636268"/>
<path d="M52.0787 43.3359H37.6497C36.7033 43.3359 35.9362 44.1033 35.9362 45.0494C35.9362 45.9957 36.7036 46.7628 37.6497 46.7628H52.0787C53.0248 46.7628 53.7921 45.9957 53.7921 45.0494C53.7921 44.103 53.0251 43.3359 52.0787 43.3359Z" fill="#636268"/>
<path d="M31.0001 42.9082C30.4376 42.9082 29.8836 43.1367 29.4866 43.5365C29.0868 43.9334 28.8584 44.4846 28.8584 45.05C28.8584 45.6126 29.0868 46.1666 29.4866 46.5635C29.8836 46.9633 30.4376 47.1918 31.0001 47.1918C31.5627 47.1918 32.1167 46.9633 32.5137 46.5635C32.9135 46.1637 33.1419 45.6126 33.1419 45.05C33.1419 44.4874 32.9135 43.9334 32.5137 43.5365C32.1167 43.1369 31.5624 42.9082 31.0001 42.9082Z" fill="#636268"/>
</svg>
