<svg width="66" height="66" viewBox="0 0 66 66" fill="none" xmlns="http://www.w3.org/2000/svg">
<path d="M59.5358 20.7406C56.3364 8.62541 45.2502 0 32.5524 0C19.9327 0 8.85981 8.62217 5.60295 20.7338C2.41921 21.3244 0 24.1228 0 27.4755V35.2013C0 38.2082 1.94628 40.7692 4.645 41.6912V44.9224C4.645 54.6234 12.5383 62.5158 22.2405 62.5158H24.4055C25.2703 64.5612 27.2968 66 29.6532 66H35.4475C38.5876 66 41.1425 63.4455 41.1425 60.3057C41.1425 57.165 38.5876 54.6101 35.4475 54.6101H29.6532C27.2974 54.6101 25.2712 56.0484 24.4061 58.0931H22.2405C14.977 58.0931 9.06768 52.1847 9.06768 44.9224V39.8454C9.06768 38.6242 8.07759 37.6341 6.85634 37.6341C5.5145 37.6341 4.42268 36.5426 4.42268 35.201V27.4755C4.42268 26.1336 5.5145 25.0418 6.84602 25.0418L7.3676 25.0442C7.37114 25.0442 7.37468 25.0442 7.37822 25.0442C8.42787 25.0442 9.33393 24.3056 9.54445 23.2763C11.7803 12.3517 21.4565 4.42268 32.5524 4.42268C43.72 4.42268 53.4054 12.3461 55.5822 23.2627C55.7883 24.2968 56.6962 25.0415 57.7508 25.0415H58.247C59.5889 25.0415 60.6807 26.1333 60.6807 27.4752V35.201C60.6807 36.5426 59.5889 37.6341 58.247 37.6341C57.0258 37.6341 56.0357 38.6242 56.0357 39.8454C56.0357 41.0667 57.0258 42.0568 58.247 42.0568C62.0276 42.0568 65.1034 38.9812 65.1034 35.201V27.4755C65.1031 24.1352 62.7022 21.3453 59.5358 20.7406ZM29.6535 59.0328H35.4478C36.1492 59.0328 36.7201 59.6036 36.7201 60.3057C36.7201 61.0068 36.1492 61.5773 35.4478 61.5773H29.6535C28.9524 61.5773 28.3818 61.0068 28.3818 60.3057C28.3815 59.6036 28.9521 59.0328 29.6535 59.0328Z" fill="#636268"/>
<path d="M32.551 10.6265C21.1307 10.6265 11.8395 19.9168 11.8395 31.3358C11.8395 42.7567 21.1307 52.0484 32.551 52.0484C43.9712 52.0484 53.2621 42.7567 53.2621 31.3358C53.2621 19.9168 43.9712 10.6265 32.551 10.6265ZM32.551 47.6258C23.5694 47.6258 16.2622 40.318 16.2622 31.3358C16.2622 22.3554 23.5694 15.0491 32.551 15.0491C41.5325 15.0491 48.8394 22.3554 48.8394 31.3358C48.8394 40.3183 41.5325 47.6258 32.551 47.6258Z" fill="#636268"/>
</svg>
