<svg width="66" height="66" viewBox="0 0 66 66" fill="none" xmlns="http://www.w3.org/2000/svg">
<path d="M56.3345 9.66545C50.1017 3.43263 41.8145 0 33 0C24.185 0 15.8983 3.43263 9.66545 9.66545C3.43263 15.8983 0 24.1855 0 33C0 41.8145 3.43263 50.1017 9.66545 56.3345C15.8983 62.5674 24.185 66 33 66C41.8145 66 50.1017 62.5674 56.3345 56.3345C62.5674 50.1017 66 41.8145 66 33C66 24.1855 62.5674 15.8983 56.3345 9.66545ZM33 62.1328C16.9361 62.1328 3.86719 49.0639 3.86719 33C3.86719 16.9361 16.9361 3.86719 33 3.86719C49.0639 3.86719 62.1328 16.9361 62.1328 33C62.1328 49.0639 49.0639 62.1328 33 62.1328Z" fill="#636268"/>
<path d="M51.1053 31.0498H45.9279C44.8599 31.0498 43.9943 31.9159 43.9943 32.9834C43.9943 34.0514 44.8599 34.917 45.9279 34.917H46.4636C45.5291 41.5114 39.8481 46.5996 33 46.5996C26.1458 46.5996 20.4613 41.5028 19.5338 34.9004H20.0892C21.1567 34.9004 22.0228 34.0348 22.0228 32.9668C22.0228 31.8988 21.1567 31.0332 20.0892 31.0332H14.9113C13.8433 31.0332 12.9777 31.8988 12.9777 32.9668C12.9777 34.0348 13.8433 34.9004 14.9113 34.9004H15.6369C16.5871 43.6408 24.0108 50.4668 33 50.4668C41.9831 50.4668 49.4033 43.6499 50.361 34.917H51.1053C52.1733 34.917 53.0389 34.0514 53.0389 32.9834C53.0389 31.9159 52.1733 31.0498 51.1053 31.0498Z" fill="#636268"/>
<path d="M43.3558 23.5427C44.4233 23.5427 45.2894 22.6772 45.2894 21.6091V19.5381C45.2894 18.4701 44.4233 17.6045 43.3558 17.6045C42.2878 17.6045 41.4222 18.4701 41.4222 19.5381V21.6091C41.4222 22.6772 42.2878 23.5427 43.3558 23.5427Z" fill="#636268"/>
<path d="M22.6442 23.5427C23.7122 23.5427 24.5778 22.6772 24.5778 21.6091V19.5381C24.5778 18.4701 23.7122 17.6045 22.6442 17.6045C21.5767 17.6045 20.7106 18.4701 20.7106 19.5381V21.6091C20.7106 22.6772 21.5767 23.5427 22.6442 23.5427Z" fill="#636268"/>
</svg>
