<svg width="351" height="328" viewBox="0 0 351 328" fill="none" xmlns="http://www.w3.org/2000/svg">
<mask id="mask0" mask-type="alpha" maskUnits="userSpaceOnUse" x="4" y="3" width="343" height="320">
<path d="M4 9C4 5.6863 6.68629 3 10 3H341C344.314 3 347 5.68629 347 9V323H4V9Z" fill="white"/>
</mask>
<g mask="url(#mask0)">
<path d="M-248.956 -86.5401C-252.171 -66.0409 -250.99 -49.1211 -249.144 -37.1176C-246.303 -18.5849 -240.73 -4.14798 -234.772 11.3029C-226.22 33.4966 -223.714 33.556 -217.136 51.7342C-208.893 74.4804 -204.06 87.8605 -205.482 104.679C-207.599 129.776 -220.994 130.917 -226.717 159.961C-231.944 186.448 -225.035 206.956 -223.147 212.182C-217.529 227.705 -208.054 253.932 -173.239 272.193C-144.315 287.365 -111.324 291.868 -111.324 291.868C-92.7349 294.407 -86.6304 292.441 -75.7642 297.192C-57.374 305.223 -44.7012 323.983 -42.9966 326.525C-42.0316 327.959 -40.5525 330.271 -37.6362 333.151C-35.6222 335.141 -28.9833 341.54 -17.7417 345.395C-3.83509 350.155 10.2408 348.671 16.7451 347.928C37.0992 345.606 49.825 337.634 62.0969 329.963C82.9283 316.918 93.1862 302.966 99.9661 293.525C107.835 282.573 106.645 280.868 111.897 273.375C123.182 257.295 147.969 237.61 184.843 229.03C232.578 217.932 275.887 231.184 284.562 233.84C349.306 253.659 369.086 300.529 379.103 324.262C401.96 378.44 381.55 425.413 368.931 447.796L-252.903 445.992L-333.474 445.758L-331.452 -86.7899L-248.956 -86.5506L-248.956 -86.5401Z" fill="#D7CAC7"/>
<path d="M143.633 225.778C150.098 234.375 148.305 247.51 147.055 256.738C146.621 259.871 144.973 270.717 137.14 288.986C134.965 294.053 131.502 301.605 102.505 347.996C80.2775 383.547 80.62 381.828 77.7306 387.957C75.9936 391.658 73.0377 398.295 67.036 405.791C60.4611 414.008 53.7889 418.787 50.8491 420.854C38.5579 429.52 28.652 431.01 26.3179 431.31C17.0268 432.497 11.5509 429.589 6.45058 426.889C-1.84563 422.487 -6.06337 416.141 -7.45605 413.87C-10.0188 409.676 -11.2313 405.802 -14.3297 381.17C-17.7323 354.023 -17.5071 348.712 -15.2278 341.068C-13.7347 336.036 -10.6566 326.055 -2.60097 316.207C3.39358 308.869 10.2098 303.964 16.1874 299.663C25.4651 292.991 27.5795 293.319 33.4256 287.943C39.6224 282.239 42.0915 277.429 46.9611 270.334C55.8065 257.424 66.1573 246.337 73.6623 239.762C90.409 225.09 106.262 221.212 110.416 220.263C118.162 218.44 135.17 214.533 143.633 225.778Z" fill="#E59889"/>
<path d="M-247.88 92.1832L-247.88 92.1834C-239.63 114.952 -234.843 128.226 -236.255 144.916L-235.757 144.957L-236.255 144.916C-237.304 157.348 -241.134 163.828 -245.448 170.857C-245.549 171.021 -245.65 171.185 -245.751 171.35C-250.007 178.28 -254.67 185.87 -257.482 200.143C-262.735 226.76 -255.793 247.368 -253.892 252.631L-253.891 252.632L-253.881 252.66C-248.252 268.215 -238.713 294.575 -203.746 312.914C-189.237 320.525 -173.718 325.456 -161.834 328.483C-155.89 329.997 -150.851 331.037 -147.297 331.697C-145.52 332.028 -144.114 332.264 -143.152 332.417C-142.67 332.494 -142.3 332.55 -142.05 332.587C-141.924 332.605 -141.829 332.619 -141.765 332.628L-141.692 332.638L-141.673 332.641L-141.668 332.642L-141.667 332.642C-141.667 332.642 -141.667 332.642 -141.636 332.421L-141.667 332.642C-134.831 333.576 -129.665 333.903 -125.353 334.176C-123.791 334.275 -122.341 334.366 -120.963 334.477C-115.788 334.894 -111.605 335.583 -106.239 337.929L-106.239 337.929C-87.996 345.896 -75.3927 364.538 -73.6866 367.083L-73.6861 367.083C-73.6227 367.178 -73.557 367.276 -73.4888 367.377C-72.5166 368.829 -71.0234 371.059 -68.2624 373.785C-66.2265 375.797 -59.524 382.256 -48.1789 386.146L-48.1787 386.146C-34.1568 390.946 -19.9814 389.447 -13.4732 388.703C6.9587 386.372 19.7563 378.373 32.0105 370.713L32.0869 370.665L32.0873 370.665C53.001 357.569 63.3043 343.554 70.0975 334.095C74.05 328.594 75.7337 325.405 77.0871 322.652C77.2408 322.339 77.39 322.032 77.5376 321.729C78.6815 319.378 79.7287 317.226 82.0318 313.94C93.2403 297.97 117.917 278.35 154.681 269.795C202.28 258.73 245.479 271.945 254.14 274.597C318.656 294.346 338.36 341.024 348.367 364.733L348.368 364.736C371.048 418.494 350.966 465.138 338.364 487.573L-283.176 485.77L-363.247 485.538L-361.228 -46.0099L-279.812 -45.7737C-282.928 -25.4672 -281.748 -8.69492 -279.912 3.23739C-277.068 21.7948 -271.491 36.2582 -265.547 51.6738L-265.513 51.7617C-261.23 62.8784 -258.458 68.4569 -255.936 73.5259L-255.917 73.5644C-253.41 78.6027 -251.152 83.1428 -247.88 92.1832Z" stroke="white"/>
<mask id="mask1" mask-type="alpha" maskUnits="userSpaceOnUse" x="73" y="-5" width="256" height="97">
<rect width="254.986" height="95.8458" rx="6" transform="matrix(1 -8.14215e-08 -8.14215e-08 -1 73.9307 91.6121)" fill="white"/>
</mask>
<g mask="url(#mask1)">
<path d="M-172.282 153.33C-169.563 140.643 -165.081 131.03 -161.312 124.437C-155.499 114.255 -149.009 107.076 -142.068 99.3918C-132.1 88.3528 -130.623 88.88 -122.708 79.7427C-112.798 68.3118 -106.976 61.5843 -104.037 51.4474C-99.6463 36.3219 -107.21 32.6528 -104.04 14.4149C-101.154 -2.21953 -92.5234 -12.6426 -90.2493 -15.2704C-83.49 -23.073 -72.0795 -36.2597 -47.6619 -39.1148C-27.3755 -41.4885 -7.10669 -36.7211 -7.10669 -36.7211C4.31429 -34.0362 7.43717 -31.5198 14.8457 -31.8577C27.3818 -32.4235 38.9853 -40.534 40.5504 -41.6361C41.435 -42.2566 42.8167 -43.2747 45.1649 -44.3022C46.7867 -45.0124 52.0969 -47.26 59.5235 -46.99C68.7089 -46.6515 76.5935 -42.6298 80.2238 -40.7378C91.5855 -34.8195 97.2274 -27.3127 102.672 -20.0837C111.908 -7.7988 114.769 2.64579 116.61 9.67706C118.749 17.8346 117.672 18.5634 119.058 24.1149C122.042 36.0315 132.099 53.0795 151.701 66.355C177.08 83.5343 205.333 85.5071 210.993 85.9009C253.232 88.845 275.286 65.9175 286.454 54.3085C311.942 27.8047 310.557 -4.1922 308.208 -20.0875L-55.2064 -158.433L-102.294 -176.358L-220.497 134.983L-172.284 153.337L-172.282 153.33Z" fill="#D7CAC7"/>
<path d="M-131.73 49.1148L-131.73 49.1146L-112.684 -15.8853L-113.176 -15.9712C-113.176 -15.9712 -113.176 -15.9713 -113.176 -15.9713C-110.268 -32.7354 -101.571 -43.2411 -99.2713 -45.8982L-99.2711 -45.8983L-99.2588 -45.9125C-92.4776 -53.7405 -80.96 -67.0359 -56.3643 -69.9118C-46.1684 -71.1048 -35.9874 -70.5026 -28.3629 -69.605C-24.5488 -69.1559 -21.3703 -68.6324 -19.1442 -68.2209C-18.0311 -68.0151 -17.1559 -67.8373 -16.5581 -67.7108C-16.2593 -67.6475 -16.0297 -67.597 -15.8745 -67.5623C-15.7969 -67.5449 -15.7378 -67.5315 -15.698 -67.5223L-15.6527 -67.5118L-15.641 -67.5091L-15.6379 -67.5084L-15.637 -67.5082C-15.6369 -67.5082 -15.6367 -67.5081 -15.6781 -67.3312L-15.6367 -67.5081C-11.4294 -66.5191 -8.33109 -65.549 -5.75116 -64.7413C-4.81872 -64.4494 -3.954 -64.1786 -3.12912 -63.9359C-0.0261096 -63.0226 2.54847 -62.4919 6.17858 -62.6575L6.17881 -62.6575C18.5548 -63.2161 30.0512 -71.2417 31.6185 -72.3454L31.6192 -72.3459C31.6773 -72.3866 31.7376 -72.4291 31.8003 -72.4734C32.6954 -73.1043 34.0796 -74.0801 36.3203 -75.0607C37.9701 -75.7831 43.3612 -78.0639 50.8972 -77.79L50.8975 -77.79C60.2047 -77.4469 68.1765 -73.3754 71.8104 -71.4815C83.2532 -65.521 88.9523 -57.9539 94.3893 -50.7346L94.4269 -50.6847L94.4271 -50.6844C103.722 -38.3219 106.603 -27.8029 108.45 -20.7496C109.527 -16.641 109.797 -14.3918 109.97 -12.4716C109.99 -12.254 110.008 -12.0413 110.027 -11.831C110.167 -10.204 110.295 -8.72582 110.899 -6.30651C113.85 5.48121 123.828 22.4286 143.337 35.6407C168.6 52.7413 196.738 54.709 202.383 55.1018C244.386 58.0294 266.3 35.2512 277.449 23.6621L277.45 23.6614C302.623 -2.51475 301.426 -34.0881 299.112 -50.0248L-64.028 -188.265L-110.649 -206.013L-228.496 104.393L-181.292 122.363C-178.55 109.892 -174.123 100.418 -170.39 93.8881C-164.559 83.6748 -158.05 76.4689 -151.126 68.8045L-151.083 68.7561C-146.085 63.2209 -143.211 60.5814 -140.6 58.1853L-140.58 58.1666C-137.99 55.7896 -135.66 53.651 -131.73 49.1148Z" stroke="white"/>
</g>
<path d="M250.431 13.4167C250.855 3.20436 256.287 -3.05222 260.1 -7.45521C261.398 -8.94239 265.953 -13.9746 275.697 -18.4009C278.4 -19.6262 282.52 -21.2757 310.997 -25.2225C332.822 -28.2426 332.066 -27.5099 335.443 -28.7856C337.478 -29.5621 341.063 -31.0815 346.204 -30.6655C351.838 -30.212 356.282 -27.6677 358.226 -26.5239C366.364 -21.7561 370.957 -14.6954 372.021 -13.0019C376.254 -6.25638 377.459 -0.16851 378.585 5.4971C380.411 14.7193 379.871 21.8131 379.63 24.2583C379.18 28.7672 378.292 32.0069 370.753 48.9137C362.44 67.5366 360.449 70.4666 356.781 73.1184C354.369 74.8695 349.538 78.2497 342.714 77.5661C337.633 77.0629 333.084 74.4768 329.096 72.2083C322.907 68.6863 322.157 66.8008 317.838 65.2677C313.258 63.6457 310.526 64.4849 305.993 64.7401C297.75 65.2171 289.542 63.4209 284.114 61.2618C272.003 56.4432 264.118 46.0185 262.075 43.2475C258.248 38.1117 249.879 26.7797 250.431 13.4167Z" fill="#E59889"/>
</g>
</svg>
