<svg width="16" height="15" viewBox="0 0 16 15" fill="none" xmlns="http://www.w3.org/2000/svg">
<path d="M3.852 6.95607e-06C3.68041 6.95607e-06 3.51584 0.0681736 3.3945 0.18951C3.27316 0.310846 3.205 0.475411 3.205 0.647006V1.28301H2.085C1.53219 1.28354 1.00217 1.50338 0.611267 1.89427C0.220368 2.28517 0.000529516 2.81519 0 3.36801V12C0.000529516 12.5528 0.220368 13.0828 0.611267 13.4737C1.00217 13.8646 1.53219 14.0845 2.085 14.085H13.115C13.6678 14.0845 14.1978 13.8646 14.5887 13.4737C14.9796 13.0828 15.1995 12.5528 15.2 12V3.36801C15.1995 2.81519 14.9796 2.28517 14.5887 1.89427C14.1978 1.50338 13.6678 1.28354 13.115 1.28301H12.152V0.647006C12.152 0.475411 12.0838 0.310846 11.9625 0.18951C11.8412 0.0681736 11.6766 6.95607e-06 11.505 6.95607e-06C11.3334 6.95607e-06 11.1688 0.0681736 11.0475 0.18951C10.9262 0.310846 10.858 0.475411 10.858 0.647006V1.28301H4.502V0.647006C4.502 0.561788 4.48517 0.477409 4.45247 0.398715C4.41976 0.320021 4.37184 0.248564 4.31144 0.188445C4.25104 0.128326 4.17936 0.0807304 4.10052 0.0483926C4.02167 0.0160547 3.93722 -0.000388183 3.852 6.95607e-06V6.95607e-06ZM13.906 12C13.9057 12.2097 13.8223 12.4108 13.674 12.559C13.5257 12.7073 13.3247 12.7907 13.115 12.791H2.085C1.87529 12.7907 1.67425 12.7073 1.52597 12.559C1.37769 12.4108 1.29426 12.2097 1.294 12V6.588H13.906V12ZM10.858 2.57301V3.20901C10.858 3.3806 10.9262 3.54517 11.0475 3.6665C11.1688 3.78784 11.3334 3.85601 11.505 3.85601C11.6766 3.85601 11.8412 3.78784 11.9625 3.6665C12.0838 3.54517 12.152 3.3806 12.152 3.20901V2.57301H13.115C13.3247 2.57327 13.5257 2.65669 13.674 2.80498C13.8223 2.95326 13.9057 3.1543 13.906 3.36401V5.29001H1.294V3.36801C1.29426 3.1583 1.37769 2.95726 1.52597 2.80898C1.67425 2.66069 1.87529 2.57727 2.085 2.57701H3.209V3.21301C3.209 3.29797 3.22574 3.38211 3.25825 3.4606C3.29077 3.5391 3.33842 3.61043 3.3985 3.6705C3.45858 3.73058 3.5299 3.77824 3.6084 3.81076C3.6869 3.84327 3.77103 3.86001 3.856 3.86001C3.94096 3.86001 4.0251 3.84327 4.1036 3.81076C4.18209 3.77824 4.25342 3.73058 4.3135 3.6705C4.37358 3.61043 4.42124 3.5391 4.45375 3.4606C4.48627 3.38211 4.503 3.29797 4.503 3.21301V2.57701L10.858 2.57301Z" fill="#D0D2D9"/>
</svg>
