<svg width="16" height="16" viewBox="0 0 16 16" fill="none" xmlns="http://www.w3.org/2000/svg">
<path d="M7.6 0C6.09687 0 4.62748 0.445724 3.37767 1.28082C2.12786 2.11592 1.15374 3.30287 0.578519 4.69159C0.00329298 6.08031 -0.147212 7.60845 0.146035 9.0827C0.439283 10.557 1.16311 11.9111 2.22599 12.974C3.28887 14.0369 4.64306 14.7607 6.11732 15.054C7.59157 15.3472 9.11968 15.1967 10.5084 14.6215C11.8971 14.0462 13.0841 13.0721 13.9192 11.8223C14.7543 10.5725 15.2 9.10311 15.2 7.59998C15.1979 5.58498 14.3965 3.65315 12.9717 2.22833C11.5469 0.803515 9.615 0.00211771 7.6 0V0ZM7.6 1.112C8.88321 1.112 10.1376 1.49253 11.2045 2.20544C12.2715 2.91835 13.1031 3.9316 13.5941 5.11713C14.0852 6.30265 14.2137 7.60717 13.9633 8.86572C13.713 10.1243 13.0951 11.2803 12.1877 12.1877C11.2803 13.095 10.1243 13.713 8.86575 13.9633C7.6072 14.2137 6.30268 14.0852 5.11715 13.5941C3.93163 13.1031 2.91834 12.2715 2.20543 11.2045C1.49252 10.1376 1.112 8.88318 1.112 7.59998C1.11082 6.74763 1.27783 5.90342 1.60346 5.11572C1.92909 4.32803 2.40695 3.61235 3.00965 3.00964C3.61235 2.40694 4.32806 1.92909 5.11575 1.60345C5.90345 1.27782 6.74765 1.11081 7.6 1.112V1.112ZM7.6 2.039C7.45254 2.039 7.31112 2.09757 7.20685 2.20184C7.10258 2.30611 7.044 2.44751 7.044 2.59497V7.59497C7.04399 7.6925 7.06968 7.78836 7.11849 7.8728C7.16729 7.95725 7.23749 8.02731 7.322 8.07599L11.336 10.393C11.4636 10.4667 11.6152 10.4867 11.7575 10.4487C11.8999 10.4106 12.0213 10.3176 12.095 10.19C12.1687 10.0624 12.1888 9.91077 12.1507 9.76843C12.1126 9.62609 12.0196 9.50476 11.892 9.43103L8.156 7.276V2.59003C8.15495 2.44326 8.0959 2.30281 7.99175 2.1994C7.88759 2.096 7.74677 2.03802 7.6 2.03802V2.039Z" fill="#D0D2D9"/>
</svg>
