<svg width="11" height="17" viewBox="0 0 11 17" fill="none" xmlns="http://www.w3.org/2000/svg">
<path d="M5.501 0C4.01116 0.0322836 2.59507 0.654638 1.5638 1.73034C0.532533 2.80605 -0.0295606 4.24713 0.001001 5.737C0.001001 7.358 1.516 10.262 1.516 10.262L5.298 17L9.246 10.34C9.246 10.34 11 7.569 11 5.74C11.0316 4.24971 10.4701 2.80785 9.43893 1.73147C8.40774 0.655078 6.99128 0.0322767 5.501 0V0ZM5.475 8.9C5.05079 8.88949 4.63281 8.79551 4.24493 8.6234C3.85706 8.4513 3.5069 8.20445 3.21447 7.89697C2.92203 7.58949 2.69304 7.2274 2.5406 6.83138C2.38815 6.43537 2.31523 6.0132 2.326 5.589C2.30667 4.73401 2.62743 3.90628 3.21783 3.28757C3.80824 2.66885 4.62004 2.30971 5.475 2.289C6.32996 2.30998 7.14171 2.66916 7.73222 3.28779C8.32273 3.90642 8.64379 4.73399 8.625 5.589C8.63564 6.01325 8.56259 6.43544 8.41004 6.83146C8.25748 7.22748 8.0284 7.58956 7.73588 7.89703C7.44337 8.2045 7.09314 8.45133 6.70521 8.62342C6.31729 8.79551 5.89926 8.88949 5.475 8.9Z" fill="#333333"/>
</svg>
