<svg width="20" height="20" viewBox="0 0 20 20" fill="none" xmlns="http://www.w3.org/2000/svg">
<path d="M13.4377 0.833008H6.56266C3.39902 0.833008 0.833496 3.39853 0.833496 6.56217V13.4372C0.833496 16.6008 3.39902 19.1663 6.56266 19.1663H13.4377C16.6013 19.1663 19.1668 16.6008 19.1668 13.4372V6.56217C19.1668 3.39853 16.6013 0.833008 13.4377 0.833008ZM17.4481 13.4372C17.4481 15.6486 15.6491 17.4476 13.4377 17.4476H6.56266C4.3512 17.4476 2.55225 15.6486 2.55225 13.4372V6.56217C2.55225 4.35072 4.3512 2.55176 6.56266 2.55176H13.4377C15.6491 2.55176 17.4481 4.35072 17.4481 6.56217V13.4372Z" fill="#7EA393"/>
<path d="M10.0002 5.4165C7.46902 5.4165 5.41683 7.46869 5.41683 9.99984C5.41683 12.531 7.46902 14.5832 10.0002 14.5832C12.5313 14.5832 14.5835 12.531 14.5835 9.99984C14.5835 7.46869 12.5313 5.4165 10.0002 5.4165ZM10.0002 12.8644C8.4212 12.8644 7.13558 11.5788 7.13558 9.99984C7.13558 8.41973 8.4212 7.13525 10.0002 7.13525C11.5791 7.13525 12.8647 8.41973 12.8647 9.99984C12.8647 11.5788 11.5791 12.8644 10.0002 12.8644Z" fill="#7EA393"/>
<path d="M14.9275 5.68288C15.2648 5.68288 15.5382 5.40945 15.5382 5.07215C15.5382 4.73486 15.2648 4.46143 14.9275 4.46143C14.5902 4.46143 14.3167 4.73486 14.3167 5.07215C14.3167 5.40945 14.5902 5.68288 14.9275 5.68288Z" fill="#7EA393"/>
</svg>
