<svg width="14" height="10" viewBox="0 0 14 10" fill="none" xmlns="http://www.w3.org/2000/svg">
<path d="M12.773 0H1.226C1.04336 0.00113274 0.863283 0.0431626 0.699005 0.123001L6.972 6.358L8.37801 5.014L13.3 0.123001C13.1357 0.0431626 12.9557 0.00113274 12.773 0Z" fill="#333333"/>
<path d="M13.877 0.700195L9.27701 5.0002L13.877 9.3002C13.9566 9.14904 13.9987 8.98101 14 8.8102V1.1902C13.9987 1.01939 13.9566 0.851355 13.877 0.700195Z" fill="#333333"/>
<path d="M0.123 0.699219C0.0434394 0.850379 0.00126169 1.0184 0 1.18922L0 8.81122C0.00130047 8.98203 0.043476 9.15004 0.123 9.30122L4.723 5.00122L0.123 0.699219Z" fill="#333333"/>
<path d="M8.669 5.27393L7.263 6.61691C7.18585 6.69337 7.08163 6.73627 6.97301 6.73627C6.86439 6.73627 6.76016 6.69337 6.683 6.61691L5.33101 5.27393L0.699005 9.87393C0.863587 9.95392 1.04402 9.99593 1.22701 9.99692H12.773C12.9557 9.99578 13.1357 9.95377 13.3 9.87393L8.669 5.27393Z" fill="#333333"/>
</svg>
