<svg width="16" height="16" viewBox="0 0 16 16" fill="none" xmlns="http://www.w3.org/2000/svg">
<path d="M3.03367 0.00402832C2.8093 0.0146407 2.58941 0.0706105 2.38729 0.168579C2.18516 0.266548 2.005 0.404428 1.85767 0.573975L0.527666 2.09399C0.150095 2.58082 -0.0356514 3.18932 0.00566537 3.80402C0.00566537 5.81602 1.38966 8.64899 3.97166 11.232C6.55366 13.815 9.39367 15.204 11.4057 15.204C12.0173 15.2439 12.6223 15.0579 13.1057 14.681L14.6257 13.351C14.796 13.204 14.9349 13.024 15.0339 12.8219C15.1329 12.6198 15.19 12.3997 15.2017 12.175C15.1968 11.9519 15.1458 11.7322 15.0519 11.5298C14.9579 11.3274 14.823 11.1467 14.6557 10.999L12.5657 8.909C12.4237 8.73819 12.2458 8.60074 12.0447 8.50641C11.8437 8.41208 11.6243 8.36316 11.4022 8.36316C11.1801 8.36316 10.9607 8.41208 10.7596 8.50641C10.5585 8.60074 10.3806 8.73819 10.2387 8.909L9.48467 9.65698C9.36167 9.76598 9.29667 9.809 9.25267 9.776L5.42867 5.95203C5.37667 5.87403 5.45767 5.811 5.50167 5.758C5.51167 5.746 6.29567 4.95801 6.29567 4.95801C6.4588 4.81074 6.59107 4.63256 6.68479 4.43378C6.77852 4.23499 6.83184 4.01954 6.84167 3.79999C6.82034 3.35515 6.62409 2.93677 6.29567 2.63599L4.20567 0.546021C4.058 0.378701 3.87727 0.243755 3.67486 0.14978C3.47246 0.0558058 3.25277 0.00482193 3.02967 0L3.03367 0.00402832ZM3.40167 1.35199L5.49167 3.44202C5.55336 3.48364 5.60538 3.53801 5.64421 3.6015C5.68303 3.665 5.70774 3.73611 5.71667 3.81C5.70501 3.88073 5.67904 3.94838 5.64035 4.00873C5.60166 4.06908 5.55107 4.12088 5.49167 4.16101L4.69167 4.961C4.45938 5.17632 4.31555 5.4704 4.28819 5.78595C4.26083 6.1015 4.3519 6.41595 4.54367 6.66803L8.53367 10.658C8.78152 10.8403 9.08575 10.9291 9.39273 10.909C9.6997 10.8889 9.98972 10.7611 10.2117 10.548C10.2367 10.526 11.0507 9.70801 11.0507 9.70801C11.0929 9.65091 11.1464 9.60302 11.2078 9.56726C11.2691 9.5315 11.3372 9.50861 11.4077 9.5C11.548 9.52276 11.6749 9.5969 11.7637 9.70801L13.8537 11.798C14.1677 12.122 14.1077 12.345 13.8837 12.487L12.3637 13.817C12.0782 13.9958 11.7439 14.0807 11.4077 14.06C9.96767 14.06 7.20767 12.847 4.78167 10.426C2.35567 8.00503 1.14767 5.23999 1.14767 3.79999C1.1256 3.46445 1.20842 3.13037 1.38467 2.84399L2.71466 1.32397C2.94866 1.04097 3.16466 1.11901 3.40566 1.35101L3.40167 1.35199Z" fill="#D0D2D9"/>
</svg>
