<svg width="20" height="16" viewBox="0 0 20 16" fill="none" xmlns="http://www.w3.org/2000/svg">
<path d="M19.5899 2.47112C18.8924 2.77709 18.1492 2.97989 17.3743 3.07836C18.1715 2.60242 18.7799 1.85451 19.0659 0.953027C18.3227 1.39615 17.5021 1.70915 16.6276 1.88381C15.9219 1.13239 14.916 0.666992 13.8188 0.666992C11.6899 0.666992 9.97607 2.39493 9.97607 4.51323C9.97607 4.81802 10.0019 5.11109 10.0652 5.39009C6.86837 5.23418 4.03967 3.70201 2.13941 1.36801C1.80766 1.9436 1.61306 2.60242 1.61306 3.31165C1.61306 4.64335 2.29884 5.82383 3.32106 6.50727C2.70328 6.49555 2.09721 6.31619 1.58375 6.03367C1.58375 6.04539 1.58375 6.06063 1.58375 6.07587C1.58375 7.94448 2.91663 9.49657 4.66449 9.85412C4.3515 9.93969 4.01036 9.98072 3.65634 9.98072C3.41016 9.98072 3.16164 9.96665 2.92835 9.91507C3.42657 11.4379 4.84033 12.5574 6.52138 12.5937C5.21312 13.6171 3.552 14.2337 1.75373 14.2337C1.43839 14.2337 1.13594 14.2197 0.833496 14.181C2.53681 15.2794 4.55547 15.9066 6.73239 15.9066C13.8082 15.9066 17.6768 10.0452 17.6768 4.96455C17.6768 4.79457 17.6709 4.63046 17.6627 4.46751C18.4258 3.92592 19.0671 3.24952 19.5899 2.47112Z" fill="#7EA393"/>
</svg>
