<svg xmlns="http://www.w3.org/2000/svg" width="18.543" height="18.588" viewBox="0 0 18.543 18.588"><defs><style>.a{fill:#46435b;}</style></defs><g transform="translate(-0.621)"><path class="a" d="M256.282.128c.16-.128.255-.128.766-.128a7.282,7.282,0,0,1,.862.064A7.437,7.437,0,0,1,260.56.8a8.507,8.507,0,0,1,2.3,1.6A7.1,7.1,0,0,1,264.422,4.5a9.757,9.757,0,0,1,.99,4.086c.032.511,0,.638-.128.8a.572.572,0,0,1-.926-.1c-.064-.1-.064-.192-.1-.606a10.761,10.761,0,0,0-.16-1.564,7.093,7.093,0,0,0-2.841-4.628,7.177,7.177,0,0,0-4.118-1.4c-.606,0-.7,0-.83-.128a.568.568,0,0,1-.032-.83" transform="translate(-246.259)"/><path class="a" d="M265.69,65.986a6.025,6.025,0,0,0-2.362-.7.806.806,0,0,1-.575-.223.488.488,0,0,1-.064-.638c.16-.255.415-.287,1.149-.16a5.963,5.963,0,0,1,4.245,2.49,5.541,5.541,0,0,1,.958,2.649,6.383,6.383,0,0,1,0,1.117.508.508,0,0,1-.287.287.578.578,0,0,1-.511-.032c-.223-.128-.319-.287-.319-.8a4.48,4.48,0,0,0-.575-2.234,4.4,4.4,0,0,0-1.66-1.756" transform="translate(-252.506 -61.869)"/><path class="a" d="M279.184,135.4a.575.575,0,0,1-.7,0c-.16-.1-.192-.223-.223-.543a3.255,3.255,0,0,0-.223-.958,1.689,1.689,0,0,0-1.532-.958c-.383-.032-.479-.1-.606-.223a.556.556,0,0,1,.16-.83c.128-.064.16-.064.415-.032a2.48,2.48,0,0,1,.511.064,3.156,3.156,0,0,1,1.468.7,2.769,2.769,0,0,1,.894,1.851c.064.543.032.766-.16.926" transform="translate(-265.203 -127.066)"/><path class="a" d="M19.121,23.3a1.065,1.065,0,0,0-.287-.734A19.215,19.215,0,0,0,16.7,20.879c-.479-.319-1.213-.766-1.532-.926a1.727,1.727,0,0,0-1.309-.128,1.56,1.56,0,0,0-.223.1c-.192.1-.351.287-.734.734a5.231,5.231,0,0,1-.511.606.031.031,0,0,0-.032.032,1.061,1.061,0,0,1-.192.1h0c-.415.192-.958.064-1.851-.351a8.538,8.538,0,0,1-2.011-1.4,8.372,8.372,0,0,1-1.532-1.756A4.734,4.734,0,0,1,6,15.771a1.5,1.5,0,0,1,.192-.67h0l.032-.032.032-.032c.032-.032.064-.064.1-.064.128-.1.287-.255.447-.383.734-.575.894-.766.99-1.085A1.769,1.769,0,0,0,7.47,12.2,15.462,15.462,0,0,0,4.725,8.749c-.1-.064-.255-.128-.351-.192a2.371,2.371,0,0,0-.8-.064,4.855,4.855,0,0,0-1.436.862A6.791,6.791,0,0,0,.863,10.568c-.351.606-.319,1.085.1,2.266a21.324,21.324,0,0,0,1.468,3.128h0l.032.032c.128.192.255.415.383.606,0,.032.032.032.032.064.128.192.255.415.383.606.064.064.1.16.16.223a3.872,3.872,0,0,0,.319.447c.16.223.319.447.511.67a24.294,24.294,0,0,0,6.416,5.841c.032.032.064.032.1.064l1.149.67c.064.032.1.064.16.1.383.223.8.415,1.213.606.032.032.1.032.128.064.415.192.862.383,1.309.575a2.037,2.037,0,0,0,1.149.223,1.491,1.491,0,0,0,.543-.1,2.453,2.453,0,0,0,.766-.383c.064-.032.1-.064.16-.1a.846.846,0,0,0,.192-.16,7.39,7.39,0,0,0,1.053-1.149,3.746,3.746,0,0,0,.479-.8c.032-.319.064-.543.064-.766" transform="translate(0 -8.174)"/></g></svg>
