<svg xmlns="http://www.w3.org/2000/svg" width="18.016" height="12.557" viewBox="0 0 18.016 12.557"><defs><style>.a{fill:#46435b;}</style></defs><path class="a" d="M17.7,16.7a2.276,2.276,0,0,0-1.948-1.77,60.535,60.535,0,0,0-6.746-.249,60.545,60.545,0,0,0-6.747.249A2.276,2.276,0,0,0,.317,16.7,19.294,19.294,0,0,0,0,20.955a19.288,19.288,0,0,0,.314,4.258,2.276,2.276,0,0,0,1.947,1.77,60.492,60.492,0,0,0,6.746.25,60.48,60.48,0,0,0,6.746-.25,2.277,2.277,0,0,0,1.947-1.77,19.279,19.279,0,0,0,.315-4.258A19.291,19.291,0,0,0,17.7,16.7ZM6.683,23.751V17.793l5.728,2.988Z" transform="translate(0 -14.676)"/></svg>
