<svg width="52" height="70" viewBox="0 0 52 70" fill="none" xmlns="http://www.w3.org/2000/svg">
<path d="M39.2324 22.4908C39.7701 22.1207 40.1232 21.5017 40.1232 20.7999C40.1232 19.8386 39.4604 19.0338 38.5675 18.8116L49.9952 7.38388C52.2324 5.14725 51.9413 3.30528 51.5691 2.40646C51.1968 1.50764 50.0999 0 46.9367 0H14.9306C14.9295 0 14.9295 0 14.929 0H4.88871C1.72549 0 0.628533 1.50764 0.256295 2.40646C-0.115943 3.30528 -0.407005 5.14725 1.83016 7.38388L13.2579 18.8122C12.365 19.0338 11.7028 19.8386 11.7028 20.7999C11.7028 21.5017 12.0558 22.1212 12.593 22.4908C5.21929 26.995 0.28727 35.1196 0.28727 44.3748C0.28727 58.5044 11.7829 70 25.913 70C40.0425 70 51.5381 58.5044 51.5381 44.3743C51.5381 35.1196 46.6056 26.995 39.2324 22.4908ZM47.4211 4.12506C47.3372 4.22867 47.2304 4.34883 47.0953 4.48395L32.8295 18.7492H23.0974L24.1126 17.7345C24.1126 17.7345 24.1126 17.7339 24.1132 17.7339L26.0529 15.7937L37.7455 4.10156H46.9367C47.1279 4.10156 47.2881 4.11064 47.4211 4.12506ZM25.913 10.1337L19.8808 4.10156H31.9446L25.913 10.1337ZM4.40432 4.12453C4.5373 4.11064 4.69752 4.10156 4.88871 4.10156H14.0798L23.0125 13.0337L18.1462 17.9L4.7301 4.48395C4.59498 4.34883 4.48817 4.22867 4.40432 4.12453ZM25.913 65.8984C14.0446 65.8984 4.38883 56.2427 4.38883 44.3743C4.38883 32.5065 14.0446 22.8507 25.913 22.8507C37.7808 22.8507 47.4365 32.5065 47.4365 44.3743C47.4365 56.2427 37.7808 65.8984 25.913 65.8984Z" fill="#636268"/>
<path d="M31.5648 36.6716L27.7517 28.9459C27.4061 28.2458 26.6932 27.8025 25.9129 27.8025H25.9124C25.1321 27.8025 24.4191 28.2458 24.0736 28.9459L20.2604 36.6716L11.7347 37.9101C10.9625 38.0228 10.3205 38.5638 10.0792 39.3061C9.83829 40.0484 10.0391 40.8634 10.5983 41.4081L16.7677 47.4222L15.3113 55.9131C15.1794 56.6827 15.4956 57.4603 16.1268 57.9191C16.7586 58.3778 17.596 58.4382 18.2866 58.075L25.9124 54.0658L33.5376 58.075C33.8378 58.2331 34.1657 58.3105 34.492 58.3105C34.4947 58.3105 34.4968 58.3105 34.4995 58.3105C35.6301 58.3084 36.546 57.3909 36.546 56.2598C36.546 56.1022 36.5284 55.9489 36.4947 55.8021L35.0576 47.4222L41.2265 41.4081C41.7856 40.8634 41.9864 40.0484 41.7456 39.3061C41.5042 38.5638 40.8622 38.0228 40.09 37.9101L31.5648 36.6716ZM31.4222 45.2373C30.9389 45.7084 30.7183 46.3872 30.8326 47.0526L31.7688 52.5107L26.8673 49.9338C26.2696 49.6198 25.5561 49.6198 24.9585 49.9338L20.0564 52.5112L20.9926 47.0526C21.1069 46.3872 20.8863 45.7084 20.403 45.2373L16.4371 41.3718L21.9176 40.5755C22.5852 40.4783 23.163 40.0591 23.4616 39.4535L25.9124 34.4873L28.3637 39.4535C28.6628 40.0591 29.2395 40.4783 29.9076 40.5755L35.3881 41.3718L31.4222 45.2373Z" fill="#636268"/>
</svg>
