<svg width="74" height="74" viewBox="0 0 74 74" fill="none" xmlns="http://www.w3.org/2000/svg">
<path d="M52.8984 8.82262H43.5039V2.17531C43.5039 0.978409 42.5345 0.00790405 41.3376 0.00733947L32.8086 0C31.6106 0 30.6406 0.972763 30.6406 2.16797V8.82262H21.1016C16.7182 8.82262 13.1523 12.3885 13.1523 16.7713V66.0513C13.1523 70.4341 16.7182 74 21.1016 74H52.8984C57.2818 74 60.8477 70.4341 60.8477 66.0513V16.7713C60.8477 12.3885 57.2818 8.82262 52.8984 8.82262ZM34.9766 4.33763L39.168 4.34102V13.158H34.9766V4.33763ZM56.5117 66.0513C56.5117 68.0432 54.8908 69.6641 52.8984 69.6641H21.1016C19.1092 69.6641 17.4883 68.0432 17.4883 66.0513V16.7713C17.4883 14.7794 19.1092 13.1586 21.1016 13.1586H30.6406V15.326C30.6406 16.5234 31.6111 17.4939 32.8086 17.4939H41.3359C42.5334 17.4939 43.5039 16.5234 43.5039 15.326V13.1586H52.8984C54.8908 13.1586 56.5117 14.7789 56.5117 16.7713V66.0513Z" fill="#636268"/>
<path d="M50.0078 52.1775H23.9922C22.7947 52.1775 21.8242 53.148 21.8242 54.3455C21.8242 55.5429 22.7947 56.5134 23.9922 56.5134H50.0078C51.2053 56.5134 52.1758 55.5429 52.1758 54.3455C52.1758 53.148 51.2053 52.1775 50.0078 52.1775Z" fill="#636268"/>
<path d="M32.6641 60.8488H23.9922C22.7947 60.8488 21.8242 61.8193 21.8242 63.0167C21.8242 64.2136 22.7947 65.1847 23.9922 65.1847H32.6641C33.8615 65.1847 34.832 64.2136 34.832 63.0167C34.832 61.8193 33.8615 60.8488 32.6641 60.8488Z" fill="#636268"/>
<path d="M50.0078 60.8488H41.3359C40.1385 60.8488 39.168 61.8193 39.168 63.0167C39.168 64.2136 40.1385 65.1847 41.3359 65.1847H50.0078C51.2053 65.1847 52.1758 64.2136 52.1758 63.0167C52.1758 61.8193 51.2053 60.8488 50.0078 60.8488Z" fill="#636268"/>
<path d="M28.3281 47.8427H45.6719C46.8693 47.8427 47.8398 46.8716 47.8398 45.6747V41.3388C47.8398 37.3478 45.6894 33.8378 42.4064 31.9431C45.2834 27.6501 42.1958 21.8287 37 21.8287C31.8014 21.8287 28.7047 27.6614 31.6049 31.96C28.2022 33.9541 26.1602 37.6351 26.1602 41.4827V45.6747C26.1602 46.8716 27.1307 47.8427 28.3281 47.8427ZM37 26.1647C38.1952 26.1647 39.168 27.1374 39.168 28.3326C39.168 29.5278 38.1952 30.5 37 30.5C35.8048 30.5 34.832 29.5278 34.832 28.3326C34.832 27.1374 35.8048 26.1647 37 26.1647ZM30.4961 41.4827C30.4961 37.8006 33.4731 34.7654 37.1332 34.8371C40.646 34.9077 43.5039 37.8243 43.5039 41.3388V43.5067H30.4961V41.4827Z" fill="#636268"/>
</svg>
