<svg width="70" height="71" viewBox="0 0 70 71" fill="none" xmlns="http://www.w3.org/2000/svg">
<path d="M36.7243 2.20952C35.2999 0.784573 33.4055 0 31.3909 0C29.3763 0 27.4819 0.784573 26.0575 2.20898C24.6325 3.63393 23.848 5.5278 23.848 7.54237C23.848 9.07574 24.3035 10.5381 25.1485 11.7777L10.4627 47.7383C9.5494 47.3543 8.55974 47.1524 7.5391 47.1524C5.52506 47.1524 3.63065 47.9364 2.20571 49.3608C-0.73497 52.302 -0.735504 57.0869 2.20571 60.0281L9.9724 67.7948C11.3968 69.2192 13.2912 70.0038 15.3058 70.0038C17.3209 70.0038 19.2148 69.2192 20.6392 67.7948C22.0636 66.3704 22.8482 64.476 22.8487 62.4614C22.8487 61.4408 22.6463 60.4511 22.2623 59.5378L29.7315 56.4877L32.6508 59.407C34.5222 61.2784 37.4351 62.3306 40.23 62.3306C41.4947 62.3306 42.7354 62.1153 43.8442 61.6624L51.0031 58.7383C52.9824 57.9297 54.3256 56.4353 54.6877 54.6376C55.0499 52.8404 54.3908 50.9417 52.8783 49.4297L51.1772 47.7287L58.2218 44.8515C59.4619 45.6965 60.9243 46.152 62.4576 46.152C62.4582 46.152 62.4582 46.152 62.4582 46.152C64.4722 46.152 66.3666 45.3675 67.791 43.943C70.7317 41.0018 70.7317 36.2164 67.791 33.2757L36.7243 2.20952ZM46.7833 45.0924C46.7763 45.0951 46.7694 45.0983 46.7624 45.1009L29.4559 52.1696C29.4489 52.1723 29.442 52.1749 29.4356 52.1776L19.6752 56.164L13.8365 50.3254L28.2392 15.058L54.9414 41.7608L46.7833 45.0924ZM17.7386 64.8947C17.0891 65.5442 16.225 65.902 15.3058 65.902C14.3866 65.902 13.5225 65.5442 12.8725 64.8942L5.1058 57.128C3.76418 55.7864 3.76418 53.6031 5.1058 52.2614C5.75579 51.6115 6.61994 51.2536 7.5391 51.2536C8.45826 51.2536 9.32242 51.612 9.9724 52.262L17.7386 60.0281C18.3885 60.6781 18.7469 61.5423 18.7469 62.4609C18.7464 63.3806 18.3885 64.2442 17.7386 64.8947ZM49.9782 52.3303C50.5021 52.8543 50.7531 53.4001 50.6666 53.8274C50.5806 54.2552 50.1379 54.6611 49.4521 54.941L42.2932 57.8651C40.2567 58.6967 37.1067 58.0616 35.5514 56.5069L33.8498 54.8058L47.0583 49.411L49.9782 52.3303ZM64.8904 41.0424C64.2404 41.6924 63.3768 42.0502 62.4582 42.0502C62.4582 42.0502 62.4582 42.0502 62.4576 42.0502C61.5385 42.0502 60.6738 41.6919 60.0238 41.0424L28.9576 9.97567V9.97514C28.3076 9.32569 27.9498 8.46207 27.9498 7.54291C27.9498 6.62374 28.3076 5.75959 28.9576 5.10961C29.6076 4.45962 30.4717 4.10179 31.3909 4.10179C32.31 4.10179 33.1742 4.45962 33.8242 5.10961L64.8904 36.1758C66.232 37.518 66.232 39.7008 64.8904 41.0424Z" fill="#636268"/>
<path d="M58.5742 13.4771C59.0987 13.4771 59.6237 13.2769 60.0243 12.8763L69.3991 3.50147C70.2002 2.70034 70.2002 1.40198 69.3991 0.600847C68.598 -0.200282 67.2996 -0.200282 66.499 0.600847L57.1236 9.97567C56.323 10.7768 56.323 12.0752 57.1236 12.8763C57.5242 13.2769 58.0492 13.4771 58.5742 13.4771Z" fill="#636268"/>
<path d="M49.2539 7.26358C49.7789 7.26358 50.3039 7.0633 50.7044 6.66273L53.8662 3.50094C54.6674 2.70034 54.6674 1.40198 53.8662 0.600847C53.0656 -0.200282 51.7667 -0.200282 50.9656 0.600847L47.8038 3.76264C47.0032 4.56324 47.0032 5.8616 47.8038 6.66273C48.2044 7.0633 48.7294 7.26358 49.2539 7.26358Z" fill="#636268"/>
<path d="M66.4992 16.1337L63.3374 19.296C62.5363 20.0972 62.5363 21.3955 63.3374 22.1967C63.738 22.5972 64.2625 22.797 64.7875 22.797C65.3125 22.797 65.8375 22.5967 66.2375 22.1967L69.3993 19.0343C70.2004 18.2332 70.2004 16.9348 69.3993 16.1337C68.5982 15.3331 67.2998 15.3331 66.4992 16.1337Z" fill="#636268"/>
</svg>
